<?xml version="1.0" encoding="utf-8"?>
<!-- Generator: Adobe Illustrator 16.0.3, SVG Export Plug-In . SVG Version: 6.00 Build 0)  -->
<!DOCTYPE svg PUBLIC "-//W3C//DTD SVG 1.1//EN" "http://www.w3.org/Graphics/SVG/1.1/DTD/svg11.dtd">
<svg version="1.1" xmlns="http://www.w3.org/2000/svg" xmlns:xlink="http://www.w3.org/1999/xlink" x="0px" y="0px"
	 width="913.16px" height="240.268px" viewBox="0 0 913.16 240.268" enable-background="new 0 0 913.16 240.268"
	 xml:space="preserve">
<g id="Grid" display="none">
</g>
<g id="Layer_1">
</g>
<g id="Desktop">
</g>
<g id="Guides">
</g>
<g id="Page_1">
	<g id="Layer_1_1_">
		<g>
			<path fill-rule="evenodd" clip-rule="evenodd" fill="#FFFFFF" d="M615.286,0L292.813,26.003l5.038,62.415l322.462-26.003
				L615.286,0L615.286,0z M610.502,5.618l4.188,52.026L302.633,82.793l-4.186-51.998L610.502,5.618L610.502,5.618z"/>
			<path fill-rule="evenodd" clip-rule="evenodd" fill="#FFFFFF" d="M893.58,44.601H19.558C8.753,44.601,0,53.355,0,64.16v123.931
				c0,8.881,5.919,16.385,14.018,18.776c68.399,20.162,240.919,33.401,442.545,33.401c201.652,0,374.152-13.239,442.55-33.401
				c8.108-2.391,14.046-9.895,14.046-18.776L913.16,64.16C913.16,53.355,904.385,44.601,893.58,44.601L893.58,44.601z"/>
			<path fill-rule="evenodd" clip-rule="evenodd" fill="#72BF44" d="M893.58,52.411H19.558c-6.471,0-11.732,5.275-11.732,11.749
				v123.931c0,5.167,3.468,9.815,8.406,11.26c68.187,20.099,241.023,33.089,440.331,33.089c199.311,0,372.158-12.979,440.339-33.079
				c4.948-1.465,8.413-6.104,8.413-11.27V64.16C905.314,57.687,900.052,52.411,893.58,52.411L893.58,52.411z M893.58,57.644
				c3.599,0,6.524,2.921,6.524,6.517v123.931c0,2.866-1.924,5.447-4.679,6.264c-67.742,19.963-240.019,32.87-438.863,32.87
				c-198.836,0-371.106-12.897-438.856-32.88c-2.75-0.808-4.655-3.389-4.655-6.254V64.16c0-3.596,2.911-6.517,6.507-6.517H893.58
				L893.58,57.644z"/>
			<path fill-rule="evenodd" clip-rule="evenodd" fill="#F58220" d="M305.09,185.339l0.36,0.136L305.09,185.339L305.09,185.339z
				 M284.418,181.753l0.547-0.081L284.418,181.753L284.418,181.753z M286.525,181.061l-0.256,0.297L286.525,181.061L286.525,181.061
				z M289.712,181.205l-1.879,0.287l-1.563-0.134l-1.305,0.315l0.248-0.028C286.488,181.743,288.885,181.564,289.712,181.205
				L289.712,181.205z M266.14,176.118l0.432-0.171L266.14,176.118L266.14,176.118z M661.879,170.788l-0.094,0.612L661.879,170.788
				L661.879,170.788z M658.693,177.287l-0.136,0.466L658.693,177.287L658.693,177.287z M654.728,176.416l0.554-1.917l0.34,1.375
				L654.728,176.416L654.728,176.416z M650.621,175.272c0.562-0.979,1.959-1.816,3.293-1.645
				C652.824,174.194,651.709,174.681,650.621,175.272L650.621,175.272z M638.958,184.1l-0.053-0.451l0.395-0.063L638.958,184.1
				L638.958,184.1z M565.343,195.776c0.061-1.042,1.624-1.024,2.948-1.259C567.345,196.242,566.783,195.8,565.343,195.776
				L565.343,195.776z M558.993,197.843l-0.036,0.053l-0.377-0.818l2.318,0.027c0.887-0.486,1.224-0.881,1.282-1.221l0.881,0.34
				l0.858,0.307C562.737,198.599,562.067,196.881,558.993,197.843L558.993,197.843z M560.383,199.011
				c-0.995,0.098-1.259-0.161-1.35-0.539l1.35,0.368V199.011L560.383,199.011z M528.06,199.603l-0.624-0.105l1.168-0.459
				L528.06,199.603L528.06,199.603z M521.41,199.917l0.354-0.619L521.41,199.917L521.41,199.917z M332.15,194.632
				c-1.079,0.378-0.615,0.721-0.827,0.899l-0.091,0.046c-0.161,0.08-0.533,0.135-1.401,0.135c0-0.496,1.622-1.538,3.128-1.934
				L332.15,194.632L332.15,194.632z M300.956,186.238l0.701-0.483l0.755,0.214L300.956,186.238L300.956,186.238z M289.113,185.241
				l-1.694,0.35l0.037-0.448c1.104-0.315,1.6-0.307,2.467-0.468l-0.251,0.153C287.999,185.107,288.569,185.15,289.113,185.241
				L289.113,185.241z M290.17,184.296l-0.696-0.448L290.17,184.296L290.17,184.296z M269.214,179.696l-0.302-0.038l-0.399,0.119
				l-0.81-0.396l0.396-0.251c1.362,0.116,0.396,0.287,1.758,0.403L269.214,179.696L269.214,179.696z M267.744,180.099l0.697-0.189
				L267.744,180.099L267.744,180.099z M266.458,177.483l0.531-0.44c-0.85,0.09-1.358,0.188-1.699,0.297l-0.409-0.333l1.708-0.287
				C268.086,176.647,267.955,177.188,266.458,177.483L266.458,177.483z M263.713,178.518l0.09-0.216h0.831L263.713,178.518
				L263.713,178.518z M598.031,192.296c-1.126,0.423-2.203,0.458-3.749,0.359c-0.854-0.063-1.793-0.07-2.64-0.234l-1.886-0.637
				l-2.211,0.424c-1.11,0.088-2.208,0.188-3.296,0.457c-2.098,0.504-4.232,0.69-6.396,0.773c-1.438,0.053-3.608-0.262-2.475,1.742
				l-2.018-1.238l1.675-0.773c-2.302-0.209-3.047,1.131-5.469,1.463l-0.053-0.521l0.506-0.556l-0.094-0.063
				c1.043-0.611,3.687-0.206,4.243-1.402l-1.811-1.339c-3.066,0.378-1.566,1.601-3.371,2.004l-0.809-0.647l-0.101,0.027l0.063-0.17
				l-0.699,0.297l-0.872,0.35l-0.737,0.287l0.045,0.594c-0.229,0.469-0.554,0.889-2.336,0.928l0.436-0.98
				c-0.935,0.403-1.385,0.609-2.307,1.005l0.018,0.423c-0.396-0.458-0.695-0.871,0.314-1.42c-2.372-0.314-2.412,1.133-3.729,1.717
				l-0.033,1.7l-0.322,0.231l-0.536-1.697l0.896-0.234l-0.852,0.172l0.396-0.314c-2.264-0.325-2.399,1.105-3.567,1.779
				c-0.436-0.727-1.07-1.395-2.664-0.972c0.211,0.829-0.751,1.563-1.839,2.302c-0.423-0.531-1.08-0.889-2.329-0.539
				c0.308,1.277-1.843,2.382-3.202,3.533c-0.182-0.234-0.148-0.504,0.866-1.187l-1.546,0.144c1.133-0.783,1.661-1.188,2.777-1.986
				c-1.434-0.791-3.894-1.458-4.583-2.021c-2.279,0.86,0.276,1.283-2.319,1.92c1.113-0.825-0.211-1.273-1.31-1.141
				c1.116,0.162,0.791,0.766,0.019,1.34l-0.563-0.342c-1.283,0.521-1.037,0.908-1.037,1.258l-0.597,0.225h-0.267l-1.72-0.637
				l0.718,0.584c-1.375-0.242-2.04-1.035-1.697-1.287c1.015-0.546,1.508-0.815,2.525-1.375c-1.964,1.151-0.526-0.457-2.267,0.109
				c-0.745,0.791-2.2,2.039-3.167,3.074l-1.187,0.063l1.982-1.141l-0.904-0.217l-0.904,0.046c-1.267-0.181,0.745-1.987-1.906-1.35
				l-1.213,1.105l0.176-1.005l-3.205,1.068l0.131-0.684c-1.383,0.539-3.722,2.176-4.457,0.928c0.27,1.57,1.456-0.109,3.133,0.511
				l0.045,0.153l-3.039,1.033l0.171-0.719l-0.594,0.27c-0.763-0.115-2.634,0.557-3.82,0.791l-0.063-0.08l0.035,0.09l-0.466,0.063
				l-1.322-1.168l-1.267,1.158c0.877-2.211-3.188,0.602-4.355-0.035c1.281-0.71,1.723-1.574,0.828-1.86
				c0.357,1.329-2.576,1.923-3.744,2.722l-0.423-0.735l-0.431,1.105c-1.43-0.612,2.543-2.067,2.47-3.092
				c-2.258,1.302-2.583-0.692-4.655,0.927c1.511,0.375-0.44,0.889-1.609,1.5l-1.123-0.143l0.28-0.857
				c-1.229,0.252-3.601,1.521-2.307,1.963l-1.803,0.178l-0.048-0.035l-0.635,0.197c-1.075,0.252-2.135,0.475-2.606-0.046
				c0.172-0.987,3.563-0.528,3.15-1.222c-2.583-0.027-3.487,1.402-5.28,2.284L487.865,204l-1.039,0.217l0.158,0.322
				c-1.156,0.809-2.193,1.833-4.339,2.06l0.113,0.546l-0.324,0.091c-3.259-0.538,2.243-0.63,2.072-1.969l-1.657,0.163l0.076-0.395
				c1.077-0.469,1.959-0.927,2.057-1.431c2.002-0.871,4.585-1.608,4.145-2.462l-2.055,0.566l1.775-1.826
				c-1.415,1.204-3.822,0.305-4.341,0.576c-1.209,0.998,1.493-0.271,0.554,0.477c-1.871,0.27-4.172,1.949-6.076,1.302
				c2.053-0.692,0.773-1.356,1.852-1.903c-0.826-0.396-1.474,1.15-2.68,0.602l0.75-0.576c-6.219-0.151-13.977-0.134-21.87,1.916
				c0.146-0.979-1.71-1.115-3.926-1.844c0.939,0.343-1.114,0.945-1.986,1.025l-0.112-1.088c-0.993-0.657-4.453,0.252-6.791,0.763
				l0.535-0.763c-0.61-0.738-2.282,0.477-3.169,0.682v-0.779l-1.132,0.672c-2.045,0.332-3.739,0.045-2.01-1.061
				c-0.862,0.172-1.729,0.367-1.46,0.729c-0.535-0.729-4.472-0.952-7.587-0.729c0.814,0.343,0.221,0.665-0.719,1.375
				c-2.17,1.179-0.246-0.26-2.354,0.378c0.674-0.448,0.167-0.962,1.888-1.214c-1.214-1.627-7.622-0.799-11.267-1.402
				c-1.074,0.118-1.133,0.307-1.995,0.576c-0.738-1.312-5.735-0.395-7.659-1.07c-0.144,0.432-2.521,1.421-4.171,1.582l1.641-0.962
				l-1.959,0.972h-0.257l-0.683,0.133l-0.111-0.195l-0.172-0.027l1.395-1.025l-1.637,0.989c-0.791-0.35,0.292-1.413,1.465-1.763
				c-3.505,0.279-4.732-1.007-9.051-0.115l0.112-0.647c-4.454,0.018-6.939-1.294-12.297-0.279l-1.904,1.052
				c0.21-0.682-2.284,0.539-0.666-0.531c1.228-0.602,1.649-0.871,3.16-1.031c-1.686-0.496-5.102-0.748-7.384-0.325
				c1.132-0.206,0.983-0.423,0.831-0.63c-1.582,0.898-3.564,0.917-4.161,0.486l0.902-0.549l-1.941,0.504
				c-0.131-0.242,1.73-1.176-0.526-0.764l-1.526,0.521c-0.355-0.557-0.59-1.447-2.837-1.141c-1.074,0.242-1.618,0.385-2.715,0.637
				c-0.395-0.115-0.377-0.691,1.097-0.801c-3.249,0.234-4.835,0.119-7.015,0.729c-0.432-2.005-5.771-2.635-10.225-3.047l-0.72,0.359
				c-1.941,0.189,0.863-0.691-0.508-0.531l-2.768,1.15c-2.589,0.189-0.588-0.898-1.231-1.186c0.944-0.465,0.117,0.406,1.343-0.196
				c0.203-0.181-3.109,0.071-1.685-0.622c-1.069,0.216-2.018,0.738-2.485,1.062l-0.148-0.461c-1.23,0.262-1.667,0.588-1.941,0.928
				c-0.89,0.287-1.668,0.727-2.081,1.023l-0.144-0.503l-0.813,0.234c-0.756-0.574,3.47-1.771,1.334-2.005
				c-1.582,0.297,1.475,0.333-0.432,0.847c-2.449,0.413-1.172-0.612-2.552-0.55c1.649-0.117,2.588-0.908,2.282-1.115
				c-1.884,0.136-0.957,0.72-2.638,0.557c0.773-0.421,0.135-0.889,2.005-0.97c1.676-0.909-2.136,0-1.254-0.728
				c-1.901,0.44-2.145,1.41-4.166,1.581l-0.131-0.063c1.361-0.532,0.036-1.042,2.926-1.672c-1.074,0.063-2.319,0.486-2.795,0.892
				c-1.897,0.207,0.606-1.332-2.773-0.28l1.254-0.602c-0.782,0.144-1.528,0.196-2.836,0.431c-0.769-0.144-0.239-1.179-2.584-0.333
				c0-0.136-1.807-0.405,0.512-0.846c2.054-0.151,0.041,0.604,2.81-0.025c-2.531,0.476-1.281-0.333-1.3-0.629l-1.002,0.27
				l-0.265-0.602l-1.511,0.403l0.984-0.503c-0.79-0.466-2.791,0.738-3.811,0.36v0.521l-2.067-0.018
				c1.042-0.466,2.085-1.042,2.822-1.385l-1.281-0.133l-0.499,0.647c-0.233,0.144-2.822,0.539-3.859,0.35
				c-0.166-0.279,0.732-1.042,2.417-1.053l-2.494,0.353l1.362-0.818c-1.214,0.154-3.663,0.27-5.677,0.486l-1.132,0.808l-0.306,0.008
				l-0.486-0.081l-0.229,0.144l-2,0.188l-0.643,0.496l-0.454,0.179l-0.563-0.592c4.486-0.639,2.756-1.528,5.812-2.203
				c-1.042-0.566-7.733,1.582-5.339,0.028l2.17-0.559c-0.018-0.259,1.807-0.718-0.035-0.71c-0.175,0.416-2.607,0.458-3.627,0.917
				l-0.525-0.018c-0.136,0.342-1.564,0.458-2.696,0.685c-0.212-0.164-0.212-0.343,0.827-0.559c1.604-0.413,0.791,0.269,1.977-0.242
				l-1.771-0.244l-0.094-0.124l0.849-0.37c0.554,0.262,2.373-0.091,3.411-0.378l-0.266-0.395l-0.845,0.307
				c-2.202-0.171,1.435-0.559-0.243-0.829c-1.096,0.136-1.626,0.199-2.731,0.343c-1.415,0.511,2.863,0.297-0.287,0.952
				c-1.039-0.196,0.13-0.637-1.493-0.665l0.06,0.217c-0.904,0.116-1.457,0.189-2.432,0.34l-0.1,0.038
				c-0.885,0.063-1.563,0.043-1.133-0.37c0.212-0.377,0.878-0.287,1.951-0.549c-1.195-0.438-0.396-0.816-1.021-1.095
				c-1.996,0.539-1.658-0.396-2.967,0.368c1.687-0.161,3.363,0.44,1.924,1.025c-3.073,0.468,1.546,0.207-0.719,0.909
				c-0.787-0.188-2.05,0-3.33,0.207c0.203-0.405,0.867-0.297,1.941-0.584c-1.205-0.468-0.378-0.881-1.02-1.179l-1.168,0.182
				l0.449-0.388c-1.17,0.045-2.625,0.423-2.302,0.612c-0.922-0.549-2.588-0.962-4.372-1.277c1.55-0.108,1.532-0.234,1.298-0.368
				l0.931-0.251l-1.132,0.161l0.018-0.252l-1.397,0.224l-0.904,0.028l-0.413,0.125l-2.207,0.116l0.037-1.491
				c-2.908-0.091-2.791-1.042-3.206-1.476c-1.433-0.035-3.607,0.496-4.398,0.333c-0.432-0.287,2.926-0.214,1.168-0.438l-0.427,0.106
				c0.355-0.207-2.517-0.448-0.059-1.042l-1.924,0.423l0.323-0.314c-0.894,0.136-1.833,0.161-2.193,0.368l-0.502-0.025l0.144-0.028
				l-0.18,0.028c-1.384-0.09-0.041-0.594-0.347-0.864l1.87-0.045l-0.854-1.42l-1.64,0.244l0.79-0.451
				c-1.294,0.242-2.3,0.189-1.959-0.035l-1.38,0.504l-1.622,0.277l0.791-0.504c-1.276,0.28-2.283,0.209-1.942-0.035
				c-1.258,0.549-1.847,0.791-3.015,1.287c1.114,0.106,1.752-0.549,3.446-0.629l1.025,0.171l-0.306,0.116l0.323,0.01l-1.15,0.521
				l0.503-0.458c-2.3,0.27-1.995,0.557-3.33,0.907l-0.337-0.171l-0.418,0.801l1.734-0.199c-1.586,0.29-1.676,0.647-0.638,0.954
				c2.562-0.055-0.305,0.917,0.976,1.277c1.604-0.486,2.751-0.944,3.128-1.332l0.857,0.199l-0.009,0.494
				c-1.123,0.297-2.342,0.657-2.557,1.063l1.406-0.227c-0.184,0.451-2.337,0.828-1.087,1.161c2.148,0.549,3.617,1.267,4.88,1.788
				l1.417-0.259c-2.396,0.917,1.002,1.231,0.714,1.904c3.025,0.353,2.192,1.853,5.522,1.574c1.929,1.5,3.916,2.833,7.762,4.019
				l1.659-0.917c-0.967,0.718,1.636-0.234,1.977,0.063c-2.53,0.314-1.316,0.987-2.282,1.599c3.545-0.072,3.811,1.26,3.582,2.383
				l1.738-0.574c-1.621,1.616,3.003,1.266,5.712,1.598c0.981-0.198,2.922-0.664,3.381-0.457c-1.47,1.293-0.679,1.41-0.773,2.588
				c1.28,0.322,3.94,0.657,6.463,0.504c1.416,2.696,8.979,3.012,12.488,5.166c1.057-0.375,1.583-0.563,2.625-0.924
				c1.28,3.173,12.818,2.48,15.996,4.331c1.28-0.772,1.904-1.15,3.072-1.878c2.792-0.322,3.058,0.943,0,2.248
				c2.863-0.37,2.643,1.473,6.711,0.07c2.413-0.098,0.588,1.15,1.658,1.584c4.629-0.324,6-0.101,8.337,0.483
				c0.575-0.476,1.738-1.087,2.678-1.087c0.396,0.656,5.982-0.1,0.396,2.168c6.243-0.955,7.42,1.923,14.507,0.357
				c-1.415,0.621-0.624,0.828-0.957,1.304c0.922,0.081,2.014,0.073,3.146,0.018c1.101,0.206,2.359,0.298,3.923,0.217
				c-1.061-0.108-1.604-0.161-2.66-0.27c1.924-0.081,3.775-0.153,4.998,0.07l-0.58,0.36l1.299-0.154l0.521,0.325l0.593-0.36
				c1.546,0.035,2.697,0.414,3.883,0.809c-1.097-0.115-1.641-0.168-2.732-0.277c0.939,0.333,2.145,0.467,3.505,0.521
				c0.738,0.225,1.512,0.424,2.428,0.529c1.154-0.413,2.354-0.431,3.061-1.131c0.926,2.361,10.332,0.448,12.507,2.264
				c2.284-2.68,4.566-1.141,6.903-1.582c0.697,0.172-0.13,0.847-1.097,1.295c3.735-0.01,5.568,0.063,8.543,1.158
				c2.284-0.133,4.58-1.42,6.396-0.889c-0.903,1.851,4.796,0.359,6.238,1.186c1.42-1.599,5.807-2.596,7.321-1.805
				c-1.317,0.818-2.001,1.238-3.39,2.112c9.105-0.874,17.779,2.075,30.211-0.433l-0.597,1.35c11.384-1.151,20.568,0.27,32.587-2.257
				c2.264,0.728,6.603,0.97,9.428,0.89c4.62-1.303,5.947-1.232,9.578-3.174c1.511-0.178,1.833,0.847,2.138,1.305
				c4.676,0.207,8.77,1.834,13.803-0.738l-0.297,1.151c4.58-1.519,10.857-3.497,15.128-2.561c1.483-1.134,5.789-1.97,4.601-3.05
				l0.415-0.195c0.997,0.178,0.483,1.689,2.281,0.395l-2.062,1.959c10.547-1.025,19.67-3.002,29.84-6.03
				c3.341,1.483,9.785-2.409,15.941-2.589c2.575-1.592,7.614-1.854,9.95-3.928l1.609-0.514l0.131,0.199
				c4.548-1.249,10.521-3.246,16.768-4.736c1.06-0.262,1.694-0.604,2.125-1l2.049-0.466c3.649-0.8,2.279-2.536,4.316-4.089
				l1.072,1.015l0.131-0.116v0.126c2.171-0.622,3.269-2.267,4.473-3.47l-0.32,2.336c3.883-1.017,4.352-5.096,8.09-4.449
				c3.093-0.881,4.691-2.211,3.578-3.525c0.574,0.29,2.385-0.116,1.798,1c1.811-1.063,2.825-1.861,3.181-2.986l-1.37,0.566
				c-0.378-1.204,0.773-2.092-0.193-3.001l0.305-1.742h0.938c2.364,0.413,0.479,2.767,2.742,2.508
				c0.365-1.871,0.544-2.815,0.811-4.676c-0.46,0.811-2.374,0.979-3.268,0.038l-0.847,1.662l-0.281-0.199l0.229-1.609
				c-0.453,0.874-2.377,1.053-3.271,0.028l-0.846,1.808l-1.434-1.07c-2.525,2.319-5.847,2.767-8.238,5.418
				c1.093,0.181,1.637,0.262,2.714,0.433l-2.034,1.896c-2.117-1.375-4.887-0.972-7.025,0.252c-1.689,0.969-3.2,1.77-5.033,2.525
				c-0.576-0.396-1.206-0.773-2.145-0.801c-0.695,0.353-1.509,0.818-2.362,1.304l-1.803-0.619c-1.815,1.004-4.346,2.732-7.156,3.865
				l-1.244,0.053l-1.447,0.773c-0.906,0.179-1.798,0.305-2.699,0.259c-1.889,1.007-3.813,2.213-5.605,3.462l-0.327-0.496
				l-1.138,0.514l-0.836-0.773c-2.148,0-4.162-0.053-5.978,1.231L598.031,192.296L598.031,192.296z M530.853,198.724l0.466-0.279
				L530.853,198.724L530.853,198.724z M261.986,176.36l0.438-0.171L261.986,176.36L261.986,176.36z M356.046,209.382l-0.863-0.188
				l-0.27,0.245L356.046,209.382L356.046,209.382z M657.712,170.626l-0.094,0.672L657.712,170.626L657.712,170.626z
				 M410.974,214.812l0.53-0.242l-1.357,0.01L410.974,214.812L410.974,214.812z M259.146,178.112l0.257-0.116L259.146,178.112
				L259.146,178.112z M282.359,181.69l-0.243,0.315L282.359,181.69L282.359,181.69z"/>
			<path fill-rule="evenodd" clip-rule="evenodd" fill="#72BF44" d="M489.074,114.063v53.353c0,13.043-9.087,20.756-20.768,20.756
				c-10.41,0-18.521-6.177-20.464-16.415h8.314c1.739,5.313,5.781,8.513,12.149,8.513c7.621,0,12.564-5.212,12.564-12.854v-7.423
				c-3.002,3.19-7.148,4.936-12.564,4.936c-11.671,0-20.746-8.216-20.746-20.756v-30.109h8.108v30.109
				c0,7.433,4.925,12.836,12.638,12.836c7.621,0,12.564-5.403,12.564-12.836v-30.109H489.074L489.074,114.063z M419.18,165.017
				c-12.09,0-20.862-6.471-22.206-16.989h8.301c1.062,5.799,6.769,9.367,13.9,9.367c7.712,0,12.454-3.774,12.454-8.115
				c0-3.462-1.362-6.076-13.515-7.723c-12.062-1.742-19.401-4.628-19.401-14.002c0-7.128,6.184-14.75,19.505-14.75
				c11.479-0.01,19.199,5.789,20.265,15.523h-8.311c-1.149-5.303-5.887-8-11.954-8c-6.57,0-11.303,3.082-11.303,6.947
				c0.005,3.578,2.809,4.837,12.543,6.383c11.02,1.714,20.084,3.845,20.084,15.135C439.542,158.734,431.059,165.017,419.18,165.017
				L419.18,165.017z M382.885,133.739c-2.036-8.108-8.781-13.512-16.026-13.512c-6.845,0-14.09,5.026-16.206,13.512H382.885
				L382.885,133.739z M390.79,148.308c-3.47,10.625-11.973,16.621-23.441,16.621c-14.274,0-25.478-11.389-25.478-25.978
				c0-14.38,11.203-26.146,24.987-26.146c12.84-0.01,25.194,10.606,25.1,28.277l-41.795-0.008
				c1.06,10.319,8.966,16.412,17.186,16.412c7.051,0,12.066-3.379,14.763-9.178H390.79L390.79,148.308z M337.242,163.768
				c-11.6,1.34-19.599-5.519-19.599-18.157l0.004-42.181h8.107v10.633h11.284v7.8h-11.284v23.747
				c0,8.783,5.299,11.003,11.487,10.625V163.768L337.242,163.768z M283.187,120.328c-9.259,0-16.8,8.206-16.8,18.623
				c0.005,10.427,7.537,18.444,16.8,18.444c9.168,0,16.808-8.206,16.808-18.444C299.994,128.632,292.26,120.328,283.187,120.328
				L283.187,120.328z M308.102,163.768h-7.932v-7.73c-3.87,5.401-10.117,8.979-17.169,8.979c-13.711,0-24.807-11.19-24.807-26.066
				c0-14.946,11.195-26.146,24.992-26.146c14.089-0.01,24.915,11.487,24.915,26.146V163.768L308.102,163.768z M254.899,163.768
				h-9.94l-16.97-25.293l-9.564,9.276v16.017h-8.211V91.943h8.211v44.401l22.673-22.281h12.063l-19.199,18.612L254.899,163.768
				L254.899,163.768z M196.997,163.768h-8.206v-49.704h8.206V163.768L196.997,163.768z M196.997,106.522h-8.206v-9.745h8.206
				V106.522L196.997,106.522z M160.994,91.943h8.107v53.37c0,8.793,5.411,11.011,11.596,10.717l0.004,7.737
				c-11.69,1.34-19.711-5.519-19.711-18.157L160.994,91.943L160.994,91.943z M144.001,133.739
				c-2.009-8.108-8.789-13.512-16.012-13.512c-6.867,0-14.094,5.026-16.22,13.512H144.001L144.001,133.739z M151.915,148.308
				c-3.465,10.625-11.953,16.621-23.44,16.621c-14.296,0-25.495-11.389-25.495-25.978c0-14.38,11.199-26.146,25.01-26.146
				c12.84-0.01,25.189,10.606,25.095,28.277l-41.79-0.008c1.056,10.319,8.979,16.412,17.181,16.412
				c7.052,0,12.058-3.379,14.754-9.178H151.915L151.915,148.308z M49.813,104.588v51.26h16.61c12.332,0,21.978-7.622,21.978-25.681
				c0-18.343-9.739-25.58-21.981-25.58H49.813L49.813,104.588z M41.612,96.777h24.811c18.508,0,30.39,12.648,30.39,33.391
				c0,20.756-11.882,33.6-30.394,33.6H41.612V96.777L41.612,96.777z"/>
			<path fill-rule="evenodd" clip-rule="evenodd" fill="#72BF44" d="M875.154,163.768h-8.221v-32.142
				c0-6.463-4.223-11.298-10.795-11.298c-6.562,0-10.805,4.834-10.805,11.298v32.142h-8.219v-32.142
				c0-6.463-4.229-11.298-10.81-11.298c-6.562,0-10.802,4.834-10.802,11.298v32.142h-8.193v-31.854
				c0-10.812,7.806-19.109,18.995-19.109c6.769-0.01,11.974,3.19,14.887,8.196c2.974-5.005,8.178-8.196,14.946-8.196
				c11.285-0.01,19.016,8.297,19.016,19.109V163.768L875.154,163.768z M787.998,114.063h8.226v30.109
				c0,12.54-9.087,20.756-20.768,20.756c-11.673,0-20.745-8.216-20.745-20.756v-30.109h8.09v30.109
				c0,7.443,4.938,12.836,12.655,12.836c7.622,0,12.542-5.393,12.542-12.836V114.063L787.998,114.063z M747.071,113.091v7.622
				c-9.546-0.864-15.624,3.767-15.624,13.32l0.005,29.734h-8.107v-29.536C723.345,119.167,734.056,111.538,747.071,113.091
				L747.071,113.091z M715.723,163.768c-11.598,1.34-19.598-5.509-19.598-18.147l0.003-42.19h8.107v10.633h11.28v7.811h-11.28
				v23.747c0,8.773,5.301,11.001,11.487,10.616V163.768L715.723,163.768z M652.315,163.768h-8.107v-30.21
				c0-12.557,8.863-20.753,20.745-20.753c11.864-0.01,20.654,8.196,20.654,20.753v30.21h-8.13v-30.497
				c0-7.433-4.907-12.854-12.524-12.854c-7.735,0-12.638,5.421-12.638,12.854V163.768L652.315,163.768z M626.733,133.739
				c-2.029-8.108-8.785-13.512-16.029-13.512c-6.859,0-14.086,5.026-16.198,13.512H626.733L626.733,133.739z M634.64,148.317
				c-3.482,10.624-11.973,16.611-23.46,16.611c-14.274,0-25.464-11.389-25.464-25.968c0-14.39,11.189-26.157,24.988-26.157
				c12.831-0.01,25.199,10.606,25.108,28.277l-41.795-0.008c1.06,10.336,8.969,16.402,17.162,16.402
				c7.053,0,12.086-3.369,14.785-9.158H634.64L634.64,148.317z M550.189,164.929c-18.335,0-33.204-15.632-33.204-34.939
				c0-19.217,14.869-34.838,33.199-34.838c15.254,0,26.444,9.052,30.687,22.292l-8.566-0.01c-3.688-8.385-11.202-14.46-22.12-14.46
				c-13.806,0-25.086,12.25-25.086,27.018c0,14.76,11.28,27.02,25.086,27.02c9.843,0,18.049-5.6,22.12-14.48h8.571
				C576.347,156.146,564.57,164.929,550.189,164.929L550.189,164.929z"/>
			<polygon fill-rule="evenodd" clip-rule="evenodd" fill="#72BF44" points="614.689,57.644 302.633,82.793 298.447,30.795 
				610.502,5.618 614.689,57.644 			"/>
			<polygon fill-rule="evenodd" clip-rule="evenodd" fill="#FFFFFF" points="377.668,37.024 377.923,37.077 377.762,37.095 
				377.668,37.024 			"/>
			<polygon fill-rule="evenodd" clip-rule="evenodd" fill="#FFFFFF" points="511.429,37.833 511.688,37.885 511.63,38.218 
				511.429,37.833 			"/>
			<polygon fill-rule="evenodd" clip-rule="evenodd" fill="#FFFFFF" points="496.13,39.469 495.734,39.675 496.13,39.469 			"/>
			<polygon fill-rule="evenodd" clip-rule="evenodd" fill="#FFFFFF" points="324.649,53.716 324.815,53.695 324.833,53.859 
				324.672,53.877 324.649,53.716 			"/>
			<polygon fill-rule="evenodd" clip-rule="evenodd" fill="#FFFFFF" points="567.557,35.503 567.322,35.702 567.557,35.503 			"/>
			<polygon fill-rule="evenodd" clip-rule="evenodd" fill="#FFFFFF" points="594.431,33.831 594.544,34.065 594.282,34.083 
				594.431,33.831 			"/>
			<polygon fill-rule="evenodd" clip-rule="evenodd" fill="#FFFFFF" points="594.677,33.904 594.957,34.209 594.677,33.904 			"/>
			<polygon fill-rule="evenodd" clip-rule="evenodd" fill="#FFFFFF" points="438.285,46.821 438.445,46.812 438.465,46.982 
				438.303,46.982 438.285,46.821 			"/>
			<polygon fill-rule="evenodd" clip-rule="evenodd" fill="#FFFFFF" points="510.479,43.377 510.636,43.359 510.655,43.523 
				510.497,43.53 510.479,43.377 			"/>
			<polygon fill-rule="evenodd" clip-rule="evenodd" fill="#FFFFFF" points="453.313,48.07 453.56,48.053 453.349,48.393 
				453.313,48.07 			"/>
			<polygon fill-rule="evenodd" clip-rule="evenodd" fill="#FFFFFF" points="477.479,46.856 477.114,47.539 477.479,46.856 			"/>
			<polygon fill-rule="evenodd" clip-rule="evenodd" fill="#FFFFFF" points="423.987,51.729 424.173,51.89 423.987,51.729 			"/>
			<polygon fill-rule="evenodd" clip-rule="evenodd" fill="#FFFFFF" points="375.707,56.276 375.964,56.35 375.707,56.276 			"/>
			<polygon fill-rule="evenodd" clip-rule="evenodd" fill="#FFFFFF" points="449.597,50.487 449.789,50.722 449.597,50.487 			"/>
			<polygon fill-rule="evenodd" clip-rule="evenodd" fill="#FFFFFF" points="391.149,56.35 391.168,56.581 391.149,56.35 			"/>
			<polygon fill-rule="evenodd" clip-rule="evenodd" fill="#FFFFFF" points="416.838,55.09 417.021,55.234 416.928,55.332 
				416.838,55.09 			"/>
			<polygon fill-rule="evenodd" clip-rule="evenodd" fill="#FFFFFF" points="408.636,55.826 408.749,56.15 408.636,55.826 			"/>
			<polygon fill-rule="evenodd" clip-rule="evenodd" fill="#FFFFFF" points="409.014,56.294 408.896,56.707 409.014,56.294 			"/>
			<polygon fill-rule="evenodd" clip-rule="evenodd" fill="#FFFFFF" points="427.529,56.259 427.477,56.518 427.463,56.35 
				427.529,56.259 			"/>
			<polygon fill-rule="evenodd" clip-rule="evenodd" fill="#FFFFFF" points="564.026,45.507 564.14,45.832 564.026,45.507 			"/>
			<polygon fill-rule="evenodd" clip-rule="evenodd" fill="#FFFFFF" points="410.65,58.442 410.425,58.613 410.65,58.442 			"/>
			<polygon fill-rule="evenodd" clip-rule="evenodd" fill="#FFFFFF" points="430.343,57.508 430.515,57.731 430.343,57.679 
				430.343,57.508 			"/>
			<path fill-rule="evenodd" clip-rule="evenodd" fill="#FFFFFF" d="M522.438,49.75l0.153,0.073l0.075-0.161l-0.174-0.063
				L522.438,49.75L522.438,49.75z M525.74,47.451l-0.018-0.315L525.215,47L525.74,47.451L525.74,47.451z M526.479,46.406
				l0.166-0.018l-0.26-0.053L526.479,46.406L526.479,46.406z M523.535,46.406L523.535,46.406L523.535,46.406z M525.252,46.507
				l0.242-0.343L525.252,46.507L525.252,46.507z M532.716,45.751l-0.106-0.325L532.716,45.751L532.716,45.751z M524.61,46.489
				l-0.194-0.398L524.61,46.489L524.61,46.489z M525.197,45.787L525.197,45.787L525.197,45.787z M525.099,45.454l0.153-0.01v-0.161
				l-0.153,0.018V45.454L525.099,45.454z M525.987,45.321l-0.191-0.244L525.987,45.321L525.987,45.321z M522.888,45.401
				l-0.652-0.028L522.888,45.401L522.888,45.401z M522.591,44.933L522.591,44.933L522.591,44.933z M527.418,44.699l0.053-0.242
				l-0.242,0.108h-0.085L527.418,44.699L527.418,44.699z M522.344,44.628l-0.246,0.088L522.344,44.628L522.344,44.628z
				 M527.699,44.276l0.169-0.008l-0.021-0.161h-0.166L527.699,44.276L527.699,44.276z M524.102,44.241l-0.32,0.027L524.102,44.241
				L524.102,44.241z M522.814,45.321l0.537-0.36l0.131-0.433l-0.595-0.269L522.814,45.321L522.814,45.321z M528.326,43.971
				l-0.188-0.305L528.326,43.971L528.326,43.971z M527.179,43.828l-0.418,0.035L527.179,43.828L527.179,43.828z M527.058,43.432
				l0.247,0.063l-0.179-0.234L527.058,43.432L527.058,43.432z M528.138,43.586l0.116-0.577l-0.247,0.098L528.138,43.586
				L528.138,43.586z M524.842,43.279l-1.024,0.496C524.137,44.611,524.628,43.485,524.842,43.279L524.842,43.279z M524.484,42.974
				l-0.105-0.307L524.484,42.974L524.484,42.974z M525.818,41.239l0.169-0.01l-0.018-0.151l-0.174,0.007L525.818,41.239
				L525.818,41.239z M522.326,39.315l0.053-0.242l-0.236,0.106L522.326,39.315L522.326,39.315z M522.722,38.301l0.174,0.07
				l0.073-0.171l-0.177-0.053L522.722,38.301L522.722,38.301z M523.422,37.77l-0.506-0.126L523.422,37.77L523.422,37.77z
				 M524.046,37.465l-0.191-0.396L524.046,37.465L524.046,37.465z M523.459,37.276l0.059-0.416L523.459,37.276L523.459,37.276z
				 M524.003,35.909l-0.4-0.035L524.003,35.909L524.003,35.909z M523.266,35.818l0.3-0.196L523.266,35.818L523.266,35.818z
				 M529.157,34.03l-0.176-0.315L529.157,34.03L529.157,34.03z M525.172,34.202c0.025,1.266-0.834,2.12-0.939,3.495l-0.396,0.27
				l0.184,0.234l-0.846,1.538l0.41,0.126l1.209-1.312l0.282-0.514l-0.108-0.242l0.474-0.36l-0.041-0.413l0.305-0.171
				c0.053-1.196,0.698-2.022,0.239-3.291L525.172,34.202L525.172,34.202z M525.612,33.751l0.146-0.333L525.612,33.751
				L525.612,33.751z M526.743,30.48l-0.018-0.242L526.743,30.48L526.743,30.48z M519.858,47.36l-0.319-0.063l0.204-0.594
				l-0.262-0.126c0.436-0.647,0.148-1.339,0.131-2.47v-0.899l0.211-1.231l-0.211,0.168l0.211-0.259l-0.141-0.801l0.113,0.234
				l0.018-0.647l0.571-1.035L520.174,39l0.246,0.154l0.212-1.574l0.241-1.078l0.308-1.259l-0.113-0.315l0.378-1.339l0.898-1.133
				l0.196-0.431l0.126-0.486l0.056-0.504l0.166,0.081l-0.018-0.242l0.229-0.098l0.938-1.465l1.536-0.126l0.297,0.385l1.111,0.801
				l0.664,0.189l0.36,0.458l-0.284,0.27l0.926,0.584l-0.377,0.269l0.35,0.234l0.343,0.279v0.907l0.158-0.008l0.053-0.413
				l0.698-1.294l0.471-1.259l-0.166-0.136l0.148-1.239l0.562-1.196l-0.035-0.406l0.15-0.098v-0.818l0.222-0.342l-0.091-0.315
				l0.212-0.259l0.093-0.909l0.204-0.655l-0.113-0.325l0.343-1.672l0.229-0.169l0.298-0.514l0.168-0.836
				c0.909-0.378,0.675,0.388,1.493,0.368l0.378,0.468l-0.136,0.503l0.136-0.35l0.113,0.395l0.317-0.181l-0.116,0.503l0.665,0.101
				l0.126,0.574c0.554,1.053-0.367,1.871-0.257,3.039l-0.231,0.099l-0.169,2.049l-0.224,1.977l0.107,0.396l-0.219,0.514l0.018,1.221
				l-0.073,1.151l-0.229,0.098l0.126,0.566l-0.166-0.081l-0.185,0.766l0.298,0.539l-0.28,1.904l-0.229,0.02l-0.202,1.563
				l-0.027,1.627l0.104,0.314l-0.229,1.095l-0.342-0.053l0.229,0.791l-0.488,1.098l0.26,0.07l-0.358,0.503
				c0.229,0.63,0.081,0.889,0.134,1.798l-0.44,0.441l0.247,0.305l-0.378,0.181l0.061-0.315l-0.148,0.333l-0.572-0.108l-0.035-0.493
				l-0.383,0.35l-1.407-1.017l0.262-0.025l-0.509-0.207l0.212-0.433l0.078-1.07l-0.272-1.357l-0.287,0.595l-0.448,0.451
				l-0.246-0.154l-0.416,1.025l-0.79,0.305l0.08,0.234L527,45.643l0.795-0.305l-0.886,1.284l-0.34-0.133l0.174,0.144l-0.965,0.251
				l0.683,0.179l-0.683,0.71l-0.662-0.099l0.118,0.63l0.129-0.496l0.433,0.126l-1.15,0.989l-0.126,0.413l-0.177-0.133l-1.15,0.826
				l-0.831-0.018l-0.108-0.396l-0.755-0.118l0.073-0.242l-0.486,0.035l-0.796-0.584l-0.188-0.557l-0.418,0.028l-0.179-0.217
				L519.858,47.36L519.858,47.36z"/>
			<path fill-rule="evenodd" clip-rule="evenodd" fill="#FFFFFF" d="M337.322,61.093l0.396-0.287L337.322,61.093L337.322,61.093z
				 M337.979,60.95l0.116-0.322L337.979,60.95L337.979,60.95z M337.943,60.464l0.054-0.151L337.943,60.464L337.943,60.464z
				 M337.979,59.899l-0.414,0.116l0.584,0.108l0.226-0.262l-0.414-0.133l0.301-0.171l-0.413-0.144l-0.486,0.126L337.979,59.899
				L337.979,59.899z M337.736,59.099l0.166-0.018l0.077-0.164l-0.262-0.063L337.736,59.099L337.736,59.099z M337.382,58.721
				l0.318-0.108L337.382,58.721L337.382,58.721z M354.14,38.767l0.306-0.35L354.14,38.767L354.14,38.767z M353.615,37.409
				l-0.343-0.126L353.615,37.409L353.615,37.409z M352.806,37.472l-0.018-0.242L352.806,37.472L352.806,37.472z M353.255,36.88
				l0.252,0.063L353.255,36.88L353.255,36.88z M353.395,46.731l-0.266,1.815l-0.229,1.087l0.117,0.549l-0.1,0.836l-0.306,0.116
				l0.177,0.305l-0.572-0.043l0.378,0.466l-0.431,0.854l-0.58,1.924l-0.306,1.241l-0.58,2.004l-0.248,0.035l-0.155,0.899
				l-0.469,0.199l-0.278,0.763l-0.063,0.244l0.1,0.232l-0.23,0.189l-0.809,1.125l-0.175,0.672c-1.188,0.108-1.569-0.466-2.58-0.441
				l-0.772-0.431l-0.446-0.458l-0.427-1.35l-0.507-1.186l-0.45-1.519l-0.071-0.889l-0.157-0.073l-0.148-1.699l-0.455-1.589
				c-0.871-1.025-0.413-2.571-1.114-3.75l-0.372,0.36l0.306-0.108l0.035,0.395l-0.247-0.136l-0.341,0.755l-0.566,0.227l0.656,0.018
				l-0.055,0.413l-0.472,0.116l0.437,0.297l0.035,0.476l-0.184-0.133l0.13,0.476l-0.49-0.045l0.396,0.854l-0.489,1.105l-0.032,0.738
				l-0.646,0.053l0.661,0.028l-0.194,0.503l-0.355-0.136l-0.058,0.181l0.27,0.385l-0.647-0.025l0.27,0.385l0.32-0.126l-0.733,0.154
				l0.45,0.458l-0.216,0.251l0.139-0.09l0.06,0.647l-0.49-0.035l0.04,0.405l0.273,0.305l-0.341-0.144l-0.351,0.854l0.018,0.234
				l0.418,0.045l0.035,0.493l-0.664,0.7l0.246,0.227l-0.17,0.836l-0.323-0.055l0.135,0.8c-0.715,0.287-0.323,1.123-1.285,1.088
				l-0.112-0.325c-1.276,0.181-2.589-1.214-1.995-2.292l0.283,0.476c0.224-0.844,0.997-1.554,0.772-2.508l0.471-0.448
				c-0.111-1.339,0.681-2.536,0.733-3.983l0.363-1.652l0.221-0.353l-0.075-0.808l0.229-1.312l0.112-0.594l0.283-0.503
				c0.206-1.005,0.035-2.173,0.579-2.984l0.104-0.584l0.112-1.878c0.661-1.347,0.354-3.271,0.845-4.646l0.467-0.199l0.104,0.315
				l0.489-0.126l0.599,0.36l-0.13,0.423l1.24,0.225c0.175,0.906,0.754,1.626,0.535,2.57l0.453,1.599l0.257,0.136
				c-0.257,0.898,0.57,1.599,0.192,2.525l0.341,0.126l-0.053,1.312l-0.019,0.826l0.221,0.468l0.157,0.136l0.215,1.546l0.252,0.144
				l0.203,1.445l-0.238,0.188l0.449,0.521l-0.166,0.926l0.396-0.035l-0.135,1.158l0.336,0.207l0.212,0.559l0.185,1.284l-0.166,0.018
				l0.13,0.479l0.234-0.02c0.31-0.584,0.633-1.176,0.65-2.012c0.606-0.692,0.679-1.843,1.093-2.689l-0.108-0.322l1.025-2.616
				c0-1.06,0.484-1.735,0.503-2.805l0.229-0.105l0.484-2.087l-0.035-0.483l0.278-0.504l0.1-0.917l0.201-0.342l-0.031-0.486
				l0.463-1.501l-0.036-0.413l0.518-1.592l0.449-1.43l0.378-1.42l0.957-0.224l0.27,0.224l-0.378,0.272l0.202,0.557l0.57-0.056
				l0.037,0.496l-0.396,0.035l0.396,0.035l0.449,0.458l-0.396,0.207l0.418,0.045l0.072,0.881l-0.278,0.675l0.147-0.171l0.094,0.972
				l-0.31,0.35l0.144,0.738l-0.323,0.098l-0.301,2.229l-0.167,0.989l0.132,0.637l-0.263-0.063l0.095,0.99l-0.323,0.028
				L353.395,46.731L353.395,46.731z"/>
			<path fill-rule="evenodd" clip-rule="evenodd" fill="#FFFFFF" d="M580.773,24.25l-0.351-0.154L580.773,24.25L580.773,24.25z
				 M582.943,19.819L582.943,19.819L582.943,19.819z M583.495,19.773l0.37,0.227L583.495,19.773L583.495,19.773z M583.644,19.434
				l0.229-0.171L583.644,19.434L583.644,19.434z M583.339,19.63l0.058-0.322L583.339,19.63L583.339,19.63z M582.206,17.842
				l0.269,0.315l0.56-0.308l-0.234,0.272l0.179,0.143l0.139-0.332l0.148,0.889l0.303-0.35l-0.189-0.314l0.378,0.539l0.134-0.251
				l0.297,0.539h-0.901l0.901,0.081l-0.035,0.504l-0.813,1.115l0.131,0.566l-0.244,0.028l-0.151,0.161l0.322-0.018l0.099,0.395
				l-0.335,0.683l-0.182-0.144l-0.319,0.917l0.229-0.098l0.021,0.333l-0.491,0.035l-0.091,0.818l-1.307-0.136l-0.396,0.189
				l-0.828-0.088l-1.042-0.811l-0.146-0.655l0.26-0.09l-0.113-0.322l1.08-1.728l0.305-1.33l0.413,0.134l0.108-0.746l0.473-0.116
				l0.116-0.486l0.453-0.448l0.337,0.116l-0.115,0.503L582.206,17.842L582.206,17.842z"/>
			<path fill-rule="evenodd" clip-rule="evenodd" fill="#FFFFFF" d="M411.068,58.487l0.808-0.053L411.068,58.487L411.068,58.487z
				 M410.047,57.84l0.32,0.063l-0.02-0.251L410.047,57.84L410.047,57.84z M410.276,56.843l0.148-0.181l-0.323,0.028L410.276,56.843
				L410.276,56.843z M399.298,55.279l0.282-0.514L399.298,55.279L399.298,55.279z M408.95,53.446L408.95,53.446L408.95,53.446z
				 M402.583,54.443l0.202-0.584l-0.323,0.025L402.583,54.443L402.583,54.443z M409.162,53.104l-0.323-0.055L409.162,53.104
				L409.162,53.104z M399.958,53.426l-0.055,0.252l0.283-0.44l-0.396,0.126L399.958,53.426L399.958,53.426z M400.089,52.933
				l-0.261-0.224L400.089,52.933L400.089,52.933z M406.299,52.016L406.299,52.016L406.299,52.016z M400.106,52.187L400.106,52.187
				L400.106,52.187z M399.167,51.61L399.167,51.61L399.167,51.61z M399.765,50.911l0.018,0.081L399.765,50.911L399.765,50.911z
				 M402.425,50.533l0.158-0.01v-0.151l-0.158,0.008V50.533L402.425,50.533z M400.206,50.316l-0.02-0.171L400.206,50.316
				L400.206,50.316z M402.546,50.11l0.199,0.396l0.323-0.018l0.147-0.269l-0.224-0.62L402.546,50.11L402.546,50.11z M400.16,49.813
				l0.409-0.025l-0.18-0.144v-0.083L400.16,49.813L400.16,49.813z M401.32,47.927L401.32,47.927L401.32,47.927z M403.104,47.71
				L403.104,47.71L403.104,47.71z M403.639,49.455l-0.283-0.549l0.449-0.612l-0.131-0.396l0.189-0.826l0.319-0.101l-0.131-0.396
				l-0.117,0.244l0.171-0.828l-0.412,0.118l-0.072,1.06l-0.248,0.018l-0.058,0.252l-0.212,1.33l0.112,0.325L403.639,49.455
				L403.639,49.455z M403.998,45.832l-0.026-0.476L403.998,45.832L403.998,45.832z M404.129,45.346l-0.059,0.406l0.377-0.531
				L404.129,45.346L404.129,45.346z M401.863,45.527l-0.175-0.073L401.863,45.527L401.863,45.527z M400.713,45.374l-0.252,0.018
				L400.713,45.374L400.713,45.374z M404.956,44.538v-0.161V44.538L404.956,44.538z M400.521,45.069l0.152-0.02l-0.018-0.169
				l-0.153,0.018L400.521,45.069L400.521,45.069z M409.05,55.8l0.274,0.224l0.126-0.503l-0.418,0.118l-0.266-0.307l0.184-0.826
				l-0.201-1.458l-0.271-0.312l-0.521,0.539l0.108,0.315l-0.432,0.69l-0.544,0.612l-0.139,0.027l-0.898,1.133l-0.625,0.277
				l-0.346,0.766l-1.147,0.917l-0.261-0.073l-1.526,0.378l-0.037-0.413l-0.139,0.262l-1.012-0.333v-0.154l-0.323,0.028l-0.431-0.297
				l-0.135-0.728l-0.189-0.216l-0.584-0.136l0.116-0.493l0.746-0.053l-0.993-0.164l-0.175-0.231l0.139-0.262l-0.229-0.72l0.89-0.07
				l-0.984-0.153l0.343-0.683l-0.266-0.315l0.054-0.413l0.477-0.108l-0.116-0.574l-0.343-0.055l0.212-1.312l0.203,0.385l0.21-0.511
				l-0.13-1.455l0.203,0.314l0.129-0.335l0.342,0.136l0.229-0.179l-0.825-0.181l0.579-0.773l-0.49-0.053l0.342-0.755l0.323-1.098
				l0.203-1.634l0.412-0.045l0.271-0.521l-0.271-0.305l0.626-1.34l0.508-0.773l0.818-0.881l0.201,0.217l0.288-0.433l1.527-0.116
				l0.239-0.27l0.754,0.35l1.471-0.036l-0.145,0.26l0.09,0.153l0.287,0.539l0.338,0.234l-0.063,0.979l0.324,0.133l0.661-2.102
				l0.111-0.647l0.175-0.763l0.238-2.05l0.303-1.259l-0.257-0.053l0.184-1l0.832-1.689c0.566-0.44,1.847-0.224,2.769-0.315
				l1.002,0.486l-0.131,0.431l-0.081,0.811l-0.35,2.004l-0.117,0.486l-0.226,0.27c0.037,1.508-0.732,3.155-0.533,4.449l-0.181-0.154
				l-0.14,0.098l0.176,0.154c0.166,1.088-0.396,1.924-0.112,2.848l-0.212,1.42l0.095,2.193l-0.201,0.514l0.147,0.801l-0.076,1.068
				l-0.323,0.027l0.378,0.703l-0.149,0.252l-0.036,0.413l0.207,1.627l-0.13,0.413l-0.06,0.325l0.095,1.05l0.266,1.206l-0.396,1.337
				l-0.08,0.909l-0.72,0.063l-0.432-0.217l-0.112-0.322l0.72-0.297l-0.108-0.154l-1.532,0.119l-0.055-0.476l-0.93-0.514l0.526-0.612
				l-0.221-0.629l-0.055,0.251L409.05,55.8L409.05,55.8z"/>
			<path fill-rule="evenodd" clip-rule="evenodd" fill="#FFFFFF" d="M484.718,32.638l0.167-0.018v-0.164l-0.167,0.018V32.638
				L484.718,32.638z M484.437,32.016L484.437,32.016L484.437,32.016z M482.867,28.798l0.396,0.773l0.305-0.269l-0.075,0.342
				l0.602,0.189l-0.635,0.287l0.582,0.125l0.035,0.315l0.493,0.305l-0.282,0.342l0.431,0.297l-0.148,0.242l0.675,2.158
				c-0.886-0.171-0.957-0.035-2.055-0.073l-0.682-0.357l-0.429-2.175l0.227-0.262l-0.018-1.221l0.277-1.645L482.473,28l0.11,0.395
				l0.68,0.368l-0.056,0.242L482.867,28.798L482.867,28.798z"/>
			<path fill-rule="evenodd" clip-rule="evenodd" fill="#FFFFFF" d="M392.188,69.309l-0.318,0.036L392.188,69.309L392.188,69.309z
				 M391.096,67.854l-0.193-0.307L391.096,67.854L391.096,67.854z M392.533,67.574L392.533,67.574L392.533,67.574z M393.037,66.721
				L393.037,66.721L393.037,66.721z M393.378,65.875l0.167-0.018l-0.019-0.151l-0.166,0.018L393.378,65.875L393.378,65.875z
				 M394.076,64.43l-0.177-0.217L394.076,64.43L394.076,64.43z M392.605,64.465l-0.252-0.224L392.605,64.465L392.605,64.465z
				 M392.281,64.329l-0.412-0.053L392.281,64.329L392.281,64.329z M393.486,64.16l0.247,0.063l-0.099-0.252L393.486,64.16
				L393.486,64.16z M392.301,63.674l-0.037-0.405L392.301,63.674L392.301,63.674z M393.001,61.174l0.239-0.187L393.001,61.174
				L393.001,61.174z M391.923,59.063l0.247-0.027l-0.018-0.234l-0.154,0.01L391.923,59.063L391.923,59.063z M376.718,59.628
				l-0.489,0.038L376.718,59.628L376.718,59.628z M375.307,58.361l0.383-0.207L375.307,58.361L375.307,58.361z M391.279,55.916
				v0.161l0.063-0.241L391.279,55.916L391.279,55.916z M394.786,55.881l0.281-0.342l-0.237,0.018l-0.086-0.081L394.786,55.881
				L394.786,55.881z M376.737,56.77l-0.432-0.134L376.737,56.77L376.737,56.77z M384.605,55.234L384.588,55L384.605,55.234
				L384.605,55.234z M377.177,55.423L377.177,55.423L377.177,55.423z M384.552,54.667l-0.095-0.144l0.095,0.07V54.667
				L384.552,54.667z M376.288,55.342l0.134-0.27L376.288,55.342L376.288,55.342z M376.646,54.821l0.171-0.018L376.8,54.65
				l-0.153,0.007V54.821L376.646,54.821z M376.156,54.695l0.108,0.322l0.121-0.423L376.156,54.695L376.156,54.695z M385.092,53.237
				l0.157-0.018l-0.019-0.151l-0.157,0.018L385.092,53.237L385.092,53.237z M395.284,52.006l-0.197-0.385L395.284,52.006
				L395.284,52.006z M386.853,51.792l0.238-0.189L386.853,51.792L386.853,51.792z M375.307,51.333l-0.018-0.234L375.307,51.333
				L375.307,51.333z M383.774,49.015l0.307-0.182L383.774,49.015L383.774,49.015z M374.453,49.687l0.14-0.259L374.453,49.687
				L374.453,49.687z M374.382,48.959l0.153-0.018l-0.248-0.207L374.382,48.959L374.382,48.959z M377.195,45.391l-0.414,0.036
				L377.195,45.391L377.195,45.391z M378.135,43.926L378.135,43.926L378.135,43.926z M377.308,42.596l-0.413,0.126L377.308,42.596
				L377.308,42.596z M379.933,38.812L379.933,38.812L379.933,38.812z M380.225,38.28l-0.314,0.272l0.418,0.053
				c-0.247,1.41-0.252,2.578-0.095,4.008l-0.323-0.063c0.436,0.972,0.058,2.914,0.237,3.911l-0.215,0.423v0.979l0.089,1.133
				l-0.166,0.007l0.112,0.315l-0.157,0.098l0.157,0.073l-0.175,0.746v1.06l0.288,0.388l0.484-0.108l-0.292-0.395l0.953-0.325
				l0.287-0.591l0.221-0.189l0.306-0.27l0.266,0.234l0.219-0.353l-0.094-0.232l0.162,0.161l0.292-0.612l0.306-0.108l-0.059,0.181
				l0.558-0.056l-0.444-0.612l0.547-0.207l0.112-0.752l0.343,0.224l0.21-1.241l0.563-0.287l0.396-0.116l2.432,0.7l0.08,0.242
				l0.297,1.458l-0.772,2.498l0.246,2.103l-0.229,0.262l0.117,1.456c1.097-0.27,1.641-1.662,2.574-2.327l-0.089-0.234l0.14-0.332
				l0.147-0.028l-0.019-0.242l0.238-0.171l0.701-1.609c0.018-0.909,0.495-1.43,0.449-2.41l0.378-0.36l1.555,0.199l0.238-0.252
				l0.437,0.297l-0.076,0.242l0.148-0.252l0.659,0.098l0.113,0.252c0.481,0.874,0.441,2.06,0.176,3.235l-0.247,0.028l0.341,1.186
				l-0.4,0.207l-0.054,0.335l0.378,0.539l-0.359,0.683l0.166,2.014l0.211,0.476l-0.719,0.385l0.666,0.118
				c-0.252,0.818-0.307,1.788-0.343,2.803l-0.201-0.313l-0.301,0.106l0.467,0.773c-0.449,0.171,0.148,1.098-0.738,1.042l0.343,0.227
				l-0.095,1.788l-0.248,0.018l0.131,1.466l-0.076,0.179l-0.396,0.101l0.131,0.557l-0.261-0.136l0.059,1.717l-0.324,0.028
				l0.247,0.136l-0.117,0.494l-0.35-0.207l-0.643,2.166l-0.535,0.216l0.396-0.038l-0.378,0.29l0.104,0.396l-0.553,0.277
				l-1.209,0.101l0.777-0.476l0.188,0.312l0.148-0.25l-0.755-0.108l-0.053,0.259l-0.738,0.126l-0.108-0.396
				c-0.867,0.262-1.515-0.448-2.174-0.718l0.467-1.188l0.192,0.315l0.208-0.503l0.116,0.479l0.903-0.962l-0.251-0.073l0.306-0.35
				l0.453-1.5l0.458-0.199l-0.553,0.045l0.414-0.926l0.018-0.826l0.163-1.889l0.237-0.188l0.342-1.823l0.018-2.931l0.117-0.262
				l-0.135-0.962l-0.4,0.271l-0.66,0.71l-0.692,0.71l-0.1-0.244l-0.146,0.342l-0.32-0.136l-0.224,0.353l-1.309,0.025l-0.845-0.35
				l-0.059-0.647l-0.229,0.028l-0.055,0.314l-0.376-0.531l-0.302,0.262c-0.188-0.524-0.921-0.406-0.831-1.242l-0.247-0.136
				l-0.314-1.697l0.544-0.37l-0.49,0.126l0.683-0.629l-0.53,0.297l0.072-0.179l-0.243-0.72l-0.769,0.396l-0.076,0.252l-1.739,0.559
				l-0.211,0.333l-1.641-0.018l-0.484,2.075l-0.36,1.563l-0.266,0.846l0.071,0.818l-0.332,0.189l0.04,0.322
				c-0.759,0.881-2.569-0.252-3.23-0.647l0.468-1.249l0.266-0.755l-0.181-0.154l0.31-1.41l0.266-1.662l-0.018-1.294l-0.283-0.469
				l-0.414-0.045l0.212-0.27l-0.193-0.388l-0.22,0.251l-0.271-0.377l-0.053-0.647l-0.509-0.125l-0.413-1.033l0.378-0.514
				l-0.324,0.108l-0.193-0.566l0.383-0.179l-0.418-0.053l0.269-0.756l-0.346-0.224l0.022-0.738l0.342,0.063l-0.019-1.231
				l0.791-0.136l0.504,0.119l0.624,0.753l0.342-1.005l0.153-1.053l-0.252-0.241l0.27-0.657l-0.243,0.251l0.449-0.521l-0.098-0.396
				l-0.261-0.153l0.021-0.655l0.257,0.07l-0.278-0.466l0.241-0.118l-0.296-0.468l0.315-0.34l-0.315-0.63l0.315-0.262l-0.186-0.242
				l0.283-0.431l-0.264-0.388l0.305-1.239l1.294-0.189l0.095,0.071l1.304,0.144L380.225,38.28L380.225,38.28z"/>
			<path fill-rule="evenodd" clip-rule="evenodd" fill="#FFFFFF" d="M554.503,26.436l0.396-0.108L554.503,26.436L554.503,26.436z
				 M554.274,26.625l-0.076,0.081l0.177,0.151L554.274,26.625L554.274,26.625z M556.387,26.625l0.252,0.043L555.9,26.73l0.023,0.252
				l-0.437-0.448l-0.211,0.504l-0.735-0.182l-0.325,0.182l-0.863-0.577l0.038-0.574l0.305-0.28l-0.27-0.466l0.252-0.836l0.305-0.188
				l0.732,0.018l-0.134,0.252l1.257,0.322l0.645,0.917l-0.645,0.144l0.48-0.053l0.697,0.683l-0.211,0.262L556.387,26.625
				L556.387,26.625z"/>
			<path fill-rule="evenodd" clip-rule="evenodd" fill="#FFFFFF" d="M543.845,45.014l0.139-0.008v-0.171l-0.156,0.007
				L543.845,45.014L543.845,45.014z M553.123,43.691l-0.093-0.161l-0.413,0.119L553.123,43.691L553.123,43.691z M552.28,42.453
				l0.463-0.36L552.28,42.453L552.28,42.453z M552.451,41.473L552.451,41.473L552.451,41.473z M548.208,41.562l0.167-0.008
				l-0.019-0.181l-0.158,0.02L548.208,41.562L548.208,41.562z M552.801,38.658l-0.35-0.053L552.801,38.658L552.801,38.658z
				 M544.676,39.315l0.133-0.413L544.676,39.315L544.676,39.315z M545.124,38.704l-0.018-0.234L545.124,38.704L545.124,38.704z
				 M552.579,35.09l0.164-0.018l-0.018-0.171l-0.164,0.018L552.579,35.09L552.579,35.09z M539.813,32.69l-0.194-0.556l-0.161,0.179
				l0.03,0.325L539.813,32.69L539.813,32.69z M539.962,32.26l0.322,0.063l-0.131-0.476L539.962,32.26L539.962,32.26z M541.471,31.91
				l-0.265-0.398L541.471,31.91L541.471,31.91z M552.562,30.759l-0.018-0.325l0.36,0.458l-0.453-0.539L552.562,30.759
				L552.562,30.759z M543.52,31.082L543.52,31.082L543.52,31.082z M553.206,41.806l-0.231,0.025l0.564,0.856l-0.416-0.056
				c0.537,0.504,0,0.71,0.101,1.546l-0.624,0.297l0.201,0.297l0.305-0.262l-0.614,0.622l-0.498-0.29l0.115-0.413l-0.211,0.252
				l-0.678-0.189l0.191,0.234l-1.568-1.098l-0.189,0.514l-0.471,0.36l-0.3,0.179l-0.279-0.207l-0.045,0.315l-0.728,0.144
				l-1.705,0.063l-0.322,0.027l0.093,0.144l-0.093-0.144l-0.652,0.126l0.148-0.332l-0.229,0.332l-2.037,0.179l-0.901-0.179
				l-0.355-0.468l-0.646,0.144l0.128-0.34l-0.735-0.01l0.045-0.423l-0.302,0.342l-0.436-0.37l-0.732-1.158l0.257,0.154
				c-0.257-0.979,0.981-1.682,0.941-2.455l0.209-0.431l0.517-0.773l0.184-0.818l0.139-0.018l0.055-0.413l0.237-0.189l0.589-1.752
				l0.284-0.433l0.277-0.755l-1.316-0.07l-0.167,0.108l-0.045,0.323l-1.168,0.665l-1.169-0.476l-0.377,0.36l-0.791-0.504
				l-0.831-1.161l0.378-0.431l0.018,0.315l-0.035-0.566l1.886-0.798l0.148-0.342l-0.436-0.126l0.796-0.486l0.171,0.234l0.206-0.494
				l0.265,0.134l0.061-0.252l0.466-0.189l0.68,0.171l0.053-0.315l0.343,0.287l0.156-0.098l-0.116-0.396
				c0.962,0.063,1.937-0.332,2.319,0.386l1.324,1.196l0.847,0.503l-0.716,0.224l1.038,0.738l-0.139,0.343l-0.07,0.826l0.098,0.388
				l-0.267-0.136l-0.557,1.105l0.126,0.469l-0.418,0.125l0.035,1.214l-0.247-0.063l0.113,0.486l-0.188,0.833l-0.619,0.297
				l0.246,0.055l-0.113,0.584l-0.193-0.314l-0.3,0.277l0.589,0.28l-0.455,0.367l-0.212,0.335l0.177,0.305
				c0.863-0.153,1.637,0.134,2.449-0.188l0.035,0.486l0.265-0.504c0.909,0.081,1.642-0.639,1.836,0.34l0.521,0.353l-0.469,0.287
				l-0.134,0.343l0.317-0.038l0.554,0.703c0.454-0.766-0.158-1.853,0.071-3.029l0.262,0.053c-0.297-1.322,0.211-2.516-0.096-4.233
				l0.348-0.836l-0.189-1.133l0.225-0.35l-0.26-0.045l0.431-0.773l-0.247-0.154l0.212-0.34l0.201-1.483l0.526-1.682l0.911,0.182
				l-0.058,0.332l0.652-0.063l0.345,0.214l0.536,0.71l0.124,0.395l-0.396,0.189l0.582,0.118l0.211,0.63l-0.211,0.35l-0.491,0.036
				l0.252,0.153l0.144,0.629l-0.179,0.836l-0.159,0.018l-0.11,0.826l0.166,0.881l-0.544,0.287l0.526,0.44l-0.378,0.521l-0.418-0.053
				l-0.31,0.196l0.11,0.234l0.544-0.297l0.514,0.29l-0.136,0.259l0.018,0.405l-0.148,0.179l0.204,0.307l-0.166,0.018l0.07,0.889
				l-0.804,0.144l0.733,0.018l0.11,0.332l-0.241,1.242L553.206,41.806L553.206,41.806z"/>
			<path fill-rule="evenodd" clip-rule="evenodd" fill="#FFFFFF" d="M363.465,62.254l0.162-0.018l0.059-0.171l-0.256-0.063
				L363.465,62.254L363.465,62.254z M358.881,57.14l0.248-0.018l-0.266-0.297L358.881,57.14L358.881,57.14z M360.014,51.827v0.171
				l0.072-0.252L360.014,51.827L360.014,51.827z M357.24,58.021l0.131-0.504l0.378-0.279l-0.113-0.396l0.334-0.018l0.139-1.249
				l0.377-0.272l-0.04-0.493c-0.171-1.033,0.36-1.987,0.166-3.19l0.252-0.909l-0.27-0.151l-0.624,1.204l0.247,0.216l-0.338,0.683
				l0.171,0.224l-0.512,0.612l0.035,1.626l-0.562,2.183l0.359,0.209L357.24,58.021L357.24,58.021z M356.09,49.858l0.473-0.188
				L356.09,49.858L356.09,49.858z M358.594,45.489l0.868-0.395l-0.132,0.35l0.562-0.043l-0.018,0.655l0.289-0.35l0.035,0.234
				l0.696-0.377l0.131,0.647l0.211-0.36l0.359,0.468l-0.144,0.171l0.392,1.84l0.332-0.018l0.045,0.728l1.587,0.28l0.597,0.287
				l0.266,0.388l0.184,1.133l-0.484,2.067l0.246,0.231l-0.323,0.028l-0.018,0.567l0.203,0.556c-0.712,1.546-0.94,3.613-0.729,5.285
				l0.095,1.053l0.414,0.133l-0.036,0.416l0.166,0.063l-0.225,0.493l-0.374,0.287l-1.514-0.619l-0.477,0.207l-0.544-0.612
				l-0.054,0.251l-0.378-0.546l-0.305,0.116l-0.054-0.494c-0.698,1.004-2.212,2.13-3.416,1.105l0.112,0.295l-0.36-0.375
				l-0.313,0.206l-1.834-1.412l-0.467-0.854l-0.212-1.465l0.095-2.13l-0.185-0.143l0.468-1.347l-0.432-0.126l0.414-0.917
				l-0.186-0.244l0.186-0.997l0.232-0.099l0.18-1.717l0.49-0.136l-0.49,0.055l0.149-0.108l0.211-1.476l0.378-0.277l0.736-2.186
				c1.039-0.378,1.205-1.194,2.68-1.113L358.594,45.489L358.594,45.489z"/>
			<path fill-rule="evenodd" clip-rule="evenodd" fill="#FFFFFF" d="M480.063,51.873l0.184-0.01l-0.022-0.171l-0.161,0.01V51.873
				L480.063,51.873z M476.122,47.451l0.332,0.053L476.122,47.451L476.122,47.451z M477.816,46.245l-0.091-0.314L477.816,46.245
				L477.816,46.245z M474.646,46.434l0.061-0.252L474.646,46.434L474.646,46.434z M477.834,45.356l0.212-0.342l-0.32,0.027
				L477.834,45.356L477.834,45.356z M481.495,38.2L481.495,38.2L481.495,38.2z M481.516,38.452l0.488,0.927
				c-0.053,1.133-0.647,3.155-0.488,4.054l-0.25,0.018c0.434,1.826-0.471,4.369-0.377,6.391l-0.413-0.126l0.056,0.72l0.34,0.315
				l-0.089,0.826l-0.4,0.098l0.341,0.144l-0.063,0.164l0.423,0.295l-0.476-0.035l0.302,0.871l-1.093-0.333l-1.264-0.458
				l-0.357-0.458l-0.469-0.871l0.108-1.637l-0.056-1.554l-0.357-1.438l-0.378,0.277l-0.543,0.531l0.166,0.808l-0.413-0.053
				l0.093,0.315l-0.471,0.214l-0.176-0.322l-0.148,0.35l0.359,0.297l-0.359,0.592l-0.866,0.398l-1.362-0.629l-0.899-1.053
				l0.562-1.196l1.473-1.914l1.225-2.06l1.037-1.302c0.36-1.105,0.863-1.871,1.415-2.651l0.096-0.748l1.362-2.463l0.453,0.521
				l0.413,0.045l0.665,1.168l0.347,0.234l-0.148,0.161l0.322,0.144L481.516,38.452L481.516,38.452z"/>
			<path fill-rule="evenodd" clip-rule="evenodd" fill="#FFFFFF" d="M502.943,52.142l0.166,0.081l-0.177-0.242L502.943,52.142
				L502.943,52.142z M502.521,51.774l0.302-0.262L502.521,51.774L502.521,51.774z M501.433,51.61l-0.194-0.385L501.433,51.61
				L501.433,51.61z M496.427,51.198h0.156l-0.018-0.161l-0.156,0.007L496.427,51.198L496.427,51.198z M496.907,51.089l-0.04-0.423
				L496.907,51.089L496.907,51.089z M495.109,51.072l0.212-0.27L495.109,51.072L495.109,51.072z M507.621,49.392L507.621,49.392
				L507.621,49.392z M507.599,49.078L507.599,49.078L507.599,49.078z M498.849,49.949l0.167-0.01l0.088-0.098l-0.272-0.144
				L498.849,49.949L498.849,49.949z M498.524,49.977l-0.265-0.388L498.524,49.977L498.524,49.977z M507.656,48.833l0.162-0.018
				l-0.019-0.171l-0.161,0.018L507.656,48.833L507.656,48.833z M502.049,49.204l-0.319-0.146L502.049,49.204L502.049,49.204z
				 M507.961,48.483l0.217-0.189l0.113,0.161l-0.279-0.315L507.961,48.483L507.961,48.483z M499.045,49.354l-0.107-0.476
				L499.045,49.354L499.045,49.354z M508.143,47.728l0.166-0.008l-0.018-0.171l-0.166,0.007L508.143,47.728L508.143,47.728z
				 M506.937,47.899l-0.018-0.153l-0.093-0.071l-0.32,0.099L506.937,47.899L506.937,47.899z M497.033,48.536L497.033,48.536
				L497.033,48.536z M495.24,48.672l0.3-0.251L495.24,48.672L495.24,48.672z M491.394,47.521l0.018,0.242l0.322-0.018l-0.094-0.333
				L491.394,47.521L491.394,47.521z M509.765,44.412l0.158-0.018l-0.022-0.153l-0.153,0.018L509.765,44.412L509.765,44.412z
				 M510.197,43.9l-0.314,0.088L510.197,43.9L510.197,43.9z M510.102,43.737l0.161-0.025v-0.164l-0.161,0.018V43.737L510.102,43.737
				z M503.449,44.276l-0.11-0.333L503.449,44.276L503.449,44.276z M509.993,43.251l-0.174-0.07L509.993,43.251L509.993,43.251z
				 M509.633,43.037l-0.166,0.018L509.633,43.037L509.633,43.037z M491.887,44.555l0.314-0.279L491.887,44.555L491.887,44.555z
				 M492.201,43.377l-0.04-0.403L492.201,43.377L492.201,43.377z M492.735,42.929l0.166-0.018l-0.018-0.154l-0.166,0.01
				L492.735,42.929L492.735,42.929z M510.406,41.418l0.303-0.189L510.406,41.418L510.406,41.418z M510.084,41.456l0.161-0.01
				l-0.252-0.073L510.084,41.456L510.084,41.456z M503.805,41.625l-0.169-0.232L503.805,41.625L503.805,41.625z M510.822,40.411
				l0.166,0.063l-0.187-0.231L510.822,40.411L510.822,40.411z M510.968,40.151l-0.219-0.549L510.968,40.151L510.968,40.151z
				 M492.66,40.977l0.262,0.063l-0.021-0.242l-0.166,0.018L492.66,40.977L492.66,40.977z M503.598,39.847l-0.259,0.018
				L503.598,39.847L503.598,39.847z M505.662,39.361l0.18-0.018l-0.019-0.164l-0.161,0.02V39.361L505.662,39.361z M506.688,38.696
				l-0.274-0.207L506.688,38.696L506.688,38.696z M497.429,39.288l0.156-0.007l-0.008-0.164h-0.166L497.429,39.288L497.429,39.288z
				 M502.862,47l-0.148,0.179L502.862,47L502.862,47z M503.487,44.601l-0.177,0.755l-0.257-0.081l0.274,0.305l0.011,0.252
				c-0.836,0.556,0.09,1.689-0.801,2.183l0.176,0.227l-0.289,0.521l0.903-0.081l1.058-0.972l0.534-0.378
				c0.849-1.221,1.941-2.238,2.301-3.855l0.4-1.098l0.22-0.592l0.267-0.514l0.129-0.655c0.153-1.108,0.055-2.105,0.153-2.868
				l-0.791,0.133l-0.211,0.433l-0.562,0.133l-0.121,0.413l-0.504-0.126l0.184,0.315l-1.241,0.755l-0.018,0.811l-0.224,0.34
				l-0.643-0.018l0.34,0.287l-0.849,0.728l-0.624,1.269L503.487,44.601L503.487,44.601z M495.321,38.553l0.236-0.182L495.321,38.553
				L495.321,38.553z M495.092,38.658l0.148-0.252L495.092,38.658L495.092,38.658z M510.066,37.203l0.396-0.189L510.066,37.203
				L510.066,37.203z M510.444,36.682l0.148-0.081l-0.526-0.368L510.444,36.682L510.444,36.682z M496.452,35.45l-0.116,0.413
				l0.512,0.44l0.581-0.035l-0.319,0.108l0.377,0.7l0.099,0.153l0.4-0.189l-0.234,0.259l-0.07,0.245l0.772,0.269l-0.498,0.854
				l0.083,0.251l0.715-0.314l-0.133,0.188l0.108,0.476l-0.239,0.018l0.053-0.34l-0.322,0.106l-0.199,0.604l-0.796,0.207l0.148-0.244
				l-0.184-0.242l-0.211,0.35l-0.111-0.242l-0.624,0.297l-1.493-0.279l0.035-0.406l-0.144,0.081l-0.139,0.181l0.247,0.224
				l-0.265,0.675l-0.486,0.116l0.134,0.64l-0.247,0.025l-0.11,0.748l-0.738,0.962l-0.43,0.682l0.219,0.549l-0.201-0.315
				l-0.018,0.584l-0.338,0.025c0.214,0.685,0.048,0.811,0.144,1.709l-0.338-0.153l0.355,0.385l-0.201,0.503l-0.405-0.043l0.533,0.69
				l-0.3,0.101l0.338,0.385l-0.194,0.423l1.096,0.566l0.397-0.199l0.431,0.29l0.046-0.335l0.236-0.168l0.182,0.143l1.095-0.486
				l0.121-0.342l1.659-0.952l0.989-0.818l0.678-0.71c0.184-0.647,0.544-1.141,0.396-2.067l0.332-0.108
				c-0.184-0.861,0.338-1.302,0.479-2.085l0.357-0.665c0.829-0.854,0.96-2.301,1.941-3.021l-0.013-0.322l1.906-1.717l1.941-0.154
				l0.899,0.091l0.322-0.179l-0.413-0.136l0.018-0.574l0.599,0.116l0.134-0.252l1.551,1.017l0.597,0.207l-0.332,0.171l0.6,0.116
				l0.265,0.305l-0.229,0.262l0.418,0.053l0.211,0.559l0.282,0.466l-0.317,0.098l0.089,1.144l0.324-0.035l0.144,0.889l-0.184-0.305
				l-0.267,0.672l0.096,1.304l-0.325-0.056l-0.148,0.171l0.504,0.119l-0.443,0.539l0.169,0.216l-0.552,0.126l0.035,0.564
				l-0.373,0.289l0.242,0.134l0.131,0.566l-0.504,0.783l0.056,0.637l-0.413,0.036l0.34,0.136l-0.322,0.098l0.191,0.396l-0.402-0.116
				l0.264,0.385l-0.916,0.64l0.091,0.161l0.466-0.207l0.193,0.385l-0.408,0.863l-0.742,0.144l0.365,0.378l-0.418-0.053l0.241,0.71
				l-0.287-0.297l-0.377,0.36l0.322-0.207l0.037,0.493l-0.994,0.826l-0.592-0.287l-0.355,0.602l0.317,0.136l-0.466,0.196
				l-0.193-0.476l-0.166,0.018l-0.544,0.37l0.544,0.619l-0.265-0.314l-0.131,0.494l-0.229,0.108l-0.113-0.322l-0.322,0.108
				l0.104,0.231l-0.871,0.234l-0.585-0.035l0.26,0.242l-1.501-0.295l-0.818-0.271l-0.979-0.809l-0.229,0.189l-0.338-0.305
				l-0.637-0.755l-0.416-0.056l-0.042,0.325l-1.126,0.423l-0.3,0.35l0.053-0.503l-0.193,0.675l-0.237,0.188l-0.473,0.116
				l-0.912-0.007l0.126-0.675l-0.383,0.529l-0.906-0.333l-1.946-0.745l-0.018-0.242l-1.037-0.738l-0.131-0.549l-0.922-0.252
				l0.022-0.745l-0.182-0.396l-0.161,0.098l-0.216-1.626l-0.335-0.207l0.018-0.746l0.48-0.118l-0.324,0.038l-0.094-1.053
				l0.471-0.279l-0.286-0.637l0.233-0.018l0.144-1.395l0.7-1.445l-0.139-0.647l0.322-0.028l0.038-0.657l0.378-0.27l-0.113-0.314
				l0.863-1.393l-0.018-0.322l0.935-0.64l-0.041-0.314l1.569-0.864l0.018,0.234l0.737,0.018l-0.067,0.091L496.452,35.45
				L496.452,35.45z"/>
			<path fill-rule="evenodd" clip-rule="evenodd" fill="#FFFFFF" d="M566.818,45.527l0.305-0.182L566.818,45.527L566.818,45.527z
				 M565.255,45.409l-0.319-0.053L565.255,45.409L565.255,45.409z M568.561,44.979l-0.251-0.063L568.561,44.979L568.561,44.979z
				 M576.251,44.107l0.222-0.181L576.251,44.107L576.251,44.107z M586.041,43.002l-0.27-0.154L586.041,43.002L586.041,43.002z
				 M577.029,43.558l0.166-0.01l-0.018-0.151l-0.172,0.007L577.029,43.558L577.029,43.558z M585.315,42.327l0.252-0.018l0.184,0.214
				l-0.035-0.396L585.315,42.327L585.315,42.327z M574.31,43.289l-0.265-0.144L574.31,43.289L574.31,43.289z M573.649,43.342
				l-0.096-0.234l-0.3,0.27L573.649,43.342L573.649,43.342z M565.761,43.495l0.159,0.063l-0.177-0.216L565.761,43.495
				L565.761,43.495z M577.727,42.282L577.727,42.282L577.727,42.282z M570.437,42.866L570.437,42.866L570.437,42.866z
				 M585.441,41.652l-0.068,0.262l0.25-0.028l-0.36-0.287L585.441,41.652L585.441,41.652z M565.973,43.226l-0.27-0.216
				L565.973,43.226L565.973,43.226z M565.217,42.957l0.073-0.164L565.217,42.957L565.217,42.957z M584.759,41.383l0.239-0.171
				l-0.335-0.063L584.759,41.383L584.759,41.383z M579.549,41.562L579.549,41.562L579.549,41.562z M578.912,41.869l-0.193-0.396
				L578.912,41.869L578.912,41.869z M571.102,41.995l-0.308,0.108L571.102,41.995L571.102,41.995z M569.986,42.334l-0.279-0.232
				L569.986,42.334L569.986,42.334z M562.291,43.037l0.308-0.27L562.291,43.037L562.291,43.037z M567.627,42.362l0.096,0.325
				l1.055-0.091l-0.521-0.451L567.627,42.362L567.627,42.362z M569.646,42.11l-0.108-0.305L569.646,42.11L569.646,42.11z
				 M563.596,42.11L563.596,42.11L563.596,42.11z M570.484,41.562l0.164-0.018v-0.171l-0.164,0.02V41.562L570.484,41.562z
				 M581.342,40.519l-0.093-0.144L581.342,40.519L581.342,40.519z M572.287,41.499l0.32-0.116l-0.355-0.378L572.287,41.499
				L572.287,41.499z M571.852,41.131l0.229-0.018l-0.108-0.252L571.852,41.131L571.852,41.131z M570.666,40.564L570.666,40.564
				L570.666,40.564z M573.758,39.504l-0.319,0.108L573.758,39.504L573.758,39.504z M576.198,39.378l0.148-0.179l-0.247-0.045
				L576.198,39.378L576.198,39.378z M557.165,39.288l0.018,0.073L557.165,39.288L557.165,39.288z M559.182,38.885l-0.27-0.234
				L559.182,38.885L559.182,38.885z M564.971,37.833l-0.34-0.287l-0.056,0.403L564.971,37.833L564.971,37.833z M564.953,37.608
				l0.229-0.038l-0.179-0.214L564.953,37.608L564.953,37.608z M581.546,34.712l-0.35-0.053L581.546,34.712L581.546,34.712z
				 M566.212,36.024l-0.018-0.231L566.212,36.024L566.212,36.024z M566.477,35.36l-0.234-0.071L566.477,35.36L566.477,35.36z
				 M566.327,34.542l0.167-0.008v-0.171l-0.185,0.018L566.327,34.542L566.327,34.542z M580.944,40.627l-0.056,0.413L580.944,40.627
				L580.944,40.627z M557.411,39.27l-0.027-0.405l0.501,0.189l0.357-0.665l0.542-0.368l0.229-0.108l0.26,0.144l-0.018-0.322
				l0.697-0.378l0.772-0.476l0.287-0.521l0.229-0.101l0.279-0.755l0.169-0.746l0.056-0.486l0.241-0.196l-0.131-0.396l0.36-0.594
				l-0.018-0.314l0.193-0.602l1.105-1.473l-0.018-0.244l1.685-1.276l0.562-0.134l0.517,0.297l0.445-0.37l0.957,0.577l1.19,0.629
				l0.572,0.861l-0.159,0.182l0.119,0.557l0.148,0.637L569.12,32.6l-0.108,0.667l-0.365-0.297l-0.104,0.665l0.33-0.108l-0.36,0.513
				l-0.113-0.227l-0.126,0.504l-0.173-0.242l-0.222,0.34l0.144-0.088l-0.282,0.36c0.229,0.969-0.544,0.574-0.831,0.871l0.27,0.234
				l-0.625,0.377l0.036,0.476l-0.113-0.234l-0.695,1.284l-0.204-0.396l0.056,0.64l-0.308,0.277l-0.305,0.271l-0.337-0.297
				l0.12,0.647L564.666,39l-0.298,0.521l0.096,0.234l-0.229,0.099l0.282,0.556l-0.305,1.171l0.173,0.305l0.041,1.302l1.15-0.753
				l0.148-0.333l1.305-0.989l0.166,0.133l0.075-0.322l0.847-0.556l-0.113-0.252l0.516-0.685l1.431-1.589
				c0.431-0.962,1.168-1.672,1.488-2.724l0.304-0.199l0.431-0.763l0.794-1.536l0.541-1.188l0.554-1.186l-0.093-0.144l0.735-1.133
				l0.4-0.098l0.43,0.287l-0.058,0.413l0.315-0.269l0.697,0.503l0.305-0.179l0.544,0.612c0.72,0.826,0.264,1.777,0.377,2.82
				l-0.71,0.297l0.579,0.045l-0.144,1.141l-0.606,0.549l-0.188,0.909l0.113,0.171l0.305-0.29l-0.059,0.496l-0.571-0.038l0.113,0.244
				l-0.018-0.073l0.413-0.125l-0.351,0.836l0.242,0.08l-0.436,0.514l0.284,0.539l-0.415,0.035l0.438,0.297l-0.158,1.007
				l-0.413,0.018l0.265,0.144l0.863-0.315l-0.181-0.224l1.012-0.657l-0.018-0.242c0.871-0.549,1.168-1.582,1.941-2.193l0.72-1.204
				v-0.244l0.872-0.962c0.148-1.176,1.203-0.584,2.16-0.591l-0.126,0.42l0.562-0.116l0.36,0.199l0.516,0.609l0.091,1.07l0.343,0.125
				l-0.491,1.098l0.378,0.619l-0.174-0.224l-0.021,0.746l-0.322,0.01l0.305,0.791l-0.27,0.609l0.325,0.055l0.196,0.385l-0.287,0.584
				l0.247-0.018l-0.265,0.675l0.486,0.126l0.19,1.294l0.396-0.036l0.297,0.547l-0.395,0.108l0.193,0.315l0.22-0.171l0.176,0.315
				l-0.624,0.045l0.566,1.179l-0.338-0.224l0.201,0.396l-1.369,0.196l-0.199-0.305l-0.649,0.035l0.563-0.196l-0.02-0.244
				l-1.206,0.171l0.131-0.413l-0.4,0.108l-0.614-0.353l-0.194-0.476l0.252-0.018l-0.436-0.207l0.201-0.441l-0.413-0.207l0.076-1.224
				l-0.562-0.773l-0.058-0.483l-1.021,1.231l0.106,0.466l-0.713,0.144l-0.131,0.503l-0.544,0.29l-0.099-0.227l-0.297,0.433
				l-0.516-0.297l0.04,0.323l0.265,0.227l-0.625,0.466l-0.413-0.144l0.3-0.252l-0.642,0.045l0.211,0.72l-0.108-0.325l-0.058,0.406
				l-0.171-0.224l-0.131,0.332l-0.7,0.385l-0.113-0.224l-1.886-0.018l0.148-0.262l-1.075-0.151l-0.509-0.371l-0.126-0.574
				l-0.305,0.277l-0.139-0.647l0.317-0.179l-0.053-0.657l-0.652,0.144l-0.571,0.944l-0.413,0.038l-0.131,0.403l-1.131,1.151
				l-0.249-0.045l-0.265,0.584l-0.201-0.476l-0.158,0.018l0.101,0.388l-1.116,0.34l0.131,0.566l-0.324,0.108l-0.184-0.144
				l-0.355,0.521l-0.176-0.395l-0.295,0.584l-0.479,0.136l-0.453-0.458l0.131,0.476l-0.257,0.018l-0.574-0.28l-0.217-0.549
				l-0.611-0.357l-0.539,0.196l-0.174-0.063l-0.02-0.322l-0.579,0.035l0.256-0.09l-0.521-0.197l-0.612-0.539l0.44-0.514
				l-0.737-0.018l-0.08-0.171l0.377-0.431l-0.692-0.269l-0.191-0.567l0.076-1.07l-1.66-0.098l-0.211,0.269l-0.688-0.451h-0.831
				l0.053-0.35l-0.396,0.136l-0.772-0.514l-0.134-0.808l-0.222,0.251l-0.664-1.078l0.45,0.458l0.534-0.29l0.599,0.27l-0.09-0.162
				L557.411,39.27L557.411,39.27z"/>
			<path fill-rule="evenodd" clip-rule="evenodd" fill="#FFFFFF" d="M451.501,54.821L451.501,54.821L451.501,54.821z
				 M450.072,53.391L450.072,53.391L450.072,53.391z M451.065,52.484l-0.162,0.018L451.065,52.484L451.065,52.484z M450.742,52.429
				l0.215-0.171l-0.166,0.018L450.742,52.429L450.742,52.429z M452.81,51.774L452.81,51.774L452.81,51.774z M450.468,52.124
				l0.472-0.188L450.468,52.124L450.468,52.124z M453.442,51.638l0.02,0.091L453.442,51.638L453.442,51.638z M451.187,51.988
				l0.166-0.008l0.077-0.171l-0.261-0.063L451.187,51.988L451.187,51.988z M459.104,50.865l-0.182-0.234L459.104,50.865
				L459.104,50.865z M438.9,52.258l0.229-0.018l-0.202-0.322L438.9,52.258L438.9,52.258z M449.807,51.127l0.303-0.188
				L449.807,51.127L449.807,51.127z M454.729,50.407l-0.171-0.154L454.729,50.407L454.729,50.407z M439.224,51.313h0.157
				l-0.103-0.322L439.224,51.313L439.224,51.313z M450.369,49.938L450.369,49.938L450.369,49.938z M445.749,50.228l-0.243,0.106
				L445.749,50.228L445.749,50.228z M450.109,49.788l0.305-0.171L450.109,49.788L450.109,49.788z M436.738,50.865l-0.019-0.234
				l-0.251,0.018L436.738,50.865L436.738,50.865z M450.832,49.662l0.328-0.028l-0.274-0.314L450.832,49.662L450.832,49.662z
				 M437.188,50.354L437.188,50.354L437.188,50.354z M449.524,49.428l0.62-0.287L449.524,49.428L449.524,49.428z M449.975,48.906
				l0.458-0.118L449.975,48.906L449.975,48.906z M446.693,48.924l0.242-0.171L446.693,48.924L446.693,48.924z M446.936,47.756
				l0.157-0.01l-0.018-0.161l-0.158,0.018L446.936,47.756L446.936,47.756z M457.22,46.776L457.22,46.776L457.22,46.776z
				 M458.864,46.074l0.239-0.189l-0.164,0.01L458.864,46.074L458.864,46.074z M448.086,46.776l0.396-0.119l-0.095-0.151
				L448.086,46.776L448.086,46.776z M439.416,46.821l0.186-0.018l-0.019-0.164l-0.167,0.018V46.821L439.416,46.821z M447.996,45.804
				l0.57-0.126L447.996,45.804L447.996,45.804z M449.219,43.656l0.063-0.09l-0.176-0.134L449.219,43.656L449.219,43.656z
				 M440.32,41.617l0.229-0.199L440.32,41.617L440.32,41.617z M441.183,40.071L441.183,40.071L441.183,40.071z M449.992,52.258
				l0.044-0.413L449.992,52.258L449.992,52.258z M450.433,52.859l-0.194-0.385L450.433,52.859L450.433,52.859z M449.502,43.145
				l-0.248,0.025L449.502,43.145L449.502,43.145z M444.469,50.75l0.166-0.02v-0.169l-0.166,0.008V50.75L444.469,50.75z
				 M439.17,44.716l0.018,0.164l0.396-0.269l-0.903,0.07l0.324-1.095l0.538-0.29l0.194-0.665l-0.396,0.036l1.473-1.76l-0.049,0.259
				l0.04-0.493l-0.31,0.179l-0.157-0.063l0.409-0.763l0.181,0.144l0.054-0.242l2.565-0.612l1.069-0.01l0.211-0.269l1.26,0.307
				l0.18,0.314l-0.217,2.299l-0.633,2.339l-0.684,0.546l0.04,0.496l-1.024,1.465l-0.751,0.798l-0.378,0.342l-0.323,0.035
				l-0.341,0.766l-0.508-0.055l-0.396,1.017l0.247,0.144l-0.188,0.511c0.188,0.926-0.261,1.762,0.661,2.228l0.956-0.242l0.36-0.682
				l0.606-0.388l0.018,0.181l0.985-1.063l1.298-1.005l0.606-0.622l-0.192-0.385l0.396-0.207l-0.247-0.126l0.104-0.514l0.845-0.629
				l-0.112-0.322l0.562-0.217l-0.131-0.71l0.656-0.881l0.423-0.692l0.35-0.917l0.028-0.494l0.332-0.018l-0.166-0.161l0.544-0.37
				l-0.186-0.144c-0.018-0.906,0.626-1.267,1.528-1.438v0.171c0.922-0.287,1.618-0.287,2.53-0.126l0.204,1.448l-0.186,0.917
				l-0.302,0.35l-0.175,1.734l-0.323,0.108l-0.274,2.561l0.071,1.941l-0.323,0.099l-0.202,0.685l0.396-0.207l-0.172,0.844
				l0.126,0.476l0.422,0.297l0.454-0.619l0.221-0.343l0.247,0.056l-0.185-0.136l0.437-0.692l0.337,0.055l-0.027-0.415l0.271,0.395
				l-0.02-0.333l0.846-0.637l-0.201-0.388l1.01-0.735l-0.111-0.154l-0.284,0.431l0.359-0.592l0.477-1.115l0.562-0.116l-0.144-0.801
				l0.39-0.207l0.021-0.657l0.488-0.126l-0.035-0.395l0.34,0.055l-0.191-0.227l0.391-0.277c-0.217-0.675,0.831-0.755,0.594-1.682
				l2.153-0.665l0.184,0.153c1.42-0.451,1.581-0.549,1.617,1.015l-0.426,1.735l0.191,0.315l-0.174,0.836l-0.252,0.826l-0.073,1.322
				l-0.241,0.098l-0.081,1.808l-0.148,0.171l-0.035,0.738l0.718-0.307l0.772-0.466l-0.093-0.234l0.844-0.478l-0.018-0.242
				l0.377-0.44l0.418,0.136l-1.042,2.281l0.131,0.406l-0.635,0.279l0.185,0.234l-0.813,0.242l0.198,0.216l-2.084,0.655l-0.056,0.181
				l-0.939-0.262l-0.099-0.468l-0.314,0.252l-0.027-0.557l-0.386,0.431l-0.045-0.476l-0.4,0.028l0.217-0.262l-0.451-0.529
				l0.303-0.279l-0.086-0.063l-0.252-0.153l0.144-0.333l-0.378,0.44l-0.11-0.403l-0.536,0.529l-0.108,0.577l-0.643,0.133
				l0.046,0.738l-0.854,0.388l-1.018,0.745l-0.569,0.944l-1.417,0.602l-0.059,0.252l-0.976,0.07l-0.75-0.188l-0.198-0.466
				l-0.75-0.189l0.194-0.504l-0.4,0.126l-0.433-0.377l0.621-0.549l-0.675-0.179l0.598-0.629l-0.22,0.27l-0.553-0.763l0.526-0.703
				l-0.396,0.199l0.659-0.881l-0.395-0.71l-0.579-0.262l0.166,0.136l-0.562,0.207l0.147,0.566l-1.397,1.007l-0.278,0.672
				l-0.324-0.053l-0.432,0.854l-0.318,0.018l-1.062,0.989l-0.934,0.567l-1.497,0.692l-0.172-0.227l0.091,0.227
				c-0.544,0.377-0.976-0.154-1.824-0.252l-0.949-0.738l-0.521-0.368l-0.035-0.566l-0.14,0.252l-0.652-0.927l0.392-0.116
				l-0.476-0.038l0.104-0.493l-0.248-0.154l0.05-0.242l0.324-0.199l-0.563-0.773l-0.134,0.262l-0.13-0.476l-1.114,0.242l0.27,0.234
				l-1.236-0.063l-1.205,0.171l0.117-0.413l-0.458,0.207l-0.994-1.07l0.238-0.269l0.783-0.136l-0.122,0.342l0.18,0.224l0.31-0.269
				l-0.201-0.476l0.66,0.116l0.993-0.728l0.104,0.224l0.921-0.728l0.414,0.056l0.229-0.189l-0.1-0.325l0.432,0.224l0.517-0.448
				l0.162-1.007l-0.341-0.126l0.381-0.43l-0.332-0.056L439.17,44.716L439.17,44.716z"/>
			<path fill-rule="evenodd" clip-rule="evenodd" fill="#FFFFFF" d="M429.619,57.731l-0.197-0.314L429.619,57.731L429.619,57.731z
				 M428.834,57.06l0.071-0.164l0.157,0.063l-0.509-0.206L428.834,57.06L428.834,57.06z M428.774,56.5l-0.201-0.566L428.774,56.5
				L428.774,56.5z M427.835,56.077l-0.175-0.231L427.835,56.077L427.835,56.077z M427.8,54.542l0.053-0.342L427.8,54.542
				L427.8,54.542z M421.513,54.38l-0.091-0.144L421.513,54.38L421.513,54.38z M419.746,53.877l-0.48,0.027L419.746,53.877
				L419.746,53.877z M418.856,53.939l0.171-0.01l0.075-0.081l-0.269-0.154L418.856,53.939L418.856,53.939z M419.229,53.426
				l0.234-0.269l-0.252,0.027L419.229,53.426L419.229,53.426z M418.567,53.32l0.158,0.07l0.414-0.207l-0.773-0.269L418.567,53.32
				L418.567,53.32z M429.063,51.9L429.063,51.9L429.063,51.9z M418.532,52.744l0.135-0.007l0.077-0.171l-0.229-0.063L418.532,52.744
				L418.532,52.744z M419.193,52.034l-0.014-0.242l-0.131,0.34l0.073-0.088L419.193,52.034L419.193,52.034z M427.027,51.001
				l-0.248,0.025L427.027,51.001L427.027,51.001z M426.137,50.012l-0.131-0.476L426.137,50.012L426.137,50.012z M420.061,49.518
				l-0.359-0.377L420.061,49.518L420.061,49.518z M420.721,48.745L420.721,48.745L420.721,48.745z M421.368,48.519l-0.324,0.101
				L421.368,48.519L421.368,48.519z M422.519,47.692l0.238-0.188L422.519,47.692L422.519,47.692z M423.076,47.557l0.233-0.252
				L423.076,47.557L423.076,47.557z M420.42,48.035l0.53-0.622L420.42,48.035L420.42,48.035z M422.892,47.343L422.892,47.343
				L422.892,47.343z M418.401,45.086l-0.106-0.244L418.401,45.086L418.401,45.086z M420.402,45.58l0.301-0.108L420.402,45.58
				L420.402,45.58z M420.042,50.425v-0.171l-0.341-0.133l0.229-0.182l-0.736,0.073L420.042,50.425L420.042,50.425z M428.487,56.997
				l-0.392,0.116l-0.035-0.486l-0.36-0.448l-0.579,0.035l0.126-0.574l-0.337-0.136l0.318-0.035l-0.265-0.378l0.229-0.101
				l-0.283-0.557l0.301-0.098l-0.108-0.325l-0.359,0.531l-0.593,0.783l-0.217,0.251l-0.323,0.025l-0.516,0.692l-0.334-0.053
				l-0.929,0.566l-0.051,0.333l-0.493,0.196l-0.172-0.305l-1.033,0.486l-0.018-0.164l-0.122,0.353l-0.899-0.02l-0.075,0.171
				l-0.566-0.126l-0.656,0.227l-0.229-0.056l-0.756-0.27l-0.077-0.738l-0.301,0.28l0.266,0.216l-0.432-0.297l-0.341-0.207
				l-0.478,0.108l-0.273-0.388l0.539-0.287l-1.093-0.476l0.469-0.207l0.246,0.151l0.778-0.557l-0.418-0.055l0.21-0.421l-0.553,0.214
				l-0.106-0.494l0.323,0.154l0.107-0.829l0.131,0.476l0.117-0.34l0.04,0.403l0.562-0.116l-0.148-0.728l-0.535,0.279l-0.035-0.388
				l0.642-0.144l-0.431-0.126l0.059-0.486l0.188-0.43l0.332-0.036l0.247-1.07l0.491-0.036l0.053-0.334l-0.484,0.038l-0.041-0.405
				l0.576,0.035l-0.364-0.305l0.49-1.249l0.395-0.035l-0.248-0.234l0.396-0.027l0.045-0.343l-0.252-0.207l0.243,0.056l-0.274-0.378
				l1.182-0.514l-0.732-0.108l-0.229,0.279l0.301-0.44l-0.201-0.315l0.278,0.227l0.229-0.01l0.132-0.514l-0.189-0.305l-0.301,0.43
				l0.184-0.997l-1.406-0.045l-0.4,0.182l-0.661-0.182l0.06-0.332l-0.666-0.277l0.177,0.242l0.146-0.179l-0.736,0.053l0.283-0.431
				l-0.09-0.144l-0.287,0.34l-0.302-0.71l0.302-0.27l0.111,0.315l-0.035-0.405l0.283-0.421l0.27,0.134l0.126-0.34l0.553-0.199
				l0.656-0.144l0.089,0.171l0.063-0.189l1.546,0.053l0.562-0.133l0.022,0.169l0.392-0.126l0.18,0.234l1.748,0.36l0.342,1.035
				c0.229,0.987-0.306,1.833,0.05,2.768l-0.257,0.018l-0.152,1.08l-0.131,0.413l0.185,0.144l-0.791,1.294l0.319,0.053
				c-0.229,0.846-0.562,1.314-0.625,2.168l-0.332,0.035l-0.046,1.466l-0.237,0.018l-0.055,0.332l1.295-1.077l0.629-0.207
				l-0.095-0.252l0.903-0.962l0.248,0.133l0.112-0.818l0.615-0.377l0.323-1.005l0.378-0.451l0.862-0.458l-0.755-0.196l0.535-0.28
				l-0.252-0.234l0.122-0.343l0.201,0.244l0.131-0.342l-0.332-0.053l-0.028-0.405l0.324-0.098l-0.147-0.647l0.112,0.315
				l-0.023-0.413l0.307-0.181l0.201-1.574l1.869-0.071l0.949-0.395l0.094,0.314l0.639-0.136l0.288,0.388
				c0.148,1.05-0.063,2.4-0.446,3.55l-0.179,0.987l0.221,0.478l-0.334,0.106l0.36,0.458v0.829l-0.247,0.018
				c0,0.738,0.373,1.871-0.197,2.697l0.31,0.72l-0.306,0.35l0.372,0.458l-0.407-0.045l0.283,1.448l-0.581,0.126l0.526,0.368
				l-0.054,0.252l-0.27,0.665l-0.918-0.018l-0.533-0.682l-0.167-0.063l-0.323,0.188L428.487,56.997L428.487,56.997z"/>
			<path fill-rule="evenodd" clip-rule="evenodd" fill="#FFFFFF" d="M324.227,53.499l-0.431-0.297l0.018,0.251L324.227,53.499
				L324.227,53.499z M310.561,54.191l0.201,0.315l0.229-0.189l0.131-0.496L310.561,54.191L310.561,54.191z M309.675,53.363
				l0.313-0.27L309.675,53.363L309.675,53.363z M309.278,53.32l-0.27-0.234L309.278,53.32L309.278,53.32z M322.119,51.701
				L322.119,51.701L322.119,51.701z M318.007,52.285l0.324-0.116l-0.495-0.038L318.007,52.285L318.007,52.285z M315.311,52.169
				l0.054-0.244l1.47,0.045l2.026-0.252l0.396-0.116l0.186,0.242l1.037-0.171l0.077-0.242l0.974-0.09l-0.071,0.251l1.322,0.217
				l0.152-0.171l0.018,0.252l0.927,0.413l-0.229,0.171l0.588,0.126l0.203,0.396l-0.27-0.154l0.444,0.37l-0.086,0.917l-0.396,0.116
				l-0.413-0.053l-0.449,0.521l-0.81,0.144l-0.524-0.35l-0.046,0.413l-2.337,0.26l-0.111-0.232l-0.212,0.169l-1.394,0.027
				l-1.864,0.161l-1.326-0.143l0.139-0.413l-0.21,0.342l-1.317,0.098l-0.414-0.045l-0.498-0.287l-0.396,0.199l-0.112-0.325
				l-0.221,0.342l-0.266-0.297l-0.808-0.018l-0.896-0.01l-0.296-0.385l0.261-0.091l0.084,0.234l-0.305-0.71l-0.122,0.333
				l-0.597-0.118l-0.076-0.889l-0.415-0.035l-0.08-0.171l0.396-0.262l0.494,0.189l0.225-0.27l-0.184-0.224
				c1.511,0.01,1.918-0.125,3.163-0.161l-0.054,0.234l0.323-0.028l-0.175-0.224c0.738,0.036,0.715,0.106,1.563,0.126l-0.106-0.244
				L315.311,52.169L315.311,52.169z"/>
			<path fill-rule="evenodd" clip-rule="evenodd" fill="#FFFFFF" d="M598.784,34.048l0.307-0.259l-0.324,0.025L598.784,34.048
				L598.784,34.048z M595.438,33.995l0.448-0.433L595.438,33.995L595.438,33.995z M593.927,33.474L593.927,33.474L593.927,33.474z
				 M593.675,33.491l-0.265-0.234L593.675,33.491L593.675,33.491z M592.902,32.89l-0.22-0.388L592.902,32.89L592.902,32.89z
				 M591.963,32.474l0.239-0.018l-0.257-0.133L591.963,32.474L591.963,32.474z M605.36,32.62l-0.022,0.735l-0.302,0.27l-0.27-0.134
				c-1.15,0.889-2.319,0.549-4.336,0.836l-0.433-0.297l-1.285,0.196c-1.034,0-1.808,0.209-2.395-0.224l-0.377,0.28l-0.018-0.242
				l-0.721,0.225l0.073-0.182l-0.697-0.511l-0.773,0.468l0.046-0.325l-0.405-0.053l-0.132-0.479l-0.316-0.042l0.188,0.466
				l-1.241-0.315l-0.683-0.35l-0.038-0.322l0.692,0.27l-0.35-0.126l-0.116-0.566l-0.148,0.179l0.053-0.413l1.099-0.493l1.765-0.308
				l-0.126,0.333l0.602-0.377l0.189,0.144l0.715-0.295l0.831,0.098l0.715,0.018l0.912,0.098l1.052-0.098l1.134-0.171l1.757-0.458
				l0.521,0.36l-0.108-0.315l1.528,0.692l0.305-0.189l0.431,0.287l-0.214,0.35l0.27,0.227l0.131-0.333l0.3,0.62l-0.3,0.27
				l0.476,0.035l0.088,0.164H605.36L605.36,32.62z"/>
			<polygon fill-rule="evenodd" clip-rule="evenodd" fill="#FFFFFF" points="417.144,54.909 417.399,55.125 417.324,55.206 
				417.161,55.216 417.144,54.909 			"/>
			<path fill-rule="evenodd" clip-rule="evenodd" fill="#FFFFFF" d="M461.12,29.473l-0.31,2.077l-0.464,0.277l0.252,0.216
				c-0.611,1.015-1.173,2.49-2.49,2.669l-0.531,0.36l-0.602-0.28l0.018,0.245c-0.587-0.207-0.718,0.629-1.667,0.539l-0.688-0.503
				l0.378-0.441l-0.405,0.108v-0.161l-0.018-0.171l0.118-0.333l0.362-0.594l1.407-0.844l0.396-0.207l0.287-0.503
				c0.864,0.081,0.732-0.685,1.488-0.692l0.148-0.342C459.768,30.624,460.41,29.725,461.12,29.473L461.12,29.473z"/>
			<polygon fill-rule="evenodd" clip-rule="evenodd" fill="#FFFFFF" points="432.083,35.657 431.813,35.433 432.227,35.478 
				432.514,35.944 432.626,36.339 432.585,36.853 432.172,36.88 432.438,37.185 432.244,37.689 431.305,38.245 431.111,37.779 
				430.738,38.301 430.721,37.966 429.659,37.976 429.301,37.507 429.246,37.842 428.923,37.868 428.648,37.563 429.21,37.437 
				428.905,36.646 429.422,36.206 429.813,35.999 429.705,36.51 430.343,36.367 430.478,36.035 429.983,35.989 430.532,35.793 
				430.847,35.513 430.721,36.007 431.134,36.15 431.233,35.324 432.083,35.657 			"/>
		</g>
	</g>
</g>
</svg>
