<?xml version="1.0" encoding="utf-8"?>
<!-- Generator: Adobe Illustrator 22.1.0, SVG Export Plug-In . SVG Version: 6.00 Build 0)  -->
<svg version="1.1" id="Warstwa_1" xmlns="http://www.w3.org/2000/svg" xmlns:xlink="http://www.w3.org/1999/xlink" x="0px" y="0px"
	 viewBox="0 0 436.7 161.3" style="enable-background:new 0 0 436.7 161.3;" xml:space="preserve">
<style type="text/css">
	.st0{clip-path:url(#SVGID_2_);}
	.st1{fill:#010101;}
	.st2{fill:#3C3C3B;}
	.st3{clip-path:url(#SVGID_4_);}
	.st4{clip-path:url(#SVGID_6_);}
	.st5{clip-path:url(#SVGID_8_);}
	.st6{clip-path:url(#SVGID_10_);}
	.st7{clip-path:url(#SVGID_12_);}
</style>
<title>logo-antima</title>
<g>
	<defs>
		<rect id="SVGID_1_" width="436.7" height="161.3"/>
	</defs>
	<clipPath id="SVGID_2_">
		<use xlink:href="#SVGID_1_"  style="overflow:visible;"/>
	</clipPath>
	<g class="st0">
		<path class="st1" d="M369,159.1H67.7c-36.1,0-65.5-26.8-65.5-59.7V61.9C2.2,29,31.6,2.2,67.7,2.2H369c36.1,0,65.5,26.8,65.5,59.7
			v37.5C434.5,132.3,405.1,159.1,369,159.1z M67.7,2.7c-35.8,0-65,26.5-65,59.2v37.5c0,32.6,29.2,59.2,65,59.2H369
			c35.8,0,65-26.5,65-59.2V61.9c0-32.6-29.1-59.2-65-59.2H67.7z"/>
		<path class="st1" d="M130,26.7l-3-7.1c-0.2-0.6-0.5-1.2-0.6-1.9c-0.1,0.3-0.2,0.7-0.3,1c-0.1,0.3-0.2,0.6-0.3,0.8l-2.9,7.1
			L130,26.7z M135.8,33.5h-2.3c-0.2,0-0.5-0.1-0.6-0.2c-0.2-0.1-0.3-0.3-0.4-0.5l-1.8-4.3H122l-1.8,4.3c-0.2,0.4-0.6,0.6-1,0.6H117
			l7.9-18.3h3L135.8,33.5z"/>
		<path class="st1" d="M140.2,22.4c0.3-0.3,0.6-0.6,0.9-0.8c0.3-0.3,0.7-0.5,1.1-0.6c0.4-0.2,0.8-0.3,1.2-0.4
			c0.4-0.1,0.9-0.1,1.4-0.1c0.7,0,1.4,0.1,2,0.4c0.6,0.2,1.1,0.6,1.5,1c0.4,0.4,0.7,1,0.9,1.5c0.2,0.6,0.3,1.3,0.3,2v8.3h-2.7v-8.3
			c0-0.8-0.2-1.6-0.7-2.2c-0.6-0.6-1.3-0.8-2.1-0.8c-0.7,0-1.3,0.2-1.9,0.5c-0.6,0.3-1.2,0.7-1.7,1.2v9.5h-2.7v-13h1.6
			c0.3,0,0.6,0.2,0.7,0.5L140.2,22.4z"/>
		<path class="st1" d="M166.8,16.5c0,0.2-0.1,0.5-0.1,0.7c-0.1,0.2-0.2,0.4-0.4,0.5c-0.2,0.2-0.4,0.3-0.6,0.4c-0.5,0.2-1,0.2-1.4,0
			c-0.2-0.1-0.4-0.2-0.6-0.4c-0.2-0.2-0.3-0.3-0.4-0.5c-0.1-0.2-0.2-0.4-0.1-0.7c0-0.2,0.1-0.5,0.1-0.7c0.1-0.2,0.2-0.4,0.4-0.5
			c0.2-0.2,0.4-0.3,0.6-0.4c0.5-0.2,1-0.2,1.4,0c0.2,0.1,0.4,0.2,0.6,0.4c0.2,0.2,0.3,0.3,0.4,0.5C166.8,16,166.8,16.2,166.8,16.5
			 M166.2,33.5h-2.7v-11h-7.1v7.7c0,0.4,0.1,0.8,0.4,1.1c0.3,0.2,0.6,0.4,1,0.4c0.2,0,0.4,0,0.6-0.1c0.2-0.1,0.3-0.1,0.5-0.2
			l0.3-0.2c0.1-0.1,0.2-0.1,0.2-0.1c0.1,0,0.2,0,0.2,0.1l0.1,0.2l0.8,1.2c-0.5,0.4-1,0.7-1.6,0.9c-0.6,0.2-1.3,0.3-1.9,0.3
			c-1,0.1-1.9-0.3-2.6-0.9c-0.6-0.7-1-1.6-0.9-2.5v-7.8h-1.6c-0.1,0-0.3,0-0.4-0.1c-0.1-0.1-0.2-0.3-0.2-0.4v-1l2.3-0.3l0.6-3.9
			c0-0.1,0.1-0.3,0.2-0.3c0.1-0.1,0.3-0.1,0.4-0.1h1.4v4.4h9.8L166.2,33.5z"/>
		<path class="st1" d="M170.1,33.5v-13h1.6c0.3,0,0.6,0.2,0.7,0.5l0.2,1.2c0.5-0.6,1.1-1,1.7-1.4c0.7-0.4,1.4-0.6,2.2-0.5
			c0.8,0,1.6,0.2,2.3,0.7c0.6,0.5,1,1.2,1.3,1.9c0.2-0.4,0.5-0.9,0.8-1.2c0.3-0.3,0.7-0.6,1.1-0.8c0.4-0.2,0.8-0.4,1.3-0.5
			c0.4-0.1,0.9-0.2,1.4-0.1c0.7,0,1.4,0.1,2,0.3c0.6,0.2,1.1,0.5,1.5,0.9c0.4,0.4,0.7,1,0.9,1.5c0.2,0.7,0.3,1.4,0.3,2.1v8.3h-2.7
			v-8.3c0.1-0.8-0.2-1.6-0.7-2.2c-0.5-0.5-1.3-0.8-2-0.7c-0.4,0-0.8,0.1-1.1,0.2c-0.3,0.1-0.7,0.3-0.9,0.5c-0.3,0.3-0.5,0.6-0.6,0.9
			c-0.2,0.4-0.2,0.8-0.2,1.3v8.3h-2.7v-8.3c0.1-0.8-0.2-1.6-0.6-2.2c-0.5-0.5-1.2-0.8-1.9-0.7c-0.6,0-1.1,0.1-1.6,0.4
			c-0.5,0.3-1,0.7-1.4,1.1v9.6L170.1,33.5z"/>
		<path class="st1" d="M200.5,27.8c-0.9,0-1.9,0.1-2.8,0.2c-0.6,0.1-1.3,0.3-1.9,0.5c-0.4,0.2-0.7,0.4-1,0.7
			c-0.2,0.3-0.3,0.6-0.3,0.9c0,0.3,0,0.6,0.2,0.9c0.1,0.2,0.3,0.4,0.5,0.6c0.2,0.2,0.4,0.3,0.7,0.3c0.3,0.1,0.6,0.1,0.9,0.1
			c0.4,0,0.8,0,1.1-0.1c0.3-0.1,0.7-0.2,1-0.3c0.3-0.1,0.6-0.3,0.9-0.5c0.3-0.2,0.6-0.5,0.8-0.7L200.5,27.8z M192.6,22.4
			c0.8-0.7,1.6-1.2,2.6-1.6c1-0.3,2-0.5,3-0.5c0.7,0,1.5,0.1,2.1,0.4c0.6,0.2,1.1,0.6,1.6,1c0.4,0.4,0.8,1,1,1.6
			c0.2,0.6,0.3,1.3,0.3,2v8.3H202c-0.2,0-0.4,0-0.6-0.1c-0.2-0.1-0.3-0.3-0.3-0.5l-0.3-1.1c-0.3,0.3-0.7,0.6-1.1,0.8
			c-0.3,0.2-0.7,0.4-1.1,0.6c-0.4,0.2-0.8,0.3-1.2,0.4c-0.5,0.1-1,0.1-1.5,0.1c-0.5,0-1.1-0.1-1.6-0.2c-0.5-0.1-0.9-0.4-1.3-0.6
			c-0.4-0.3-0.7-0.7-0.9-1.1c-0.2-0.5-0.3-1-0.3-1.6c0-0.5,0.2-1,0.4-1.5c0.4-0.5,0.9-1,1.5-1.3c0.8-0.4,1.7-0.7,2.6-0.9
			c1.3-0.3,2.7-0.4,4-0.4v-1c0.1-0.8-0.2-1.6-0.7-2.2c-0.5-0.5-1.3-0.8-2-0.7c-0.5,0-1,0.1-1.5,0.2c-0.3,0.1-0.7,0.3-1,0.4
			c-0.3,0.2-0.5,0.3-0.8,0.5c-0.2,0.1-0.4,0.2-0.7,0.2c-0.2,0-0.3-0.1-0.5-0.1c-0.1-0.1-0.2-0.2-0.3-0.3L192.6,22.4z"/>
		<path class="st1" d="M224.6,18.2c-0.1,0.1-0.2,0.2-0.3,0.3c-0.1,0.1-0.3,0.1-0.4,0.1c-0.2,0-0.4-0.1-0.6-0.2
			c-0.2-0.1-0.5-0.3-0.8-0.5c-0.8-0.5-1.8-0.7-2.7-0.7c-0.5,0-1,0.1-1.5,0.2c-0.4,0.1-0.8,0.3-1.1,0.6c-0.3,0.2-0.5,0.5-0.7,0.9
			c-0.1,0.3-0.2,0.7-0.2,1.1c0,0.4,0.1,0.9,0.4,1.2c0.3,0.3,0.7,0.6,1.1,0.8c0.5,0.3,1,0.5,1.5,0.6l1.7,0.5c0.6,0.2,1.2,0.4,1.7,0.6
			c0.5,0.2,1,0.5,1.5,0.9c0.5,0.4,0.8,0.8,1.1,1.3c0.3,0.6,0.4,1.3,0.4,1.9c0,0.8-0.1,1.6-0.4,2.3c-0.3,0.7-0.8,1.3-1.3,1.9
			c-0.6,0.6-1.3,1-2.1,1.2c-0.9,0.3-1.9,0.5-2.8,0.5c-0.6,0-1.2-0.1-1.9-0.2c-0.6-0.1-1.1-0.3-1.7-0.5c-0.5-0.2-1-0.5-1.5-0.8
			c-0.5-0.3-0.9-0.6-1.3-1l0.9-1.3c0.1-0.1,0.2-0.2,0.3-0.3c0.1-0.1,0.3-0.1,0.4-0.1c0.2,0,0.5,0.1,0.7,0.3c0.2,0.2,0.6,0.4,1,0.6
			c0.4,0.2,0.9,0.5,1.3,0.6c0.6,0.2,1.2,0.3,1.9,0.3c0.6,0,1.1-0.1,1.6-0.2c0.4-0.1,0.9-0.3,1.2-0.6c0.3-0.3,0.6-0.6,0.7-1
			c0.2-0.4,0.3-0.9,0.3-1.3c0-0.5-0.1-0.9-0.4-1.3c-0.3-0.4-0.7-0.6-1.1-0.9c-0.5-0.2-1-0.4-1.5-0.6l-1.7-0.5
			c-0.6-0.2-1.2-0.4-1.7-0.6c-0.5-0.2-1.1-0.5-1.5-0.9c-0.5-0.4-0.8-0.9-1.1-1.4c-0.3-0.6-0.4-1.4-0.4-2.1c0-0.7,0.1-1.3,0.4-1.9
			c0.3-0.6,0.7-1.2,1.2-1.6c0.6-0.5,1.3-0.9,2-1.1c0.9-0.3,1.7-0.4,2.6-0.4c1,0,2.1,0.2,3.1,0.5c0.9,0.3,1.7,0.8,2.4,1.4L224.6,18.2
			z"/>
		<path class="st1" d="M231.2,30.3c0.4,0.5,0.9,0.9,1.4,1.1c0.5,0.2,1.1,0.3,1.7,0.3c1.1,0.1,2.2-0.4,2.9-1.2c0.7-1,1.1-2.3,1-3.6
			c0-0.7-0.1-1.4-0.2-2.1c-0.1-0.5-0.4-1-0.7-1.4c-0.3-0.4-0.6-0.7-1.1-0.8c-0.5-0.2-0.9-0.3-1.4-0.3c-0.7,0-1.4,0.1-2,0.5
			c-0.6,0.4-1.2,0.8-1.6,1.4L231.2,30.3z M231.1,22.5c0.3-0.3,0.6-0.6,0.9-0.9c0.3-0.3,0.7-0.5,1.1-0.7c0.4-0.2,0.8-0.3,1.2-0.4
			c0.5-0.1,0.9-0.2,1.4-0.2c0.7,0,1.5,0.1,2.2,0.4c0.6,0.3,1.2,0.7,1.7,1.3c0.5,0.6,0.9,1.3,1.1,2.1c0.3,0.9,0.4,1.9,0.4,2.8
			c0,0.9-0.1,1.8-0.4,2.7c-0.3,0.8-0.7,1.5-1.2,2.1c-0.5,0.6-1.2,1.1-1.9,1.4c-0.8,0.4-1.7,0.5-2.5,0.5c-0.7,0-1.5-0.1-2.1-0.4
			c-0.6-0.3-1.1-0.6-1.6-1.1v5.6h-2.7V20.6h1.6c0.3,0,0.6,0.2,0.7,0.5L231.1,22.5z"/>
		<path class="st1" d="M243.6,32c0-0.2,0-0.4,0.1-0.6c0.1-0.2,0.2-0.4,0.4-0.5c0.4-0.3,0.8-0.5,1.3-0.5c0.2,0,0.5,0,0.7,0.1
			c0.4,0.2,0.8,0.5,1,0.9c0.1,0.2,0.2,0.4,0.1,0.6c0,0.2,0,0.5-0.1,0.7c-0.1,0.2-0.2,0.4-0.4,0.5c-0.2,0.1-0.4,0.3-0.6,0.4
			c-0.2,0.1-0.5,0.1-0.7,0.1c-0.5,0-0.9-0.2-1.3-0.5c-0.2-0.2-0.3-0.3-0.4-0.5C243.7,32.5,243.7,32.3,243.6,32"/>
		<path class="st1" d="M267.4,21.6c0,0.2,0,0.4-0.1,0.5c-0.1,0.2-0.2,0.3-0.3,0.4l-7.4,9h7.5v2h-10.6v-1c0-0.1,0-0.3,0.1-0.4
			c0.1-0.2,0.2-0.3,0.3-0.5l7.4-9.1h-7.4v-1.9h10.5V21.6z"/>
		<path class="st1" d="M283.1,31.8c1.1,0.1,2.3-0.4,3-1.2c1.3-2.1,1.3-4.9,0-7c-0.7-0.9-1.9-1.3-3-1.2c-1.1-0.1-2.3,0.4-3,1.2
			c-1.3,2.1-1.3,4.9,0,7C280.8,31.4,281.9,31.9,283.1,31.8 M283.1,20.4c1,0,1.9,0.1,2.8,0.5c0.8,0.3,1.5,0.7,2.1,1.4
			c0.6,0.6,1.1,1.3,1.3,2.1c0.3,0.9,0.5,1.8,0.5,2.8c0,0.9-0.1,1.9-0.5,2.8c-0.3,0.8-0.7,1.5-1.3,2.1c-0.6,0.6-1.3,1-2.1,1.3
			c-1.8,0.6-3.8,0.6-5.6,0c-0.8-0.3-1.5-0.7-2.1-1.3c-0.6-0.6-1.1-1.3-1.4-2.1c-0.3-0.9-0.5-1.8-0.5-2.8c0-0.9,0.1-1.9,0.5-2.8
			c0.3-0.8,0.8-1.5,1.4-2.1c0.6-0.6,1.3-1.1,2.1-1.4C281.2,20.5,282.1,20.3,283.1,20.4"/>
		<path class="st1" d="M292.4,32c0-0.2,0-0.4,0.1-0.6c0.1-0.2,0.2-0.4,0.4-0.5c0.2-0.2,0.4-0.3,0.6-0.4c0.2-0.1,0.5-0.1,0.7-0.1
			c0.2,0,0.5,0,0.7,0.1c0.2,0.1,0.4,0.2,0.6,0.4c0.2,0.2,0.3,0.3,0.4,0.5c0.1,0.2,0.2,0.4,0.1,0.6c0,0.2,0,0.5-0.1,0.7
			c-0.3,0.6-1,1-1.7,1c-0.2,0-0.5,0-0.7-0.1c-0.2-0.1-0.4-0.2-0.6-0.4c-0.2-0.2-0.3-0.3-0.4-0.5C292.4,32.5,292.4,32.3,292.4,32"/>
		<path class="st1" d="M305.4,31.8c1.1,0.1,2.3-0.4,3-1.2c1.3-2.1,1.3-4.9,0-7c-0.7-0.9-1.9-1.3-3-1.2c-1.1-0.1-2.3,0.4-3,1.2
			c-1.3,2.1-1.3,4.9,0,7C303.1,31.4,304.2,31.9,305.4,31.8 M305.4,20.4c1,0,1.9,0.1,2.8,0.5c0.8,0.3,1.5,0.7,2.1,1.4
			c0.6,0.6,1.1,1.3,1.3,2.1c0.3,0.9,0.5,1.8,0.5,2.8c0,0.9-0.1,1.9-0.5,2.8c-0.3,0.8-0.7,1.5-1.3,2.1c-0.6,0.6-1.3,1.1-2.1,1.3
			c-1.8,0.6-3.8,0.6-5.6,0c-0.8-0.3-1.5-0.7-2.1-1.3c-0.6-0.6-1.1-1.3-1.4-2.1c-0.3-0.9-0.5-1.8-0.5-2.8c0-1,0.1-1.9,0.4-2.8
			c0.3-0.8,0.8-1.5,1.4-2.1c0.6-0.6,1.3-1.1,2.1-1.4C303.4,20.4,304.4,20.3,305.4,20.4"/>
		<path class="st1" d="M314.6,32c0-0.2,0-0.4,0.1-0.6c0.1-0.2,0.2-0.4,0.4-0.5c0.2-0.2,0.4-0.3,0.6-0.4c0.5-0.2,1-0.2,1.4,0
			c0.4,0.2,0.8,0.5,1,0.9c0.1,0.2,0.1,0.4,0.1,0.6c0,0.2,0,0.5-0.1,0.7c-0.1,0.2-0.2,0.4-0.4,0.5c-0.7,0.6-1.8,0.6-2.6,0
			c-0.2-0.2-0.3-0.3-0.4-0.5C314.7,32.5,314.7,32.3,314.6,32"/>
		<path class="st1" d="M64.6,63.4l1.5-11.7h0.6c0.2,0,0.4,0.1,0.4,0.3c0,0,0,0.1,0,0.1l-0.4,3.4c0.3-0.6,0.7-1.1,1.1-1.6
			c0.4-0.5,0.8-0.9,1.3-1.2c0.4-0.3,0.9-0.6,1.4-0.8c0.5-0.2,1-0.3,1.5-0.3c0.8-0.1,1.6,0.3,2.1,0.9c0.5,0.7,0.8,1.6,0.7,2.4v0.2
			c0,0.1,0,0.2,0,0.4s-0.1,0.5-0.1,0.8s-0.1,0.8-0.2,1.4s-0.2,1.4-0.3,2.3s-0.3,2-0.4,3.3h-1.2l0.9-7.5c0.1-0.3,0.1-0.7,0.1-1
			c0-0.6-0.1-1.3-0.5-1.8c-0.4-0.4-1-0.7-1.5-0.6c-0.5,0-1,0.1-1.4,0.3c-0.5,0.2-1,0.6-1.4,1c-0.5,0.4-0.9,0.9-1.3,1.5
			c-0.4,0.6-0.7,1.3-1,2l-0.8,6.2L64.6,63.4z"/>
		<path class="st1" d="M83.7,62.7c0.5,0,1-0.1,1.4-0.4c0.5-0.3,1-0.6,1.3-1.1c0.5-0.5,0.9-1.1,1.2-1.6c0.4-0.7,0.7-1.4,1-2.1
			l0.6-4.7c-0.5-0.2-1.1-0.2-1.6-0.2c-0.6,0-1.1,0.1-1.6,0.3c-0.5,0.2-1,0.4-1.5,0.7c-0.5,0.3-0.9,0.7-1.3,1.1
			c-0.4,0.4-0.7,0.9-1,1.4c-0.3,0.5-0.5,1.1-0.7,1.6c-0.2,0.6-0.2,1.2-0.2,1.7c0,0.9,0.2,1.7,0.6,2.5C82.3,62.4,83,62.7,83.7,62.7
			 M89.1,63.4h-0.6c-0.1,0-0.2,0-0.3-0.1c-0.1-0.1-0.1-0.2-0.1-0.3l0.4-3.7c-0.3,0.6-0.7,1.2-1.1,1.7c-0.3,0.5-0.8,0.9-1.2,1.3
			c-0.4,0.4-0.9,0.6-1.4,0.9c-0.5,0.2-1,0.3-1.5,0.3c-0.5,0-1-0.1-1.4-0.3c-0.4-0.2-0.7-0.5-1-0.8c-0.3-0.4-0.5-0.8-0.6-1.3
			c-0.1-0.5-0.2-1.1-0.2-1.7c0-0.7,0.1-1.4,0.3-2c0.2-0.7,0.5-1.3,0.8-1.9c0.7-1.2,1.6-2.2,2.8-2.9c0.6-0.4,1.2-0.6,1.8-0.9
			c0.6-0.2,1.3-0.3,2-0.3c0.5,0,0.9,0,1.4,0.1c0.5,0.1,0.9,0.2,1.3,0.4L89.1,63.4z"/>
		<path class="st1" d="M100,47.8c0,0.1,0,0.3-0.1,0.4c-0.1,0.1-0.1,0.2-0.2,0.3c-0.1,0.1-0.2,0.2-0.4,0.2c-0.1,0.1-0.3,0.1-0.4,0.1
			c-0.1,0-0.3,0-0.4-0.1c-0.1-0.1-0.2-0.1-0.3-0.2c-0.1-0.1-0.2-0.2-0.2-0.3c-0.1-0.1-0.1-0.3-0.1-0.4c0-0.1,0-0.3,0.1-0.4
			c0.1-0.1,0.1-0.2,0.2-0.3c0.1-0.1,0.2-0.2,0.3-0.2c0.1,0,0.3-0.1,0.4-0.1c0.1,0,0.3,0,0.4,0.1c0.1,0.1,0.2,0.1,0.4,0.2
			c0.1,0.1,0.2,0.2,0.2,0.3C100,47.5,100,47.6,100,47.8 M99.1,51.8l-1.8,13.1c0,0.4-0.2,0.8-0.3,1.1c-0.2,0.3-0.4,0.6-0.7,0.9
			c-0.3,0.3-0.6,0.5-1,0.6c-0.4,0.1-0.8,0.2-1.2,0.2c-0.2,0-0.4,0-0.6-0.1c-0.2,0-0.3-0.1-0.5-0.2l0.1-0.3c0-0.1,0.1-0.2,0.1-0.4
			c0-0.1,0.1-0.1,0.1-0.1c0.1,0,0.2,0,0.3,0c0.1,0,0.3,0.1,0.4,0c0.5,0,1.1-0.2,1.5-0.5c0.4-0.4,0.6-0.9,0.6-1.5l1.8-13.1H99.1z"/>
		<path class="st1" d="M105.7,61.5c0-0.1,0-0.1,0-0.2c0-0.1,0-0.2,0-0.3c0-0.1,0-0.3,0.1-0.5c0-0.2,0.1-0.5,0.1-0.9l0.9-6.6H105
			c-0.2,0-0.2-0.1-0.2-0.2l0.1-0.5l2-0.1l0.8-4.2c0-0.1,0.1-0.1,0.1-0.2c0.1-0.1,0.1-0.1,0.2-0.1h0.6l-0.6,4.4h3.6l-0.1,0.8h-3.6
			l-0.9,6.6c0,0.3-0.1,0.6-0.1,0.8s-0.1,0.4-0.1,0.5s0,0.2,0,0.3c0,0,0,0.1,0,0.1c0,0.4,0.1,0.8,0.4,1.1c0.3,0.2,0.6,0.4,1,0.3
			c0.3,0,0.5,0,0.8-0.1c0.2-0.1,0.4-0.2,0.6-0.3L110,62c0.1-0.1,0.1-0.1,0.2-0.1c0,0,0.1,0,0.1,0l0.1,0.1l0.2,0.5
			c-0.4,0.3-0.8,0.6-1.2,0.8c-0.5,0.2-1,0.3-1.4,0.3c-0.6,0-1.2-0.2-1.6-0.5C105.9,62.6,105.7,62.1,105.7,61.5"/>
		<path class="st1" d="M119.2,62.7c0.5,0,1-0.1,1.4-0.4c0.5-0.3,1-0.6,1.4-1.1c0.5-0.5,0.9-1.1,1.2-1.6c0.4-0.7,0.7-1.4,1-2.1
			l0.6-4.7c-0.5-0.2-1.1-0.2-1.6-0.2c-0.6,0-1.1,0.1-1.6,0.3c-0.5,0.2-1,0.4-1.5,0.7c-0.5,0.3-0.9,0.7-1.3,1.1
			c-0.4,0.4-0.7,0.9-1,1.4c-0.3,0.5-0.5,1.1-0.7,1.6c-0.2,0.6-0.2,1.2-0.2,1.7c0,0.9,0.2,1.7,0.6,2.5
			C117.9,62.4,118.6,62.7,119.2,62.7 M124.6,63.4H124c-0.1,0-0.2,0-0.3-0.1c-0.1-0.1-0.1-0.2-0.1-0.3l0.4-3.7
			c-0.3,0.6-0.7,1.2-1.1,1.7c-0.4,0.5-0.8,0.9-1.2,1.3c-0.4,0.4-0.9,0.6-1.4,0.9c-0.5,0.2-1,0.3-1.5,0.3c-0.5,0-1-0.1-1.4-0.3
			c-0.4-0.2-0.7-0.5-1-0.8c-0.3-0.4-0.5-0.8-0.6-1.3c-0.1-0.5-0.2-1.1-0.2-1.7c0-0.7,0.1-1.3,0.3-2c0.2-0.7,0.5-1.3,0.8-1.9
			c0.3-0.6,0.7-1.1,1.2-1.6c0.5-0.5,1-0.9,1.6-1.3c0.6-0.4,1.2-0.6,1.8-0.9c0.6-0.2,1.3-0.3,2-0.3c0.5,0,1,0,1.4,0.1
			c0.4,0.1,0.9,0.3,1.2,0.5L124.6,63.4z"/>
		<path class="st1" d="M141.1,46.7l-2.9,3c-0.1,0.1-0.3,0.2-0.5,0.2H137l2.2-2.8c0.1-0.1,0.2-0.2,0.3-0.3c0.1-0.1,0.3-0.1,0.4-0.1
			L141.1,46.7z M131.5,63.4l1.5-11.7h0.5c0.2,0,0.4,0.1,0.4,0.3c0,0,0,0.1,0,0.1l-0.4,3.4c0.3-0.6,0.7-1.1,1.2-1.6
			c0.4-0.5,0.8-0.9,1.3-1.2c0.4-0.3,0.9-0.6,1.4-0.8c0.5-0.2,1-0.3,1.5-0.3c0.8-0.1,1.6,0.3,2.1,0.9c0.5,0.7,0.8,1.6,0.7,2.4v0.2
			c0,0.1,0,0.2,0,0.4s-0.1,0.5-0.1,0.8s-0.1,0.8-0.2,1.4s-0.2,1.4-0.3,2.3s-0.3,2-0.4,3.3h-1.2l0.9-7.5c0-0.3,0.1-0.7,0.1-1
			c0-0.6-0.1-1.3-0.5-1.8c-0.4-0.4-1-0.7-1.5-0.6c-0.5,0-1,0.1-1.4,0.3c-0.5,0.2-1,0.6-1.4,1c-0.5,0.4-0.9,0.9-1.3,1.5
			c-0.4,0.6-0.8,1.3-1.1,2l-0.8,6.2L131.5,63.4z"/>
		<path class="st1" d="M155.3,53.2c-0.1,0.1-0.2,0.2-0.3,0.2c-0.1,0-0.2-0.1-0.3-0.1l-0.5-0.3c-0.2-0.1-0.5-0.2-0.8-0.3
			c-0.4-0.1-0.8-0.2-1.2-0.1c-0.4,0-0.8,0.1-1.2,0.2c-0.4,0.1-0.7,0.3-1,0.5c-0.3,0.2-0.5,0.5-0.7,0.8c-0.2,0.3-0.2,0.6-0.2,0.9
			c0,0.3,0.1,0.6,0.2,0.8c0.2,0.2,0.4,0.4,0.6,0.6c0.3,0.2,0.6,0.3,0.9,0.4l1,0.3c0.4,0.1,0.7,0.2,1,0.4c0.3,0.1,0.6,0.3,0.9,0.5
			c0.3,0.2,0.5,0.5,0.6,0.8c0.2,0.3,0.3,0.7,0.2,1c0,0.5-0.1,1-0.3,1.5c-0.2,0.5-0.5,0.9-0.9,1.2c-0.4,0.4-0.9,0.7-1.4,0.9
			c-0.6,0.2-1.2,0.3-1.9,0.3c-1.3,0.1-2.6-0.5-3.5-1.4l0.3-0.4c0-0.1,0.1-0.1,0.1-0.1c0.1,0,0.1-0.1,0.2-0.1c0.1,0,0.2,0.1,0.3,0.2
			c0.2,0.2,0.3,0.3,0.5,0.4c0.3,0.2,0.6,0.3,0.9,0.4c0.4,0.1,0.9,0.2,1.3,0.2c0.5,0,0.9-0.1,1.4-0.2c0.4-0.1,0.7-0.3,1.1-0.6
			c0.3-0.3,0.5-0.6,0.7-0.9c0.2-0.3,0.3-0.7,0.2-1.1c0-0.3-0.1-0.6-0.2-0.9c-0.2-0.2-0.4-0.4-0.6-0.6c-0.3-0.2-0.6-0.3-0.9-0.4
			l-1.1-0.4c-0.3-0.1-0.7-0.2-1-0.4c-0.3-0.1-0.6-0.3-0.9-0.5c-0.3-0.2-0.5-0.4-0.6-0.7c-0.2-0.3-0.2-0.7-0.2-1
			c0-0.5,0.1-0.9,0.3-1.3c0.2-0.4,0.5-0.8,0.9-1.1c0.4-0.3,0.9-0.6,1.4-0.8c1.2-0.4,2.4-0.4,3.6,0c0.5,0.2,1,0.5,1.4,0.9L155.3,53.2
			z"/>
		<path class="st1" d="M169.5,52.2c0,0.2-0.1,0.3-0.2,0.5l-8.5,9.9h7.1l-0.1,0.9h-8.5l0.1-0.4c0-0.1,0-0.2,0.1-0.2
			c0-0.1,0.1-0.2,0.2-0.2l8.5-9.9h-7l0.1-0.9h8.5L169.5,52.2z"/>
		<path class="st1" d="M180,52.4c-0.6,0-1.3,0.1-1.8,0.4c-0.5,0.3-1,0.6-1.5,1.1c-0.4,0.5-0.7,1-1,1.5c-0.3,0.6-0.5,1.2-0.7,1.8
			c1.1-0.1,2-0.2,2.8-0.4c0.7-0.1,1.3-0.3,2-0.5c0.5-0.1,0.9-0.3,1.3-0.5c0.3-0.2,0.6-0.3,0.8-0.6c0.2-0.2,0.3-0.4,0.4-0.6
			c0.1-0.2,0.1-0.4,0.1-0.6c0-0.2-0.1-0.4-0.1-0.5c-0.1-0.2-0.2-0.4-0.4-0.5c-0.2-0.2-0.5-0.3-0.7-0.4
			C180.7,52.5,180.4,52.4,180,52.4 M183.4,54c0,0.3,0,0.6-0.1,0.9c-0.1,0.3-0.3,0.6-0.5,0.8c-0.3,0.3-0.6,0.5-1,0.7
			c-0.5,0.3-1,0.5-1.6,0.6c-0.7,0.2-1.5,0.4-2.3,0.5c-0.9,0.1-1.9,0.3-3.1,0.4c0,0.1,0,0.3,0,0.5c0,0.2,0,0.3,0,0.5
			c-0.1,1,0.3,2,0.9,2.7c0.7,0.7,1.6,1.1,2.6,1c0.4,0,0.8,0,1.2-0.1c0.3-0.1,0.7-0.2,1-0.4c0.3-0.1,0.5-0.3,0.8-0.4
			c0.2-0.1,0.4-0.3,0.6-0.5l0.4-0.4c0.1-0.1,0.2-0.1,0.3-0.1c0.1,0,0.2,0,0.3,0.1l0.3,0.3c-0.4,0.4-0.8,0.7-1.2,1
			c-0.4,0.3-0.8,0.5-1.2,0.7c-0.4,0.2-0.8,0.3-1.2,0.4c-0.5,0.1-0.9,0.1-1.4,0.1c-0.6,0-1.3-0.1-1.9-0.3c-0.5-0.2-1-0.5-1.4-0.9
			c-0.4-0.4-0.7-0.9-0.9-1.5c-0.2-0.6-0.3-1.3-0.3-1.9c0-0.6,0.1-1.2,0.2-1.8c0.1-0.6,0.3-1.2,0.6-1.7c0.2-0.5,0.5-1.1,0.9-1.5
			c0.4-0.5,0.8-0.9,1.2-1.2c0.5-0.3,1-0.6,1.6-0.8c0.6-0.2,1.2-0.3,1.9-0.3c0.5,0,1.1,0.1,1.6,0.2c0.4,0.1,0.7,0.3,1,0.6
			c0.3,0.2,0.5,0.5,0.6,0.8C183.4,53.4,183.4,53.7,183.4,54"/>
		<path class="st1" d="M198.8,51.8l-1,7.4c0,0.3-0.1,0.7-0.1,1c0,0.6,0.1,1.3,0.5,1.8c0.4,0.4,0.9,0.7,1.5,0.6c0.5,0,1-0.1,1.4-0.3
			c0.5-0.2,1-0.6,1.4-0.9c0.5-0.4,0.9-0.9,1.3-1.5c0.4-0.6,0.8-1.3,1-1.9l0.8-6.2h1.2l-1.5,11.7h-0.6c-0.1,0-0.2,0-0.3-0.1
			c-0.1-0.1-0.1-0.2-0.1-0.3l0.4-3.3c-0.3,0.6-0.7,1.1-1.1,1.6c-0.4,0.5-0.8,0.9-1.3,1.2c-0.4,0.3-0.9,0.6-1.4,0.8
			c-0.5,0.2-1,0.3-1.5,0.3c-0.8,0.1-1.6-0.3-2.1-0.9c-0.5-0.7-0.8-1.6-0.7-2.5c0-0.1,0-0.2,0-0.2c0-0.1,0-0.2,0-0.4s0.1-0.5,0.1-0.8
			s0.1-0.8,0.2-1.4s0.2-1.4,0.3-2.3s0.3-2,0.4-3.3L198.8,51.8z"/>
		<path class="st1" d="M219.5,52.5c-0.5,0-1,0.1-1.5,0.4c-0.5,0.2-1,0.6-1.4,1c-0.5,0.5-0.9,1-1.3,1.6c-0.4,0.7-0.7,1.4-1,2.1
			l-0.5,3.3c0.2,0.3,0.4,0.5,0.6,0.8c0.2,0.2,0.5,0.4,0.7,0.5c0.3,0.1,0.5,0.2,0.8,0.3c0.3,0.1,0.6,0.1,0.9,0.1c0.5,0,1-0.1,1.5-0.3
			c0.5-0.2,0.9-0.5,1.3-0.8c0.4-0.4,0.7-0.8,1-1.2c0.6-0.9,1-1.9,1.2-3c0.1-0.5,0.2-1,0.2-1.6c0-0.9-0.2-1.7-0.6-2.4
			C220.9,52.8,220.2,52.4,219.5,52.5 M212.4,63.4l2.2-17h1.2l-1.2,9.3c0.3-0.6,0.7-1.2,1.1-1.7c0.4-0.5,0.8-0.9,1.3-1.3
			c0.4-0.4,0.9-0.6,1.4-0.8c0.5-0.2,1-0.3,1.5-0.3c0.5,0,1,0.1,1.5,0.3c0.4,0.2,0.7,0.5,1,0.8c0.3,0.4,0.5,0.8,0.6,1.3
			c0.1,0.6,0.2,1.1,0.2,1.7c0,0.6-0.1,1.2-0.2,1.8c-0.1,0.6-0.3,1.2-0.6,1.8c-0.2,0.6-0.6,1.1-0.9,1.6c-0.3,0.5-0.8,1-1.2,1.4
			c-0.5,0.4-1,0.7-1.5,0.9c-0.5,0.2-1.1,0.3-1.7,0.3c-0.7,0-1.4-0.1-2-0.5c-0.6-0.3-1.1-0.8-1.4-1.3l-0.2,1.3c0,0.1-0.1,0.2-0.1,0.3
			c-0.1,0.1-0.2,0.1-0.3,0.1L212.4,63.4z"/>
		<path class="st1" d="M234.2,52.4c-0.6,0-1.3,0.1-1.8,0.4c-0.5,0.3-1,0.6-1.4,1.1c-0.4,0.5-0.8,1-1.1,1.5c-0.3,0.6-0.5,1.2-0.6,1.8
			c1.1-0.1,2-0.2,2.8-0.4c0.7-0.1,1.3-0.3,2-0.5c0.5-0.1,0.9-0.3,1.3-0.5c0.3-0.2,0.5-0.4,0.8-0.6c0.2-0.2,0.3-0.4,0.4-0.6
			c0.1-0.2,0.1-0.4,0.1-0.6c0-0.2-0.1-0.4-0.1-0.5c-0.1-0.2-0.2-0.4-0.4-0.5c-0.2-0.2-0.5-0.3-0.7-0.4
			C235,52.5,234.7,52.4,234.2,52.4 M237.7,54c0,0.3,0,0.6-0.1,0.9c-0.1,0.3-0.3,0.6-0.5,0.8c-0.3,0.3-0.6,0.5-1,0.7
			c-0.5,0.3-1,0.5-1.6,0.6c-0.7,0.2-1.5,0.4-2.3,0.5c-0.9,0.1-1.9,0.3-3.1,0.4c0,0.1,0,0.3,0,0.5c0,0.2,0,0.3,0,0.5
			c-0.1,1,0.2,2,0.9,2.7c0.7,0.7,1.6,1.1,2.6,1c0.4,0,0.8,0,1.2-0.1c0.3-0.1,0.7-0.2,1-0.4c0.3-0.1,0.5-0.3,0.8-0.4
			c0.2-0.1,0.4-0.3,0.6-0.5l0.4-0.4c0.1-0.1,0.2-0.1,0.3-0.1c0.1,0,0.2,0,0.3,0.1l0.3,0.3c-0.4,0.4-0.8,0.7-1.2,1
			c-0.4,0.3-0.8,0.5-1.2,0.7c-0.4,0.2-0.8,0.3-1.2,0.4c-0.5,0.1-0.9,0.1-1.4,0.1c-0.6,0-1.3-0.1-1.9-0.3c-0.5-0.2-1-0.5-1.4-0.9
			c-0.4-0.4-0.7-0.9-0.9-1.5c-0.2-0.6-0.3-1.3-0.3-1.9c0-0.6,0.1-1.2,0.2-1.8c0.1-0.6,0.3-1.2,0.6-1.7c0.2-0.5,0.6-1.1,0.9-1.5
			c0.4-0.5,0.8-0.9,1.2-1.2c0.5-0.3,1-0.6,1.6-0.8c0.6-0.2,1.2-0.3,1.9-0.3c0.5,0,1.1,0.1,1.6,0.2c0.4,0.1,0.7,0.3,1,0.6
			c0.3,0.2,0.4,0.5,0.6,0.8C237.6,53.4,237.7,53.7,237.7,54"/>
		<path class="st1" d="M251.8,52.2c0,0.2-0.1,0.3-0.2,0.5l-8.5,9.9h7.1l-0.1,0.9h-8.5l0.1-0.4c0-0.1,0-0.2,0.1-0.2
			c0-0.1,0.1-0.2,0.2-0.2l8.5-9.9h-7l0.1-0.9h8.5L251.8,52.2z"/>
		<path class="st1" d="M263.4,52.5c-0.5,0-1,0.1-1.5,0.4c-0.5,0.3-1,0.6-1.4,1.1c-0.5,0.5-0.9,1-1.3,1.6c-0.4,0.7-0.8,1.4-1.1,2.1
			l-0.4,3.4c0.3,0.6,0.8,1,1.4,1.3c0.5,0.2,1.1,0.4,1.7,0.4c0.5,0,1-0.1,1.5-0.3c0.5-0.2,0.9-0.5,1.3-0.8c0.4-0.4,0.7-0.8,1-1.2
			c0.3-0.5,0.5-0.9,0.7-1.5c0.2-0.5,0.3-1,0.5-1.6c0.1-0.5,0.2-1,0.2-1.6c0-0.9-0.2-1.7-0.6-2.5C264.8,52.8,264.1,52.5,263.4,52.5
			 M255.7,67.6l2.1-15.8h0.5c0.3,0,0.5,0.1,0.5,0.4l-0.4,3.7c0.3-0.6,0.7-1.2,1.1-1.7c0.4-0.5,0.8-0.9,1.3-1.3
			c0.4-0.4,0.9-0.6,1.4-0.9c0.5-0.2,1-0.3,1.5-0.3c0.5,0,1,0.1,1.5,0.3c0.4,0.2,0.7,0.5,1,0.8c0.3,0.4,0.5,0.8,0.6,1.3
			c0.1,0.6,0.2,1.1,0.2,1.7c0,0.6-0.1,1.2-0.2,1.8c-0.1,0.6-0.3,1.2-0.6,1.8c-0.2,0.6-0.5,1.1-0.9,1.6c-0.4,0.5-0.8,1-1.2,1.4
			c-0.4,0.4-1,0.7-1.5,0.9c-0.5,0.2-1.1,0.3-1.7,0.3c-0.7,0-1.3-0.1-1.9-0.4c-0.6-0.3-1.1-0.7-1.4-1.2l-0.8,5.6L255.7,67.6z"/>
		<path class="st1" d="M276.1,47.8c0,0.1,0,0.3-0.1,0.4c-0.1,0.1-0.1,0.2-0.2,0.3c-0.1,0.1-0.2,0.2-0.4,0.2
			c-0.1,0.1-0.3,0.1-0.4,0.1c-0.1,0-0.3,0-0.4-0.1c-0.1-0.1-0.2-0.1-0.3-0.2c-0.1-0.1-0.2-0.2-0.2-0.3c-0.1-0.1-0.1-0.3-0.1-0.4
			c0-0.1,0-0.3,0.1-0.4c0.1-0.1,0.1-0.2,0.2-0.3c0.1-0.1,0.2-0.2,0.3-0.2c0.1-0.1,0.3-0.1,0.4-0.1c0.1,0,0.3,0,0.4,0.1
			c0.1,0.1,0.2,0.1,0.4,0.2c0.1,0.1,0.2,0.2,0.2,0.3C276,47.5,276.1,47.6,276.1,47.8 M275.1,51.8l-1.5,11.7h-1.2l1.6-11.6
			L275.1,51.8z"/>
		<path class="st1" d="M286.9,52.4c-0.6,0-1.3,0.1-1.8,0.4c-0.5,0.3-1,0.6-1.5,1.1c-0.4,0.5-0.8,1-1,1.5c-0.3,0.6-0.5,1.2-0.6,1.8
			c1.1-0.1,2-0.2,2.8-0.4c0.7-0.1,1.3-0.3,2-0.5c0.5-0.1,0.9-0.3,1.3-0.5c0.3-0.2,0.6-0.3,0.8-0.6c0.2-0.2,0.3-0.4,0.4-0.6
			c0.1-0.2,0.1-0.4,0.1-0.6c0-0.2-0.1-0.4-0.1-0.5c-0.1-0.2-0.2-0.4-0.4-0.5c-0.2-0.2-0.5-0.3-0.7-0.4
			C287.7,52.5,287.4,52.4,286.9,52.4 M290.4,54c0,0.3,0,0.6-0.1,0.9c-0.1,0.3-0.3,0.6-0.5,0.8c-0.3,0.3-0.6,0.5-1,0.7
			c-0.5,0.3-1,0.5-1.6,0.6c-0.7,0.2-1.5,0.4-2.3,0.5c-0.9,0.1-1.9,0.3-3.1,0.4c0,0.1,0,0.3,0,0.5c0,0.2,0,0.3,0,0.5
			c-0.1,1,0.3,2,0.9,2.7c0.7,0.7,1.6,1.1,2.6,1c0.4,0,0.8,0,1.2-0.1c0.3-0.1,0.7-0.2,1-0.4c0.3-0.1,0.5-0.3,0.8-0.4
			c0.2-0.1,0.4-0.3,0.6-0.5l0.4-0.4c0.1-0.1,0.2-0.1,0.3-0.1c0.1,0,0.2,0,0.3,0.1l0.3,0.3c-0.4,0.4-0.8,0.7-1.2,1
			c-0.4,0.3-0.8,0.5-1.2,0.7c-0.4,0.2-0.8,0.3-1.2,0.4c-0.5,0.1-0.9,0.1-1.4,0.1c-0.6,0-1.3-0.1-1.9-0.3c-0.5-0.2-1-0.5-1.4-0.9
			c-0.4-0.4-0.7-0.9-0.9-1.5c-0.2-0.6-0.3-1.3-0.3-1.9c0-0.6,0.1-1.2,0.2-1.8c0.1-0.6,0.3-1.2,0.6-1.7c0.2-0.5,0.5-1.1,0.9-1.5
			c0.4-0.5,0.8-0.9,1.2-1.2c0.5-0.3,1-0.6,1.6-0.8c0.6-0.2,1.2-0.3,1.9-0.3c0.5,0,1.1,0.1,1.6,0.2c0.4,0.1,0.7,0.3,1,0.6
			c0.3,0.2,0.5,0.5,0.6,0.8C290.4,53.4,290.4,53.7,290.4,54"/>
		<path class="st1" d="M302.9,62.5c-0.4,0.3-0.8,0.5-1.2,0.7c-0.4,0.2-0.8,0.3-1.2,0.4c-0.4,0.1-0.8,0.1-1.3,0.1
			c-0.6,0-1.3-0.1-1.9-0.4c-0.5-0.2-1-0.6-1.3-1c-0.4-0.4-0.6-0.9-0.8-1.5c-0.2-0.6-0.3-1.2-0.3-1.9c0-0.6,0.1-1.2,0.2-1.8
			c0.1-0.6,0.3-1.2,0.6-1.7c0.3-0.5,0.6-1.1,1-1.5c0.4-0.4,0.8-0.8,1.3-1.2c0.5-0.3,1-0.6,1.5-0.8c0.9-0.3,1.9-0.4,2.9-0.2
			c0.3,0.1,0.6,0.2,0.9,0.3c0.3,0.1,0.5,0.3,0.8,0.5c0.2,0.2,0.4,0.4,0.6,0.7l-0.4,0.4c-0.1,0.1-0.2,0.1-0.3,0.1
			c-0.1,0-0.2-0.1-0.3-0.2c-0.2-0.1-0.3-0.3-0.5-0.4c-0.3-0.2-0.5-0.3-0.8-0.4c-0.4-0.1-0.8-0.2-1.2-0.2c-0.7,0-1.4,0.2-2,0.5
			c-0.6,0.4-1.2,0.8-1.6,1.4c-0.5,0.6-0.8,1.3-1.1,2.1c-0.3,0.8-0.4,1.6-0.4,2.4c0,0.5,0.1,1,0.2,1.5c0.1,0.4,0.3,0.8,0.6,1.2
			c0.3,0.3,0.6,0.6,1,0.8c0.5,0.2,1,0.3,1.5,0.3c0.4,0,0.8,0,1.2-0.1c0.3-0.1,0.6-0.2,1-0.3c0.2-0.1,0.5-0.3,0.7-0.5
			c0.2-0.2,0.4-0.3,0.6-0.4l0.4-0.3c0.1-0.1,0.2-0.1,0.3-0.1c0.1,0,0.2,0,0.3,0.1l0.3,0.3C303.8,61.7,303.4,62.1,302.9,62.5"/>
		<path class="st1" d="M318.5,52.2c0,0.2-0.1,0.3-0.2,0.5l-8.5,9.9h7.1l-0.1,0.9h-8.5l0.1-0.4c0-0.1,0-0.2,0.1-0.2
			c0-0.1,0.1-0.2,0.2-0.2l8.5-9.9h-7l0.1-0.9h8.5L318.5,52.2z"/>
		<path class="st1" d="M328.9,52.4c-0.6,0-1.3,0.1-1.8,0.4c-0.5,0.3-1,0.6-1.4,1.1c-0.4,0.5-0.8,1-1.1,1.5c-0.3,0.6-0.4,1.2-0.6,1.8
			c1.1-0.1,2-0.2,2.8-0.4c0.7-0.1,1.3-0.3,2-0.5c0.5-0.1,0.9-0.3,1.3-0.5c0.3-0.2,0.6-0.3,0.8-0.6c0.2-0.2,0.3-0.4,0.4-0.6
			c0.1-0.2,0.1-0.4,0.1-0.6c0-0.2-0.1-0.4-0.1-0.5c-0.1-0.2-0.2-0.4-0.4-0.5c-0.2-0.2-0.5-0.3-0.7-0.4
			C329.7,52.5,329.4,52.4,328.9,52.4 M332.4,54c0,0.3,0,0.6-0.1,0.9c-0.1,0.3-0.3,0.6-0.5,0.8c-0.3,0.3-0.6,0.5-1,0.7
			c-0.5,0.3-1,0.5-1.6,0.6c-0.7,0.2-1.5,0.4-2.3,0.5c-0.9,0.1-1.9,0.3-3.1,0.4c0,0.1,0,0.3,0,0.5c0,0.2,0,0.3,0,0.5
			c-0.1,1,0.2,2,0.9,2.7c0.7,0.7,1.6,1.1,2.6,1c0.4,0,0.8,0,1.2-0.1c0.3-0.1,0.7-0.2,1-0.4c0.3-0.1,0.5-0.3,0.7-0.4
			c0.2-0.1,0.4-0.3,0.6-0.5l0.4-0.4c0.1-0.1,0.2-0.1,0.3-0.1c0.1,0,0.2,0,0.3,0.1l0.3,0.3c-0.4,0.4-0.8,0.7-1.2,1
			c-0.4,0.3-0.8,0.5-1.2,0.7c-0.4,0.2-0.8,0.3-1.2,0.4c-0.5,0.1-0.9,0.1-1.4,0.1c-0.6,0-1.3-0.1-1.9-0.3c-0.5-0.2-1-0.5-1.4-0.9
			c-0.4-0.4-0.7-0.9-0.9-1.5c-0.2-0.6-0.3-1.3-0.3-1.9c0-0.6,0.1-1.2,0.2-1.8c0.1-0.6,0.3-1.2,0.6-1.7c0.2-0.5,0.6-1.1,0.9-1.5
			c0.4-0.5,0.8-0.9,1.2-1.2c0.5-0.3,1-0.6,1.6-0.8c0.6-0.2,1.2-0.3,1.9-0.3c0.5,0,1.1,0.1,1.6,0.2c0.4,0.1,0.7,0.3,1,0.6
			c0.3,0.2,0.4,0.5,0.6,0.8C332.3,53.4,332.4,53.7,332.4,54"/>
		<path class="st1" d="M337.3,63.4l1.5-11.7h0.5c0.2,0,0.4,0.1,0.4,0.3c0,0,0,0.1,0,0.1l-0.4,3.4c0.3-0.6,0.7-1.1,1.2-1.6
			c0.4-0.5,0.8-0.9,1.3-1.2c0.4-0.3,0.9-0.6,1.4-0.8c0.5-0.2,1-0.3,1.5-0.3c0.8-0.1,1.6,0.3,2.1,0.9c0.5,0.7,0.8,1.6,0.7,2.4v0.2
			c0,0.1,0,0.2,0,0.4s0,0.5-0.1,0.8s-0.1,0.8-0.2,1.4s-0.2,1.4-0.3,2.3s-0.3,2-0.4,3.3h-1.2l0.9-7.5c0.1-0.3,0.1-0.7,0.1-1
			c0-0.6-0.1-1.3-0.5-1.8c-0.4-0.4-1-0.7-1.5-0.6c-0.5,0-1,0.1-1.4,0.3c-0.5,0.2-1,0.6-1.4,1c-0.5,0.4-0.9,0.9-1.3,1.5
			c-0.4,0.6-0.8,1.3-1.1,2l-0.8,6.2L337.3,63.4z"/>
		<path class="st1" d="M357.3,47.8c0,0.1,0,0.3-0.1,0.4c-0.1,0.1-0.1,0.2-0.2,0.3c-0.1,0.1-0.2,0.2-0.4,0.2
			c-0.1,0.1-0.3,0.1-0.4,0.1c-0.1,0-0.3,0-0.4-0.1c-0.1-0.1-0.2-0.1-0.3-0.2c-0.1-0.1-0.2-0.2-0.2-0.3c-0.1-0.1-0.1-0.3-0.1-0.4
			c0-0.1,0-0.3,0.1-0.4c0.1-0.1,0.1-0.2,0.2-0.3c0.1-0.1,0.2-0.2,0.3-0.2c0.1,0,0.3-0.1,0.4-0.1c0.1,0,0.3,0,0.4,0.1
			c0.1,0.1,0.2,0.1,0.4,0.2c0.1,0.1,0.2,0.2,0.2,0.3C357.2,47.5,357.3,47.6,357.3,47.8 M356.3,51.8l-1.5,11.7h-1.2l1.5-11.7H356.3z"
			/>
		<path class="st1" d="M365.3,62.7c0.5,0,1-0.1,1.4-0.4c0.5-0.3,0.9-0.6,1.3-1.1c0.5-0.5,0.9-1.1,1.2-1.6c0.4-0.7,0.7-1.4,1-2.1
			l0.6-4.7c-0.5-0.2-1.1-0.2-1.6-0.2c-0.6,0-1.1,0.1-1.7,0.3c-0.5,0.2-1,0.4-1.5,0.7c-0.5,0.3-0.9,0.7-1.3,1.1
			c-0.4,0.4-0.7,0.9-1,1.4c-0.3,0.5-0.5,1.1-0.7,1.6c-0.2,0.6-0.2,1.2-0.2,1.7c0,0.9,0.2,1.7,0.6,2.5
			C363.9,62.4,364.6,62.7,365.3,62.7 M370.6,63.4H370c-0.1,0-0.2,0-0.3-0.1c-0.1-0.1-0.1-0.2-0.1-0.3l0.4-3.7
			c-0.3,0.6-0.7,1.2-1,1.7c-0.4,0.5-0.8,0.9-1.2,1.3c-0.4,0.4-0.9,0.6-1.4,0.9c-0.5,0.2-1,0.3-1.5,0.3c-0.5,0-1-0.1-1.4-0.3
			c-0.4-0.2-0.7-0.5-1-0.8c-0.3-0.4-0.5-0.8-0.6-1.3c-0.1-0.5-0.2-1.1-0.2-1.7c0-0.7,0.1-1.3,0.3-2c0.2-0.7,0.5-1.3,0.8-1.9
			c0.3-0.6,0.7-1.1,1.2-1.6c0.9-1,2.1-1.7,3.4-2.1c0.6-0.2,1.3-0.3,2-0.3c0.5,0,1,0,1.4,0.1c0.5,0.1,0.9,0.2,1.3,0.4L370.6,63.4z"/>
		<path class="st2" d="M78.3,79.8c0-0.5-0.1-0.9-0.3-1.4c-0.2-0.4-0.4-0.8-0.8-1.1c-0.3-0.3-0.7-0.5-1.1-0.7
			c-0.5-0.2-0.9-0.3-1.4-0.3c-0.5,0-1,0.1-1.5,0.2c-0.4,0.2-0.8,0.4-1.2,0.7c-0.3,0.3-0.6,0.7-0.8,1c-0.2,0.4-0.3,0.9-0.3,1.4
			c0,0.5,0.1,0.9,0.3,1.4c0.2,0.4,0.4,0.7,0.7,1c0.3,0.3,0.7,0.5,1.1,0.7c0.5,0.2,1,0.2,1.5,0.2c0.6,0,1.1-0.1,1.6-0.3
			c0.4-0.2,0.8-0.4,1.2-0.8c0.3-0.3,0.6-0.6,0.7-1C78.2,80.6,78.3,80.2,78.3,79.8 M74.2,83.8c-0.6,0-1.2-0.1-1.7-0.3
			c-0.5-0.2-1-0.5-1.4-0.8c-0.4-0.4-0.7-0.8-0.9-1.2c-0.2-0.5-0.3-1.1-0.3-1.6c0-0.6,0.1-1.1,0.4-1.7c0.2-0.5,0.6-0.9,1-1.3
			c0.4-0.4,1-0.7,1.5-0.9c0.6-0.2,1.3-0.3,1.9-0.3c0.6,0,1.2,0.1,1.8,0.3c1.1,0.4,1.9,1.2,2.4,2.3c0.2,0.6,0.3,1.2,0.3,1.8
			c0,0.3,0,0.7-0.1,1c-0.1,0.3-0.2,0.7-0.4,1c-0.2,0.3-0.4,0.7-0.6,1s-0.5,0.7-0.8,1.1l-3.9,5.3c-0.1,0.2-0.3,0.2-0.5,0.2h-0.9
			l4.4-5.7c0.2-0.3,0.4-0.5,0.6-0.8s0.4-0.5,0.5-0.7c-0.4,0.4-0.9,0.8-1.5,1C75.5,83.6,74.9,83.8,74.2,83.8"/>
		<path class="st2" d="M91,82.7c0-1-0.1-1.9-0.4-2.9c-0.2-0.7-0.5-1.4-0.9-2c-0.4-0.5-0.8-0.9-1.4-1.1c-0.5-0.2-1.1-0.3-1.7-0.4
			c-0.6,0-1.1,0.1-1.6,0.4c-0.5,0.3-1,0.6-1.4,1.1c-0.5,0.6-0.8,1.2-1,2c-0.5,1.9-0.5,3.9,0,5.8c0.2,0.7,0.5,1.4,1,2
			c0.4,0.5,0.8,0.9,1.4,1.1c0.5,0.2,1.1,0.3,1.6,0.4c0.6,0,1.1-0.1,1.7-0.4c0.5-0.3,1-0.6,1.4-1.1c0.4-0.6,0.7-1.2,0.9-2
			C90.9,84.6,91,83.7,91,82.7 M92.1,82.7c0,1.1-0.1,2.1-0.4,3.2c-0.2,0.8-0.6,1.6-1.2,2.2c-0.5,0.6-1.1,1-1.7,1.3
			c-1.3,0.6-2.8,0.6-4.2,0c-0.7-0.3-1.2-0.7-1.7-1.3c-0.5-0.7-0.9-1.4-1.1-2.2c-0.6-2.1-0.6-4.3,0-6.3c0.2-0.8,0.6-1.6,1.1-2.2
			c0.5-0.6,1-1,1.7-1.3c1.3-0.6,2.9-0.6,4.2,0c0.7,0.3,1.3,0.7,1.7,1.3c0.5,0.7,0.9,1.4,1.2,2.2C91.9,80.5,92.1,81.6,92.1,82.7"/>
	</g>
</g>
<rect x="93.9" y="83.4" class="st2" width="4.9" height="0.8"/>
<g>
	<defs>
		<rect id="SVGID_3_" width="436.7" height="161.3"/>
	</defs>
	<clipPath id="SVGID_4_">
		<use xlink:href="#SVGID_3_"  style="overflow:visible;"/>
	</clipPath>
	<g class="st3">
		<path class="st2" d="M108.1,77.6c0-0.1,0-0.2,0-0.4c0-0.1,0-0.3,0-0.4l-6.5,8h6.4L108.1,77.6z M109,84.9h2.8v0.5
			c0,0.1,0,0.1-0.1,0.2c-0.1,0-0.1,0.1-0.2,0.1H109v4h-0.9v-4H101c-0.1,0-0.2,0-0.2-0.1c-0.1,0-0.1-0.1-0.1-0.2l-0.1-0.5l7.6-9.2
			h0.9L109,84.9z"/>
		<path class="st2" d="M122.6,82.7c0-1-0.1-1.9-0.4-2.9c-0.2-0.7-0.5-1.4-0.9-2c-0.4-0.5-0.8-0.9-1.4-1.1c-0.5-0.2-1.1-0.3-1.7-0.4
			c-0.6,0-1.1,0.1-1.6,0.4c-0.6,0.3-1,0.6-1.4,1.1c-0.4,0.6-0.8,1.2-0.9,2c-0.5,1.9-0.5,3.9,0,5.8c0.2,0.7,0.5,1.4,0.9,2
			c0.4,0.5,0.8,0.9,1.4,1.1c0.5,0.2,1.1,0.4,1.6,0.4c0.6,0,1.1-0.1,1.7-0.4c0.5-0.3,1-0.6,1.4-1.1c0.4-0.6,0.8-1.2,0.9-2
			C122.6,84.6,122.7,83.7,122.6,82.7 M123.7,82.7c0,1.1-0.1,2.1-0.4,3.2c-0.2,0.8-0.6,1.6-1.1,2.2c-0.5,0.6-1.1,1-1.7,1.3
			c-0.7,0.3-1.4,0.4-2.1,0.4c-0.7,0-1.4-0.1-2.1-0.4c-0.7-0.3-1.3-0.7-1.7-1.3c-0.5-0.6-0.9-1.4-1.2-2.2c-0.5-2.1-0.5-4.2,0-6.3
			c0.2-0.8,0.6-1.6,1.2-2.2c0.5-0.6,1-1,1.7-1.3c0.7-0.3,1.4-0.4,2.1-0.4c0.7,0,1.4,0.1,2.1,0.4c0.7,0.3,1.3,0.7,1.7,1.3
			c0.5,0.7,0.9,1.4,1.1,2.2C123.6,80.5,123.7,81.6,123.7,82.7"/>
		<path class="st2" d="M130.9,75.6c0.6,0,1.1,0.1,1.6,0.2c0.5,0.1,1,0.4,1.4,0.7c0.4,0.3,0.7,0.7,0.9,1.2c0.2,0.5,0.4,1.1,0.4,1.6
			c0,0.5-0.1,1-0.3,1.5c-0.2,0.5-0.4,0.9-0.7,1.3c-0.3,0.4-0.6,0.8-1,1.2l-1.2,1.2l-4.7,4.4l0.7-0.1c0.2,0,0.5,0,0.7,0h6.5
			c0.1,0,0.2,0,0.3,0.1c0.1,0.1,0.1,0.1,0.1,0.2v0.5h-9.7v-0.3c0-0.1,0-0.2,0.1-0.2c0-0.1,0.1-0.1,0.1-0.2l5.1-4.8
			c0.4-0.4,0.8-0.8,1.2-1.1c0.3-0.4,0.7-0.7,0.9-1.1c0.3-0.4,0.5-0.8,0.6-1.2c0.1-0.4,0.2-0.8,0.2-1.3c0-0.5-0.1-0.9-0.3-1.3
			c-0.2-0.4-0.4-0.7-0.7-0.9c-0.3-0.2-0.7-0.4-1.1-0.5c-0.4-0.1-0.8-0.2-1.3-0.2c-0.4,0-0.9,0.1-1.3,0.2c-0.4,0.1-0.7,0.3-1.1,0.6
			c-0.3,0.2-0.6,0.5-0.8,0.8c-0.2,0.3-0.3,0.7-0.4,1.1c0,0.2-0.2,0.3-0.4,0.3h-0.1l-0.5-0.1c0.1-0.6,0.3-1.1,0.5-1.6
			c0.3-0.5,0.6-0.8,1-1.2c0.4-0.3,0.9-0.6,1.4-0.7C129.7,75.7,130.3,75.6,130.9,75.6"/>
		<path class="st2" d="M144.7,82.5l4.4-2.1V81c0,0.1,0,0.1-0.1,0.2c0,0.1-0.1,0.1-0.2,0.1l-4.2,2.1v5.4h7.1v0.9h-8.2v-5.8l-2.1,1
			v-0.6c0-0.1,0.1-0.2,0.2-0.3l1.9-0.9v-7.3h1.1L144.7,82.5z"/>
		<path class="st2" d="M160.4,75.6l-2.3,2.5c0,0.1-0.1,0.1-0.2,0.1c-0.1,0-0.1,0-0.2,0h-0.6l1.7-2.3c0.1-0.1,0.1-0.2,0.2-0.2
			c0.1,0,0.3-0.1,0.4-0.1L160.4,75.6z M158,89c0.6,0,1.1-0.1,1.6-0.3c0.5-0.2,0.9-0.5,1.2-0.9c0.3-0.4,0.6-0.9,0.7-1.4
			c0.2-0.6,0.2-1.2,0.2-1.8c0-0.6-0.1-1.2-0.2-1.8c-0.1-0.5-0.4-1-0.7-1.4c-0.3-0.4-0.7-0.7-1.2-0.9c-1.1-0.4-2.2-0.4-3.3,0
			c-0.5,0.2-0.9,0.5-1.2,0.9c-0.3,0.4-0.6,0.9-0.7,1.4c-0.2,0.6-0.2,1.2-0.2,1.8c0,0.6,0.1,1.2,0.2,1.8c0.1,0.5,0.4,1,0.7,1.4
			c0.3,0.4,0.7,0.7,1.2,0.9C156.9,88.9,157.4,89,158,89 M158,79.7c0.7,0,1.4,0.1,2,0.4c0.6,0.2,1.1,0.6,1.5,1c0.4,0.5,0.7,1,0.9,1.6
			c0.4,1.3,0.4,2.8,0,4.1c-0.2,0.6-0.5,1.1-0.9,1.6c-0.4,0.4-1,0.8-1.5,1c-1.3,0.5-2.7,0.5-4.1,0c-0.6-0.2-1.1-0.6-1.5-1
			c-0.4-0.5-0.7-1-0.9-1.6c-0.4-1.3-0.4-2.8,0-4.1c0.2-0.6,0.5-1.1,0.9-1.6c0.4-0.4,1-0.8,1.5-1C156.6,79.8,157.3,79.7,158,79.7"/>
		<path class="st2" d="M169.1,89c0.7,0,1.3-0.2,1.9-0.5c0.6-0.4,1.1-0.8,1.5-1.4V82c-0.3-0.5-0.8-0.9-1.4-1.2
			c-0.5-0.2-1.1-0.4-1.7-0.4c-0.6,0-1.1,0.1-1.6,0.3c-0.5,0.2-0.9,0.5-1.2,0.9c-0.3,0.4-0.6,0.9-0.7,1.4c-0.2,0.6-0.2,1.2-0.2,1.8
			c-0.1,1.1,0.2,2.3,0.9,3.2C167.2,88.7,168.1,89,169.1,89 M172.9,89.6c-0.2,0-0.3-0.1-0.3-0.2c0,0,0,0,0,0l-0.1-1.5
			c-0.4,0.6-1,1.1-1.6,1.4c-0.6,0.4-1.4,0.5-2.1,0.5c-1.1,0.1-2.2-0.4-3-1.2c-0.8-1.1-1.2-2.4-1.1-3.7c0-0.7,0.1-1.4,0.3-2
			c0.2-0.6,0.5-1.1,0.9-1.6c0.4-0.5,0.9-0.8,1.4-1.1c0.6-0.3,1.3-0.4,2-0.4c0.6,0,1.3,0.1,1.9,0.4c0.5,0.3,1,0.6,1.4,1.1v-5.8h1
			v14.3L172.9,89.6z"/>
		<path class="st2" d="M182.7,75.6l-2.3,2.5c0,0.1-0.1,0.1-0.2,0.1c-0.1,0-0.1,0-0.2,0h-0.6l1.7-2.3c0.1-0.1,0.1-0.2,0.2-0.2
			c0.1-0.1,0.3-0.1,0.4-0.1L182.7,75.6z M184.1,80.3c0,0.1-0.1,0.3-0.1,0.4l-6.6,8.3h6.5v0.7h-7.7v-0.4c0-0.1,0.1-0.3,0.1-0.4
			l6.6-8.3h-6.5v-0.7h7.6L184.1,80.3z"/>
		<path class="st2" d="M186.1,88.8c0-0.2,0.1-0.4,0.3-0.6c0.2-0.2,0.4-0.3,0.7-0.2c0.3,0,0.5,0.1,0.7,0.3c0.2,0.2,0.3,0.5,0.2,0.8
			c0,0.3,0,0.6-0.1,0.8c-0.1,0.3-0.2,0.6-0.3,0.8c-0.1,0.3-0.3,0.5-0.5,0.8c-0.2,0.2-0.4,0.5-0.7,0.7l-0.2-0.1
			c-0.1,0-0.1-0.1-0.1-0.2c0,0,0-0.1,0-0.1l0.1-0.1c0.1-0.1,0.2-0.2,0.3-0.3c0.1-0.1,0.2-0.3,0.3-0.5c0.1-0.2,0.2-0.4,0.3-0.6
			c0.1-0.2,0.1-0.4,0.2-0.7h-0.1H187c-0.2,0-0.5-0.1-0.6-0.2C186.2,89.2,186.1,89,186.1,88.8"/>
		<path class="st2" d="M205.6,75.7v0.3c0,0.1-0.1,0.3-0.1,0.4l-9.5,12.3h9.6v0.8h-11.1v-0.4c0-0.1,0.1-0.2,0.1-0.3l9.6-12.4h-9.4
			v-0.8L205.6,75.7z"/>
		<path class="st2" d="M210.9,89.1c0.4,0,0.8,0,1.1-0.1c0.7-0.2,1.3-0.5,1.8-0.9c0.3-0.2,0.5-0.4,0.8-0.7v-2.5
			c-0.9,0-1.7,0.1-2.6,0.2c-0.6,0.1-1.2,0.2-1.8,0.5c-0.4,0.2-0.7,0.4-1,0.7c-0.2,0.3-0.3,0.6-0.3,0.9c0,0.3,0,0.6,0.2,0.9
			c0.1,0.2,0.3,0.4,0.5,0.6c0.2,0.2,0.4,0.3,0.7,0.3C210.4,89.1,210.7,89.1,210.9,89.1 M215.2,89.6c-0.2,0-0.4-0.1-0.4-0.3l-0.1-1.2
			c-0.3,0.3-0.6,0.5-0.9,0.7c-0.3,0.2-0.6,0.4-0.9,0.5c-0.3,0.1-0.7,0.3-1,0.3c-0.4,0.1-0.8,0.1-1.2,0.1c-0.3,0-0.7-0.1-1-0.1
			c-0.3-0.1-0.6-0.2-0.9-0.5c-0.3-0.2-0.5-0.5-0.6-0.8c-0.2-0.4-0.2-0.8-0.2-1.1c0-0.4,0.1-0.8,0.4-1.1c0.3-0.4,0.7-0.7,1.2-0.9
			c0.7-0.3,1.4-0.5,2.1-0.6c1-0.2,2-0.3,3.1-0.3v-1c0-0.7-0.2-1.5-0.6-2.1c-0.5-0.5-1.2-0.8-1.9-0.7c-0.4,0-0.9,0.1-1.3,0.2
			c-0.3,0.1-0.6,0.3-0.9,0.4c-0.2,0.1-0.4,0.3-0.6,0.4c-0.1,0.1-0.2,0.2-0.4,0.2c-0.1,0-0.3-0.1-0.3-0.2l-0.2-0.3
			c0.5-0.5,1.1-0.9,1.7-1.2c0.7-0.3,1.4-0.4,2.1-0.4c0.5,0,1,0.1,1.5,0.2c0.4,0.2,0.8,0.4,1.1,0.7c0.3,0.3,0.5,0.7,0.6,1.1
			c0.1,0.5,0.2,1,0.2,1.5v6.4L215.2,89.6z"/>
		<path class="st2" d="M225.7,81.2l-0.1,0.1c0,0-0.1,0-0.1,0c-0.1,0-0.2-0.1-0.3-0.1c-0.2-0.1-0.3-0.2-0.5-0.3
			c-0.2-0.1-0.5-0.2-0.8-0.3c-0.9-0.2-1.9-0.2-2.7,0.2c-0.5,0.2-0.9,0.5-1.2,0.9c-0.3,0.4-0.6,0.9-0.7,1.4c-0.2,0.6-0.3,1.2-0.2,1.8
			c0,0.6,0.1,1.2,0.2,1.8c0.2,0.5,0.4,1,0.8,1.3c0.3,0.4,0.7,0.6,1.1,0.8c0.5,0.2,1,0.3,1.5,0.3c0.4,0,0.9,0,1.3-0.2
			c0.3-0.1,0.6-0.2,0.9-0.4c0.2-0.1,0.4-0.2,0.5-0.4c0.1-0.1,0.2-0.1,0.3-0.2c0.1,0,0.2,0,0.2,0.1l0.3,0.3c-0.2,0.2-0.4,0.4-0.6,0.5
			c-0.3,0.2-0.6,0.3-0.9,0.5c-0.3,0.1-0.7,0.2-1,0.3c-0.4,0.1-0.8,0.1-1.1,0.1c-0.6,0-1.3-0.1-1.9-0.3c-0.5-0.2-1-0.6-1.4-1
			c-0.4-0.5-0.7-1-0.9-1.6c-0.2-0.7-0.4-1.4-0.3-2.1c0-0.7,0.1-1.4,0.3-2c0.2-0.6,0.5-1.1,0.9-1.6c0.4-0.4,0.9-0.8,1.5-1
			c0.6-0.2,1.3-0.4,2-0.4c0.6,0,1.2,0.1,1.8,0.3c0.5,0.2,1,0.5,1.4,0.8L225.7,81.2z"/>
		<path class="st2" d="M228.4,89.6V75.3h1v6.2c0.5-0.5,1-1,1.7-1.3c0.6-0.3,1.4-0.5,2.1-0.5c0.5,0,1,0.1,1.5,0.2
			c0.4,0.2,0.8,0.4,1.1,0.7c0.3,0.3,0.5,0.7,0.7,1.2c0.2,0.5,0.2,1,0.2,1.5v6.2h-1v-6.2c0-0.8-0.2-1.5-0.7-2.2
			c-0.5-0.6-1.3-0.8-2.1-0.8c-0.7,0-1.3,0.2-1.9,0.5c-0.6,0.3-1.2,0.8-1.6,1.4v7.3H228.4z"/>
		<path class="st2" d="M243.9,89c0.6,0,1.1-0.1,1.6-0.3c0.5-0.2,0.9-0.5,1.2-0.9c0.3-0.4,0.6-0.9,0.7-1.4c0.2-0.6,0.2-1.2,0.2-1.8
			c0-0.6-0.1-1.2-0.2-1.8c-0.1-0.5-0.4-1-0.7-1.4c-0.3-0.4-0.7-0.7-1.2-0.9c-1.1-0.4-2.2-0.4-3.3,0c-0.5,0.2-0.9,0.5-1.2,0.9
			c-0.3,0.4-0.6,0.9-0.7,1.4c-0.2,0.6-0.2,1.2-0.2,1.8c0,0.6,0.1,1.2,0.2,1.8c0.1,0.5,0.4,1,0.7,1.4c0.3,0.4,0.7,0.7,1.2,0.9
			C242.8,88.9,243.3,89,243.9,89 M243.9,79.7c0.7,0,1.4,0.1,2,0.4c0.6,0.2,1.1,0.6,1.5,1c0.4,0.5,0.7,1,0.9,1.6
			c0.4,1.3,0.4,2.8,0,4.1c-0.2,0.6-0.5,1.1-0.9,1.6c-0.4,0.4-0.9,0.8-1.5,1c-1.3,0.5-2.7,0.5-4.1,0c-0.6-0.2-1.1-0.6-1.5-1
			c-0.4-0.4-0.8-1-1-1.6c-0.4-1.3-0.4-2.8,0-4.1c0.2-0.6,0.6-1.1,1-1.6c0.4-0.4,0.9-0.8,1.5-1C242.5,79.8,243.2,79.7,243.9,79.7"/>
		<path class="st2" d="M255,89c0.7,0,1.3-0.2,1.9-0.5c0.6-0.4,1.1-0.8,1.5-1.4V82c-0.3-0.5-0.8-0.9-1.4-1.2
			c-0.5-0.2-1.1-0.4-1.7-0.4c-0.6,0-1.1,0.1-1.6,0.3c-0.5,0.2-0.9,0.5-1.2,0.9c-0.3,0.4-0.6,0.9-0.7,1.4c-0.2,0.6-0.2,1.2-0.2,1.8
			c-0.1,1.1,0.2,2.3,0.9,3.2C253.1,88.7,254.1,89,255,89 M258.9,89.6c-0.1,0-0.3-0.1-0.3-0.2c0,0,0,0,0,0l-0.1-1.5
			c-0.4,0.6-1,1.1-1.6,1.4c-0.6,0.4-1.4,0.5-2.1,0.5c-1.1,0-2.2-0.4-3-1.2c-0.8-1.1-1.2-2.4-1.1-3.7c0-0.7,0.1-1.4,0.3-2
			c0.2-0.6,0.5-1.1,0.9-1.6c0.4-0.5,0.9-0.8,1.4-1.1c0.6-0.3,1.3-0.4,2-0.4c0.6,0,1.3,0.1,1.9,0.4c0.5,0.3,1,0.6,1.4,1.1v-5.8h1
			v14.3L258.9,89.6z"/>
		<path class="st2" d="M263,89.6v-9.8h0.5c0.2,0,0.3,0.1,0.3,0.2l0.1,1.5c0.5-0.6,1-1,1.7-1.4c1.1-0.6,2.5-0.7,3.7-0.3
			c0.4,0.2,0.8,0.4,1.1,0.7c0.3,0.3,0.5,0.7,0.7,1.2c0.2,0.5,0.2,1,0.2,1.5v6.2h-1v-6.2c0-0.8-0.2-1.5-0.7-2.2
			c-0.5-0.6-1.3-0.8-2.1-0.8c-0.7,0-1.3,0.2-1.9,0.5c-0.6,0.3-1.1,0.8-1.6,1.4v7.3L263,89.6z"/>
		<path class="st2" d="M275.8,89.6h-1v-9.8h1V89.6z M276.2,76.5c0,0.1,0,0.2-0.1,0.3c-0.1,0.1-0.1,0.2-0.2,0.3
			c-0.1,0.1-0.2,0.1-0.3,0.2c-0.1,0-0.2,0.1-0.4,0.1c-0.1,0-0.2,0-0.4-0.1c-0.1,0-0.2-0.1-0.3-0.2c-0.2-0.2-0.3-0.4-0.3-0.6
			c0-0.1,0-0.2,0.1-0.3c0-0.1,0.1-0.2,0.2-0.3c0.1-0.1,0.2-0.1,0.3-0.2c0.1,0,0.2-0.1,0.4-0.1c0.1,0,0.3,0,0.4,0.1
			c0.1,0,0.2,0.1,0.3,0.2c0.1,0.1,0.2,0.2,0.2,0.3C276.2,76.3,276.2,76.4,276.2,76.5"/>
		<path class="st2" d="M282,89.1c0.4,0,0.8,0,1.1-0.1c0.3-0.1,0.7-0.2,1-0.4c0.3-0.1,0.6-0.3,0.8-0.5c0.3-0.2,0.5-0.4,0.8-0.7v-2.5
			c-0.9,0-1.7,0.1-2.6,0.2c-0.6,0.1-1.2,0.2-1.8,0.5c-0.4,0.2-0.7,0.4-1,0.7c-0.2,0.3-0.3,0.6-0.3,0.9c0,0.3,0,0.6,0.2,0.9
			c0.1,0.2,0.3,0.4,0.5,0.6c0.2,0.2,0.4,0.3,0.7,0.3C281.5,89.1,281.8,89.1,282,89.1 M286.3,89.6c-0.2,0-0.4-0.1-0.4-0.3l-0.1-1.2
			c-0.3,0.3-0.6,0.5-0.9,0.7c-0.3,0.2-0.6,0.4-0.9,0.5c-0.3,0.1-0.7,0.2-1,0.3c-0.4,0.1-0.8,0.1-1.2,0.1c-0.3,0-0.7-0.1-1-0.1
			c-0.3-0.1-0.6-0.2-0.9-0.5c-0.3-0.2-0.5-0.5-0.6-0.8c-0.2-0.4-0.3-0.8-0.2-1.1c0-0.4,0.1-0.8,0.4-1.1c0.3-0.4,0.7-0.7,1.2-0.9
			c0.7-0.3,1.4-0.5,2.1-0.6c1-0.2,2-0.3,3.1-0.3v-1c0-0.8-0.3-1.5-0.8-2.1c-0.5-0.5-1.2-0.8-1.9-0.7c-0.4,0-0.9,0.1-1.3,0.2
			c-0.3,0.1-0.6,0.2-0.9,0.4c-0.2,0.1-0.4,0.3-0.6,0.4c-0.1,0.1-0.2,0.2-0.4,0.2c-0.1,0-0.3-0.1-0.3-0.2l-0.2-0.3
			c0.5-0.5,1.1-0.9,1.7-1.2c0.7-0.3,1.4-0.4,2.1-0.4c0.5,0,1,0.1,1.5,0.2c0.4,0.2,0.8,0.4,1,0.7c0.3,0.3,0.5,0.7,0.6,1.1
			c0.1,0.5,0.2,1,0.2,1.5v6.4L286.3,89.6z"/>
		<path class="st2" d="M303.6,75.7v0.4c0,0.1,0,0.2,0,0.3c0,0.1-0.1,0.1-0.1,0.2l-6.9,12.6c-0.1,0.2-0.4,0.4-0.6,0.4h-0.7l6.9-12.6
			c0.1-0.2,0.2-0.3,0.3-0.5h-8.7c-0.1,0-0.1,0-0.2-0.1c-0.1,0-0.1-0.1-0.1-0.2v-0.6L303.6,75.7z"/>
		<path class="st2" d="M314.7,79.8c0-0.5-0.1-0.9-0.3-1.4c-0.2-0.4-0.4-0.8-0.7-1.1c-0.3-0.3-0.7-0.5-1.1-0.7
			c-0.5-0.2-0.9-0.3-1.4-0.3c-0.5,0-1,0.1-1.5,0.2c-0.4,0.2-0.8,0.4-1.2,0.7c-0.3,0.3-0.6,0.7-0.8,1c-0.2,0.4-0.3,0.9-0.3,1.4
			c0,0.5,0.1,0.9,0.3,1.4c0.2,0.4,0.4,0.7,0.7,1c0.3,0.3,0.7,0.5,1.1,0.7c0.5,0.2,1,0.2,1.5,0.2c0.5,0,1.1-0.1,1.6-0.3
			c0.4-0.2,0.9-0.4,1.2-0.8c0.3-0.3,0.5-0.6,0.7-1C314.6,80.6,314.7,80.2,314.7,79.8 M310.6,83.8c-0.6,0-1.2-0.1-1.7-0.3
			c-0.5-0.2-1-0.5-1.4-0.8c-0.4-0.4-0.7-0.8-0.9-1.2c-0.2-0.5-0.3-1.1-0.3-1.6c0-0.6,0.1-1.1,0.4-1.7c0.2-0.5,0.6-0.9,1-1.3
			c0.4-0.4,1-0.7,1.5-0.9c0.6-0.2,1.3-0.3,1.9-0.3c0.6,0,1.2,0.1,1.8,0.3c0.5,0.2,1,0.5,1.4,0.9c0.4,0.4,0.7,0.9,0.9,1.4
			c0.2,0.6,0.3,1.2,0.3,1.8c0,0.3,0,0.7-0.1,1c-0.1,0.3-0.2,0.7-0.4,1c-0.2,0.3-0.4,0.7-0.6,1c-0.2,0.3-0.5,0.7-0.8,1.1l-3.9,5.3
			c-0.1,0.2-0.3,0.2-0.5,0.2h-0.9l4.4-5.7c0.2-0.3,0.4-0.5,0.6-0.8s0.4-0.5,0.5-0.7c-0.4,0.4-0.9,0.8-1.5,1
			C311.9,83.6,311.3,83.8,310.6,83.8"/>
	</g>
</g>
<rect x="323" y="75.4" class="st2" width="1" height="14.3"/>
<g>
	<defs>
		<rect id="SVGID_5_" width="436.7" height="161.3"/>
	</defs>
	<clipPath id="SVGID_6_">
		<use xlink:href="#SVGID_5_"  style="overflow:visible;"/>
	</clipPath>
	<g class="st4">
		<path class="st2" d="M331.8,89c0.6,0,1.1-0.1,1.6-0.3c0.5-0.2,0.9-0.5,1.2-0.9c0.3-0.4,0.6-0.9,0.7-1.4c0.2-0.6,0.2-1.2,0.2-1.8
			c0-0.6-0.1-1.2-0.2-1.8c-0.1-0.5-0.4-1-0.7-1.4c-0.3-0.4-0.7-0.7-1.2-0.9c-1.1-0.4-2.2-0.4-3.3,0c-0.5,0.2-0.9,0.5-1.2,0.9
			c-0.3,0.4-0.6,0.9-0.7,1.4c-0.2,0.6-0.2,1.2-0.2,1.8c0,0.6,0.1,1.2,0.2,1.8c0.1,0.5,0.4,1,0.7,1.4c0.3,0.4,0.7,0.7,1.2,0.9
			C330.6,88.9,331.2,89,331.8,89 M331.8,79.7c0.7,0,1.4,0.1,2,0.4c0.6,0.2,1.1,0.6,1.5,1c0.4,0.5,0.7,1,0.9,1.6
			c0.4,1.3,0.4,2.8,0,4.1c-0.2,0.6-0.5,1.1-0.9,1.6c-0.4,0.4-0.9,0.8-1.5,1c-1.3,0.5-2.7,0.5-4.1,0c-0.6-0.2-1.1-0.6-1.5-1
			c-0.4-0.4-0.8-1-1-1.6c-0.4-1.3-0.4-2.8,0-4.1c0.2-0.6,0.6-1.1,1-1.6c0.4-0.4,0.9-0.8,1.5-1C330.3,79.8,331,79.7,331.8,79.7"/>
		<path class="st2" d="M340.3,75.3V84h0.5c0.1,0,0.2,0,0.3,0c0.1,0,0.2-0.1,0.3-0.2l4.2-3.7c0.1-0.1,0.2-0.1,0.2-0.2
			c0.1,0,0.2-0.1,0.3-0.1h0.9l-4.7,4.1l-0.2,0.2c-0.1,0.1-0.1,0.1-0.2,0.1c0.1,0,0.2,0.1,0.3,0.2l0.2,0.2l4.9,4.9h-0.9
			c-0.1,0-0.2,0-0.3,0c-0.1,0-0.2-0.1-0.2-0.2l-4.4-4.4c-0.1-0.1-0.2-0.2-0.3-0.2c-0.1-0.1-0.3-0.1-0.5-0.1h-0.5v4.9h-1V75.3H340.3z
			"/>
		<path class="st2" d="M349.1,88.9c0-0.1,0-0.2,0.1-0.4c0-0.1,0.1-0.2,0.2-0.3c0.1-0.1,0.2-0.1,0.3-0.2c0.1-0.1,0.3-0.1,0.4-0.1
			c0.1,0,0.3,0,0.4,0.1c0.1,0,0.2,0.1,0.3,0.2c0.1,0.1,0.2,0.2,0.2,0.3c0,0.1,0.1,0.2,0.1,0.4c0,0.1,0,0.2-0.1,0.4
			c-0.1,0.1-0.1,0.2-0.2,0.3c-0.1,0.1-0.2,0.1-0.3,0.2c-0.1,0-0.2,0.1-0.4,0.1c-0.3,0-0.5-0.1-0.7-0.3
			C349.2,89.4,349.1,89.1,349.1,88.9"/>
		<path class="st2" d="M364.5,77.6c0-0.1,0-0.2,0-0.4c0-0.1,0-0.3,0-0.4l-6.5,8h6.4L364.5,77.6z M365.4,84.9h2.8v0.5
			c0,0.1,0,0.1-0.1,0.2c-0.1,0-0.1,0.1-0.2,0.1h-2.5v4h-0.9v-4h-7.1c-0.1,0-0.2,0-0.2-0.1c-0.1,0-0.1-0.1-0.1-0.2l-0.1-0.5l7.6-9.2
			h0.9L365.4,84.9z"/>
		<path class="st2" d="M53.3,102.7c0-0.5-0.1-0.9-0.3-1.4c-0.2-0.4-0.4-0.8-0.7-1.1c-0.3-0.3-0.7-0.5-1.1-0.7
			c-0.5-0.2-0.9-0.3-1.4-0.3c-0.5,0-1,0.1-1.5,0.2c-0.4,0.2-0.8,0.4-1.2,0.7c-0.3,0.3-0.6,0.6-0.8,1c-0.2,0.4-0.3,0.9-0.3,1.4
			c0,0.5,0.1,0.9,0.3,1.4c0.2,0.4,0.4,0.7,0.7,1c0.3,0.3,0.7,0.5,1.1,0.7c0.5,0.2,1,0.2,1.4,0.2c0.5,0,1.1-0.1,1.6-0.3
			c0.4-0.2,0.9-0.4,1.2-0.8c0.3-0.3,0.5-0.6,0.7-1C53.2,103.4,53.3,103,53.3,102.7 M49.2,106.6c-0.6,0-1.2-0.1-1.7-0.3
			c-0.5-0.2-1-0.4-1.4-0.8c-0.4-0.4-0.7-0.8-0.9-1.3c-0.2-0.5-0.3-1.1-0.3-1.6c0-0.6,0.1-1.1,0.4-1.7c0.2-0.5,0.6-0.9,1-1.3
			c0.4-0.4,1-0.7,1.5-0.9c0.6-0.2,1.3-0.3,1.9-0.3c0.6,0,1.2,0.1,1.8,0.3c0.5,0.2,1,0.5,1.4,0.9c0.4,0.4,0.7,0.9,0.9,1.4
			c0.2,0.6,0.3,1.2,0.3,1.8c0,0.3,0,0.7-0.1,1c-0.1,0.3-0.2,0.7-0.4,1c-0.2,0.3-0.4,0.7-0.6,1s-0.5,0.7-0.8,1.1l-3.9,5.3
			c-0.1,0.2-0.3,0.2-0.5,0.2h-1l4.4-5.7c0.2-0.3,0.4-0.5,0.6-0.8s0.3-0.5,0.5-0.7c-0.4,0.4-0.9,0.8-1.5,1
			C50.4,106.5,49.8,106.6,49.2,106.6"/>
		<path class="st2" d="M65.7,99.1c0,0.1-0.1,0.2-0.1,0.3c-0.1,0.1-0.3,0.1-0.4,0.1h-5.4l-0.9,4.6c0.4-0.1,0.9-0.2,1.3-0.2
			c0.4,0,0.8-0.1,1.2-0.1c0.7,0,1.4,0.1,2.1,0.3c0.6,0.2,1.1,0.5,1.5,0.9c0.4,0.4,0.7,0.8,0.9,1.3c0.4,1.2,0.4,2.5-0.1,3.6
			c-0.3,0.6-0.6,1.1-1.1,1.5c-0.5,0.4-1,0.7-1.6,0.9c-0.6,0.2-1.3,0.3-2,0.3c-0.4,0-0.8,0-1.2-0.1c-0.4-0.1-0.7-0.2-1.1-0.3
			c-0.3-0.1-0.6-0.2-0.9-0.4c-0.3-0.1-0.5-0.3-0.7-0.5l0.3-0.4c0.1-0.1,0.2-0.2,0.3-0.1c0.1,0,0.3,0.1,0.4,0.1
			c0.2,0.1,0.4,0.2,0.7,0.3c0.3,0.1,0.7,0.2,1,0.3c0.4,0.1,0.9,0.2,1.3,0.1c0.6,0,1.1-0.1,1.6-0.3c0.5-0.2,0.9-0.4,1.3-0.8
			c0.4-0.3,0.7-0.7,0.9-1.2c0.2-0.5,0.3-1.1,0.3-1.6c0-0.5-0.1-0.9-0.2-1.4c-0.2-0.4-0.4-0.8-0.7-1.1c-0.4-0.3-0.8-0.5-1.2-0.7
			c-0.6-0.2-1.2-0.3-1.7-0.2c-0.4,0-0.9,0-1.3,0.1c-0.5,0.1-1,0.2-1.4,0.3l-0.7-0.2l1.2-6.2h6.8L65.7,99.1z"/>
	</g>
</g>
<rect x="68.8" y="106.3" class="st2" width="4.9" height="0.8"/>
<g>
	<defs>
		<rect id="SVGID_7_" width="436.7" height="161.3"/>
	</defs>
	<clipPath id="SVGID_8_">
		<use xlink:href="#SVGID_7_"  style="overflow:visible;"/>
	</clipPath>
	<g class="st5">
		<path class="st2" d="M85.3,105.6c0-1-0.1-2-0.4-2.9c-0.2-0.7-0.5-1.4-0.9-2c-0.4-0.5-0.8-0.9-1.4-1.1c-0.5-0.2-1.1-0.3-1.7-0.4
			c-0.6,0-1.1,0.1-1.6,0.4c-0.5,0.2-1,0.6-1.4,1.1c-0.4,0.6-0.8,1.3-0.9,2c-0.2,0.9-0.4,1.9-0.4,2.9c0,1,0.1,1.9,0.4,2.9
			c0.2,0.7,0.5,1.4,0.9,2c0.4,0.5,0.8,0.9,1.4,1.1c0.5,0.2,1.1,0.4,1.6,0.4c0.6,0,1.1-0.1,1.7-0.4c0.5-0.3,1-0.6,1.4-1.1
			c0.4-0.6,0.8-1.2,0.9-2C85.2,107.5,85.3,106.6,85.3,105.6 M86.4,105.6c0,1.1-0.1,2.1-0.4,3.2c-0.2,0.8-0.6,1.6-1.1,2.2
			c-0.5,0.6-1.1,1-1.7,1.3c-1.3,0.6-2.9,0.6-4.2,0c-0.7-0.3-1.2-0.7-1.7-1.3c-0.5-0.7-0.9-1.4-1.1-2.2c-0.6-2.1-0.6-4.3,0-6.3
			c0.2-0.8,0.6-1.6,1.1-2.2c0.5-0.6,1-1,1.7-1.3c1.3-0.6,2.8-0.6,4.2,0c0.7,0.3,1.3,0.7,1.7,1.3c0.5,0.7,0.9,1.4,1.1,2.2
			C86.2,103.5,86.4,104.5,86.4,105.6"/>
		<path class="st2" d="M98.5,98.7v0.4c0,0.1,0,0.2,0,0.3c0,0.1-0.1,0.2-0.1,0.2l-6.9,12.6c-0.1,0.2-0.4,0.4-0.6,0.4h-0.7l6.9-12.6
			c0.1-0.2,0.2-0.3,0.3-0.5h-8.7c-0.1,0-0.1,0-0.2-0.1c-0.1,0-0.1-0.1-0.1-0.2v-0.6L98.5,98.7z"/>
		<path class="st2" d="M106,98.5c0.6,0,1.1,0.1,1.6,0.2c0.5,0.1,0.9,0.4,1.3,0.7c0.4,0.3,0.7,0.7,0.9,1.1c0.4,0.9,0.5,1.9,0.1,2.7
			c-0.1,0.4-0.4,0.7-0.6,1c-0.3,0.3-0.6,0.5-0.9,0.7c-0.4,0.2-0.8,0.3-1.2,0.4c0.9,0.1,1.8,0.5,2.5,1.2c0.6,0.6,0.9,1.4,0.8,2.2
			c0,0.6-0.1,1.1-0.4,1.6c-0.2,0.5-0.6,0.9-1,1.2c-0.5,0.4-1,0.7-1.5,0.8c-0.6,0.2-1.3,0.3-1.9,0.3c-0.7,0-1.5-0.1-2.1-0.3
			c-0.5-0.2-1-0.5-1.4-0.8c-0.4-0.3-0.7-0.7-0.9-1.1c-0.2-0.4-0.4-0.8-0.5-1.2l0.4-0.2c0.1,0,0.2,0,0.2,0c0.1,0,0.1,0,0.2,0
			c0.1,0,0.1,0.1,0.2,0.2l0.1,0.2c0,0.1,0.1,0.3,0.2,0.4c0.1,0.2,0.2,0.4,0.3,0.5c0.1,0.2,0.3,0.4,0.5,0.6c0.2,0.2,0.4,0.4,0.7,0.5
			c0.3,0.2,0.6,0.3,0.9,0.4c0.4,0.1,0.8,0.1,1.2,0.1c0.6,0,1.1-0.1,1.7-0.3c0.4-0.2,0.9-0.4,1.2-0.7c0.3-0.3,0.6-0.6,0.7-1
			c0.2-0.3,0.2-0.7,0.2-1.1c0-0.4-0.1-0.8-0.2-1.2c-0.1-0.4-0.4-0.7-0.7-1c-0.4-0.3-0.9-0.5-1.3-0.6c-0.7-0.2-1.4-0.2-2.1-0.2v-0.7
			c0.6,0,1.2-0.1,1.7-0.2c0.4-0.1,0.9-0.3,1.2-0.6c0.3-0.2,0.6-0.5,0.8-0.9c0.2-0.4,0.3-0.8,0.2-1.2c0-0.4-0.1-0.9-0.3-1.3
			c-0.2-0.3-0.4-0.7-0.7-0.9c-0.3-0.2-0.6-0.4-1-0.5c-0.4-0.1-0.8-0.2-1.2-0.2c-0.4,0-0.9,0.1-1.3,0.2c-0.4,0.1-0.7,0.3-1.1,0.5
			c-0.6,0.5-1.1,1.2-1.2,2c0,0.2-0.2,0.3-0.4,0.3h-0.1l-0.5-0.1c0.1-0.6,0.3-1.1,0.5-1.6c0.2-0.5,0.6-0.9,1-1.2
			c0.4-0.3,0.9-0.6,1.4-0.7C104.9,98.6,105.5,98.5,106,98.5"/>
		<path class="st2" d="M124.6,111.9c0.5,0,1,0,1.4-0.1c0.4,0,0.8-0.1,1.2-0.2c0.4-0.1,0.7-0.2,1.1-0.4c0.3-0.1,0.7-0.3,1-0.5V107
			h-2.9c-0.1,0-0.1,0-0.2-0.1c-0.1,0-0.1-0.1-0.1-0.2v-0.6h4.2v5c-0.4,0.2-0.8,0.5-1.2,0.6c-0.4,0.2-0.8,0.4-1.3,0.5
			c-0.5,0.1-1,0.2-1.5,0.3c-0.6,0.1-1.2,0.1-1.7,0.1c-1,0-2-0.2-3-0.5c-0.9-0.3-1.6-0.8-2.3-1.4c-0.7-0.6-1.2-1.4-1.5-2.2
			c-0.7-1.9-0.7-4,0-5.8c0.3-0.8,0.8-1.6,1.5-2.2c0.7-0.6,1.5-1.1,2.4-1.4c1-0.3,2.1-0.5,3.1-0.5c0.5,0,1.1,0,1.6,0.1
			c0.5,0.1,0.9,0.2,1.4,0.3c0.4,0.1,0.8,0.3,1.2,0.5c0.3,0.2,0.7,0.5,1,0.7l-0.3,0.4c-0.1,0.1-0.2,0.2-0.3,0.1c-0.1,0-0.1,0-0.2,0
			c-0.2-0.1-0.3-0.2-0.5-0.3c-0.3-0.2-0.5-0.3-0.8-0.5c-1-0.4-2.1-0.6-3.2-0.6c-0.9,0-1.8,0.1-2.6,0.4c-0.7,0.3-1.4,0.7-2,1.2
			c-0.6,0.6-1,1.2-1.3,2c-0.3,0.8-0.5,1.7-0.4,2.6c0,0.9,0.1,1.8,0.4,2.6c0.3,0.7,0.7,1.4,1.3,2c0.6,0.6,1.3,1,2,1.2
			c0.8,0.3,1.7,0.4,2.5,0.4"/>
		<path class="st2" d="M133.5,112.6v-9.8h0.5c0.1,0,0.2,0,0.2,0.1c0.1,0.1,0.1,0.1,0.1,0.2l0.1,2.1c0.3-0.7,0.8-1.4,1.4-1.9
			c0.6-0.5,1.3-0.7,2.1-0.7c0.3,0,0.6,0,0.9,0.1c0.3,0.1,0.5,0.2,0.8,0.3l-0.1,0.6c0,0.1-0.1,0.2-0.2,0.2c-0.1,0-0.1,0-0.2,0
			l-0.3-0.1c-0.1,0-0.3-0.1-0.4-0.1c-0.2,0-0.4,0-0.6,0c-0.7,0-1.4,0.2-2,0.7c-0.6,0.5-1,1.2-1.2,2v6.4L133.5,112.6z"/>
		<path class="st2" d="M146,111.9c0.6,0,1.1-0.1,1.6-0.3c0.5-0.2,0.9-0.5,1.2-0.9c0.3-0.4,0.6-0.9,0.7-1.4c0.2-0.6,0.2-1.2,0.2-1.8
			c0-0.6-0.1-1.2-0.2-1.8c-0.1-0.5-0.4-1-0.7-1.4c-0.3-0.4-0.7-0.7-1.2-0.9c-0.5-0.2-1.1-0.3-1.6-0.3c-0.6,0-1.1,0.1-1.6,0.3
			c-0.5,0.2-0.9,0.5-1.2,0.9c-0.3,0.4-0.6,0.9-0.7,1.4c-0.2,0.6-0.2,1.2-0.2,1.8c0,0.6,0.1,1.2,0.2,1.8c0.1,0.5,0.4,1,0.7,1.4
			c0.3,0.4,0.7,0.7,1.2,0.9C144.9,111.8,145.4,112,146,111.9 M146,102.6c0.7,0,1.4,0.1,2,0.4c0.6,0.2,1.1,0.6,1.5,1
			c0.4,0.5,0.7,1,0.9,1.6c0.2,0.7,0.3,1.4,0.3,2.1c0,0.7-0.1,1.4-0.3,2.1c-0.2,0.6-0.5,1.1-0.9,1.6c-0.4,0.4-0.9,0.8-1.5,1
			c-0.6,0.2-1.3,0.4-2,0.4c-0.7,0-1.4-0.1-2-0.4c-0.6-0.2-1.1-0.6-1.5-1c-0.4-0.5-0.7-1-0.9-1.6c-0.2-0.7-0.3-1.4-0.3-2.1
			c0-0.7,0.1-1.4,0.3-2.1c0.2-0.6,0.5-1.1,0.9-1.6c0.4-0.4,0.9-0.8,1.5-1C144.6,102.7,145.3,102.6,146,102.6"/>
		<path class="st2" d="M156.3,112.7c-0.6,0-1.2-0.2-1.7-0.5c-0.4-0.5-0.7-1.1-0.6-1.7v-6.7h-1.5c-0.1,0-0.1,0-0.2-0.1
			c-0.1,0-0.1-0.1-0.1-0.2v-0.3l1.8-0.1l0.2-3.5c0-0.1,0-0.1,0.1-0.2c0,0,0.1-0.1,0.2-0.1h0.5v3.7h3.3v0.7H155v6.6
			c0,0.2,0,0.5,0.1,0.7c0.1,0.2,0.2,0.3,0.3,0.5c0.1,0.1,0.3,0.2,0.4,0.3c0.2,0.1,0.4,0.1,0.6,0.1c0.2,0,0.4,0,0.7-0.1
			c0.2-0.1,0.3-0.1,0.5-0.2c0.1-0.1,0.2-0.1,0.3-0.2c0.1-0.1,0.1-0.1,0.2-0.1c0.1,0,0.1,0,0.2,0.1l0.3,0.4c-0.3,0.3-0.6,0.5-1,0.7
			C157.2,112.7,156.8,112.8,156.3,112.7"/>
		<path class="st2" d="M161,112.6v-9.8h0.6c0.2,0,0.3,0.1,0.3,0.2l0.1,1.5c0.5-0.6,1-1,1.7-1.4c1.1-0.6,2.5-0.7,3.7-0.3
			c0.4,0.2,0.8,0.4,1.1,0.7c0.3,0.3,0.5,0.7,0.7,1.2c0.1,0.5,0.2,1,0.2,1.5v6.2h-1v-6.2c0.1-0.8-0.2-1.5-0.7-2.1
			c-0.5-0.6-1.3-0.8-2.1-0.8c-0.7,0-1.3,0.2-1.9,0.5c-0.6,0.3-1.2,0.8-1.6,1.4v7.3L161,112.6z"/>
		<path class="st2" d="M173.8,112.6h-1v-9.8h1V112.6z M174.2,99.4c0,0.1,0,0.2-0.1,0.3c-0.1,0.1-0.1,0.2-0.2,0.3
			c-0.1,0.1-0.2,0.1-0.3,0.2c-0.1,0-0.2,0.1-0.4,0.1c-0.2,0-0.5-0.1-0.7-0.3c-0.2-0.2-0.3-0.4-0.3-0.6c0-0.1,0-0.2,0.1-0.3
			c0-0.1,0.1-0.2,0.2-0.3c0.2-0.2,0.4-0.3,0.7-0.3c0.1,0,0.3,0,0.4,0.1c0.2,0.1,0.4,0.3,0.5,0.5C174.2,99.2,174.2,99.3,174.2,99.4"
			/>
		<path class="st2" d="M178.6,98.2v8.7h0.5c0.1,0,0.2,0,0.3,0c0.1,0,0.2-0.1,0.3-0.2l4.2-3.7c0.1-0.1,0.2-0.1,0.2-0.2
			c0.1-0.1,0.2-0.1,0.3-0.1h0.9l-4.7,4.1l-0.2,0.2c-0.1,0.1-0.1,0.1-0.2,0.1c0.1,0,0.2,0.1,0.3,0.2c0.1,0.1,0.2,0.2,0.2,0.2l4.9,4.9
			h-0.9c-0.1,0-0.2,0-0.3,0c-0.1,0-0.2-0.1-0.2-0.2l-4.4-4.4c-0.1-0.1-0.2-0.2-0.3-0.2c-0.2-0.1-0.3-0.1-0.5-0.1h-0.5v4.9h-1V98.2
			H178.6z"/>
		<path class="st2" d="M189.3,112.6h-1v-9.8h1V112.6z M189.7,99.4c0,0.1,0,0.2-0.1,0.3c-0.1,0.1-0.1,0.2-0.2,0.3
			c-0.1,0.1-0.2,0.1-0.3,0.2c-0.1,0-0.2,0.1-0.4,0.1c-0.2,0-0.5-0.1-0.7-0.3c-0.2-0.2-0.3-0.4-0.3-0.6c0-0.1,0-0.2,0.1-0.3
			c0-0.1,0.1-0.2,0.2-0.3c0.2-0.2,0.4-0.3,0.7-0.3c0.1,0,0.3,0,0.4,0.1c0.1,0,0.2,0.1,0.3,0.2c0.1,0.1,0.2,0.2,0.2,0.3
			C189.7,99.2,189.7,99.3,189.7,99.4"/>
		<path class="st2" d="M192.5,111.7c0-0.2,0.1-0.4,0.3-0.6c0.2-0.2,0.4-0.3,0.7-0.2c0.3,0,0.5,0.1,0.7,0.3c0.2,0.2,0.3,0.5,0.2,0.8
			c0,0.3,0,0.6-0.1,0.8c-0.1,0.3-0.2,0.6-0.3,0.8c-0.1,0.3-0.3,0.5-0.5,0.8c-0.2,0.3-0.4,0.5-0.7,0.7l-0.2-0.1
			c-0.1,0-0.1-0.1-0.1-0.2c0,0,0-0.1,0-0.1l0.1-0.1l0.3-0.3c0.1-0.1,0.2-0.3,0.3-0.5c0.1-0.2,0.2-0.4,0.3-0.6
			c0.1-0.2,0.1-0.4,0.2-0.7h-0.1h-0.2c-0.2,0-0.5-0.1-0.6-0.2C192.5,112.2,192.4,111.9,192.5,111.7"/>
		<path class="st2" d="M202.1,102.8v6.2c0,0.8,0.2,1.5,0.7,2.1c0.5,0.6,1.3,0.8,2.1,0.8c0.7,0,1.3-0.2,1.9-0.5
			c0.6-0.3,1.2-0.8,1.6-1.3v-7.4h1v9.8h-0.5c-0.2,0-0.3-0.1-0.3-0.2l-0.1-1.5c-0.5,0.5-1.1,1-1.7,1.4c-0.7,0.3-1.4,0.5-2.1,0.5
			c-0.5,0-1-0.1-1.5-0.2c-0.4-0.2-0.8-0.4-1.1-0.7c-0.3-0.3-0.5-0.7-0.7-1.2c-0.2-0.5-0.2-1-0.2-1.5v-6.2H202.1z"/>
	</g>
</g>
<rect x="213.1" y="98.3" class="st2" width="1" height="14.3"/>
<g>
	<defs>
		<rect id="SVGID_9_" width="436.7" height="161.3"/>
	</defs>
	<clipPath id="SVGID_10_">
		<use xlink:href="#SVGID_9_"  style="overflow:visible;"/>
	</clipPath>
	<g class="st6">
		<path class="st2" d="M217.3,111.8c0-0.1,0-0.2,0.1-0.4c0-0.1,0.1-0.2,0.2-0.3c0.1-0.1,0.2-0.1,0.3-0.2c0.1-0.1,0.3-0.1,0.4-0.1
			c0.1,0,0.3,0,0.4,0.1c0.1,0,0.2,0.1,0.3,0.2c0.1,0.1,0.2,0.2,0.2,0.3c0.1,0.2,0.1,0.5,0,0.7c-0.1,0.1-0.1,0.2-0.2,0.3
			c-0.1,0.1-0.2,0.1-0.3,0.2c-0.1,0-0.2,0.1-0.4,0.1c-0.3,0-0.5-0.1-0.7-0.3C217.4,112.3,217.3,112,217.3,111.8"/>
		<path class="st2" d="M234.2,109.1c0-0.1,0.1-0.2,0.1-0.3c0-0.1,0.1-0.2,0.2-0.3l5.9-9.7c0-0.1,0.1-0.1,0.2-0.2c0.1,0,0.2,0,0.2,0
			h0.8v13.9h-1v-11.9c0-0.2,0-0.4,0-0.5l-5.9,9.7c-0.1,0.2-0.2,0.3-0.4,0.3h-0.2c-0.2,0-0.3-0.1-0.4-0.3l-6.1-9.7c0,0.2,0,0.4,0,0.6
			v11.8h-1V98.7h0.8c0.1,0,0.2,0,0.2,0c0.1,0,0.1,0.1,0.2,0.2l6.1,9.7C233.9,108.7,234,108.9,234.2,109.1"/>
		<path class="st2" d="M248,112c0.4,0,0.8,0,1.1-0.1c0.3-0.1,0.6-0.2,1-0.3c0.3-0.2,0.6-0.3,0.8-0.5c0.3-0.2,0.5-0.4,0.8-0.7v-2.5
			c-0.9,0-1.7,0.1-2.6,0.2c-0.6,0.1-1.2,0.2-1.8,0.5c-0.4,0.1-0.8,0.4-1,0.7c-0.2,0.3-0.3,0.6-0.3,0.9c0,0.3,0,0.6,0.2,0.9
			c0.1,0.2,0.3,0.4,0.5,0.6c0.2,0.2,0.4,0.3,0.7,0.3C247.5,112,247.7,112,248,112 M252.2,112.5c-0.2,0-0.4-0.1-0.4-0.3l-0.1-1.2
			c-0.3,0.2-0.6,0.5-0.9,0.7c-0.3,0.2-0.6,0.4-0.9,0.5c-0.3,0.1-0.7,0.3-1,0.3c-0.4,0.1-0.8,0.1-1.2,0.1c-0.3,0-0.7-0.1-1-0.1
			c-0.3-0.1-0.6-0.2-0.9-0.5c-0.3-0.2-0.5-0.5-0.6-0.8c-0.2-0.4-0.3-0.8-0.2-1.1c0-0.4,0.1-0.8,0.4-1.1c0.3-0.4,0.7-0.7,1.2-0.9
			c0.7-0.3,1.4-0.5,2.1-0.6c1-0.2,2.1-0.3,3.1-0.3v-1c0-0.7-0.2-1.5-0.6-2.1c-0.5-0.5-1.2-0.8-1.9-0.7c-0.4,0-0.9,0.1-1.3,0.2
			c-0.3,0.1-0.6,0.3-0.9,0.4c-0.2,0.1-0.4,0.3-0.6,0.4c-0.1,0.1-0.2,0.2-0.4,0.2c-0.1,0-0.3-0.1-0.3-0.2l-0.2-0.3
			c0.5-0.5,1.1-0.9,1.7-1.2c0.7-0.3,1.4-0.4,2.1-0.4c0.5,0,1,0.1,1.5,0.2c0.4,0.2,0.7,0.4,1,0.7c0.3,0.3,0.5,0.7,0.6,1.1
			c0.1,0.5,0.2,1,0.2,1.5v6.4L252.2,112.5z"/>
		<path class="st2" d="M255.8,112.6v-9.8h0.5c0.1,0,0.2,0,0.2,0.1c0.1,0.1,0.1,0.1,0.1,0.2l0.1,2.1c0.3-0.7,0.8-1.4,1.4-1.9
			c0.6-0.5,1.3-0.7,2.1-0.7c0.3,0,0.6,0,0.9,0.1c0.3,0.1,0.5,0.2,0.8,0.3l-0.1,0.6c0,0.1-0.1,0.2-0.2,0.2c-0.1,0-0.1,0-0.2,0
			l-0.3-0.1c-0.1,0-0.3-0.1-0.4-0.1c-0.2,0-0.4,0-0.6,0c-0.7,0-1.4,0.2-2,0.7c-0.6,0.5-1,1.2-1.2,2v6.4L255.8,112.6z"/>
		<path class="st2" d="M270.1,104c0,0.1-0.1,0.1-0.2,0.1c-0.1,0-0.2-0.1-0.3-0.1l-0.5-0.3c-0.2-0.1-0.5-0.2-0.7-0.3
			c-0.4-0.1-0.7-0.1-1.1-0.1c-0.3,0-0.7,0.1-1,0.1c-0.3,0.1-0.6,0.2-0.8,0.4c-0.2,0.2-0.4,0.4-0.5,0.6c-0.1,0.2-0.2,0.5-0.2,0.7
			c0,0.3,0.1,0.5,0.3,0.8c0.2,0.2,0.4,0.4,0.7,0.5c0.3,0.2,0.6,0.3,0.9,0.4l1.1,0.3c0.4,0.1,0.7,0.2,1.1,0.4
			c0.3,0.1,0.6,0.3,0.9,0.5c0.3,0.2,0.5,0.4,0.7,0.7c0.2,0.3,0.3,0.6,0.3,1c0,0.4-0.1,0.8-0.2,1.2c-0.2,0.4-0.4,0.7-0.7,1
			c-0.3,0.3-0.7,0.5-1.2,0.6c-0.5,0.2-1,0.3-1.6,0.2c-0.7,0-1.3-0.1-1.9-0.3c-0.5-0.2-1-0.5-1.5-0.9l0.2-0.3l0.1-0.1
			c0.1,0,0.1,0,0.2,0c0.1,0,0.2,0.1,0.3,0.2c0.2,0.1,0.3,0.2,0.5,0.3c0.3,0.1,0.5,0.3,0.8,0.3c0.4,0.1,0.8,0.2,1.2,0.2
			c0.4,0,0.8-0.1,1.2-0.2c0.3-0.1,0.6-0.3,0.9-0.5c0.2-0.2,0.4-0.4,0.5-0.7c0.1-0.3,0.2-0.6,0.2-0.8c0-0.3-0.1-0.6-0.3-0.8
			c-0.2-0.2-0.4-0.4-0.7-0.6c-0.3-0.2-0.6-0.3-1-0.4l-1.1-0.3c-0.4-0.1-0.7-0.2-1.1-0.3c-0.3-0.1-0.6-0.3-0.9-0.5
			c-0.3-0.2-0.5-0.4-0.7-0.7c-0.2-0.3-0.3-0.7-0.2-1c0-0.3,0.1-0.7,0.2-1c0.2-0.3,0.4-0.6,0.7-0.8c0.3-0.3,0.7-0.5,1.1-0.6
			c0.5-0.2,1-0.2,1.5-0.2c0.6,0,1.2,0.1,1.7,0.3c0.5,0.2,1,0.4,1.4,0.8L270.1,104z"/>
		<path class="st2" d="M280.4,103.2c0,0.1-0.1,0.3-0.1,0.4l-6.6,8.3h6.5v0.7h-7.7v-0.3c0-0.1,0.1-0.3,0.2-0.4l6.6-8.3h-6.4v-0.7h7.6
			L280.4,103.2z"/>
		<path class="st2" d="M285.5,112c0.4,0,0.8,0,1.1-0.1c0.3-0.1,0.7-0.2,1-0.3c0.3-0.2,0.6-0.3,0.8-0.5c0.3-0.2,0.5-0.4,0.8-0.7v-2.5
			c-0.9,0-1.7,0.1-2.6,0.2c-0.6,0.1-1.2,0.2-1.8,0.5c-0.4,0.1-0.8,0.4-1,0.7c-0.2,0.3-0.3,0.6-0.3,0.9c0,0.3,0,0.6,0.2,0.9
			c0.1,0.2,0.3,0.4,0.5,0.6c0.2,0.2,0.4,0.3,0.7,0.3C285,112,285.2,112,285.5,112 M289.8,112.5c-0.2,0-0.4-0.1-0.4-0.3l-0.1-1.2
			c-0.3,0.2-0.6,0.5-0.9,0.7c-0.3,0.2-0.6,0.4-0.9,0.5c-0.3,0.1-0.7,0.2-1,0.3c-0.4,0.1-0.8,0.1-1.2,0.1c-0.3,0-0.7-0.1-1-0.1
			c-0.3-0.1-0.6-0.2-0.9-0.5c-0.3-0.2-0.5-0.5-0.6-0.8c-0.2-0.4-0.3-0.8-0.2-1.1c0-0.4,0.1-0.8,0.4-1.1c0.3-0.4,0.7-0.7,1.2-0.9
			c0.7-0.3,1.4-0.5,2.1-0.6c1-0.2,2-0.3,3.1-0.3v-1c0-0.7-0.2-1.5-0.6-2.1c-0.5-0.5-1.2-0.8-1.9-0.7c-0.4,0-0.9,0.1-1.3,0.2
			c-0.3,0.1-0.6,0.3-0.9,0.4c-0.2,0.1-0.4,0.3-0.6,0.4c-0.1,0.1-0.2,0.2-0.4,0.2c-0.1,0-0.3-0.1-0.3-0.2l-0.2-0.3
			c0.5-0.5,1.1-0.9,1.7-1.2c0.7-0.3,1.4-0.4,2.1-0.4c0.5,0,1,0.1,1.5,0.2c0.4,0.2,0.7,0.4,1,0.7c0.3,0.3,0.5,0.7,0.6,1.1
			c0.1,0.5,0.2,1,0.2,1.5v6.4L289.8,112.5z"/>
		<path class="st2" d="M295.3,98.2v5.8l2.1-0.9v0.5c0,0.1,0,0.1,0,0.2c0,0.1-0.1,0.1-0.2,0.1l-1.9,0.8v7.7h-1v-7.3l-2.1,0.9v-0.5
			c0-0.1,0.1-0.2,0.2-0.3l1.9-0.8v-6.3H295.3z"/>
		<path class="st2" d="M300.8,98.2v8.7h0.5c0.1,0,0.2,0,0.3,0c0.1,0,0.2-0.1,0.3-0.2l4.2-3.7c0.1-0.1,0.2-0.1,0.2-0.2
			c0.1-0.1,0.2-0.1,0.3-0.1h0.9l-4.7,4.1l-0.2,0.2c-0.1,0.1-0.1,0.1-0.2,0.1c0.1,0,0.2,0.1,0.3,0.2c0.1,0.1,0.2,0.2,0.2,0.2l4.9,4.9
			H307c-0.1,0-0.2,0-0.3,0c-0.1,0-0.2-0.1-0.2-0.2l-4.4-4.4c-0.1-0.1-0.2-0.2-0.3-0.2c-0.2-0.1-0.3-0.1-0.5-0.1h-0.5v4.9h-1V98.2
			H300.8z"/>
		<path class="st2" d="M313.5,111.9c0.6,0,1.1-0.1,1.6-0.3c0.5-0.2,0.9-0.5,1.2-0.9c0.3-0.4,0.6-0.9,0.7-1.4
			c0.2-0.6,0.2-1.2,0.2-1.8c0-0.6-0.1-1.2-0.2-1.8c-0.1-0.5-0.4-1-0.7-1.4c-0.3-0.4-0.7-0.7-1.2-0.9c-1.1-0.4-2.2-0.4-3.3,0
			c-0.5,0.2-0.9,0.5-1.2,0.9c-0.3,0.4-0.6,0.9-0.7,1.4c-0.2,0.6-0.2,1.2-0.2,1.8c0,0.6,0.1,1.2,0.2,1.8c0.1,0.5,0.4,1,0.7,1.4
			c0.3,0.4,0.7,0.7,1.2,0.9C312.4,111.9,313,112,313.5,111.9 M313.5,102.6c0.7,0,1.4,0.1,2,0.4c0.6,0.2,1.1,0.6,1.5,1
			c0.4,0.5,0.7,1,0.9,1.6c0.2,0.7,0.3,1.4,0.3,2.1c0,0.7-0.1,1.4-0.3,2.1c-0.2,0.6-0.5,1.1-0.9,1.6c-0.4,0.4-0.9,0.8-1.5,1
			c-1.3,0.5-2.7,0.5-4.1,0c-0.6-0.2-1.1-0.6-1.5-1c-0.4-0.4-0.8-1-1-1.6c-0.2-0.7-0.3-1.4-0.3-2.1c0-0.7,0.1-1.4,0.3-2.1
			c0.2-0.6,0.6-1.1,1-1.6c0.4-0.4,0.9-0.8,1.5-1C312.1,102.7,312.8,102.6,313.5,102.6"/>
		<path class="st2" d="M319.5,102.8h0.8c0.1,0,0.2,0,0.2,0.1c0.1,0,0.1,0.1,0.1,0.2l2.7,7.7c0,0.1,0.1,0.3,0.1,0.4
			c0,0.1,0,0.3,0.1,0.4l0.1-0.4c0-0.1,0.1-0.3,0.1-0.4l2.8-7.8c0-0.1,0.2-0.2,0.3-0.2h0.4c0.1,0,0.3,0.1,0.3,0.2l2.8,7.8
			c0.1,0.3,0.2,0.6,0.3,0.9l0.1-0.4c0-0.1,0.1-0.3,0.1-0.4l2.7-7.7c0-0.2,0.2-0.3,0.4-0.2h0.8l-3.5,9.8h-0.8c-0.1,0-0.2-0.1-0.2-0.2
			l-2.9-7.9c0-0.1-0.1-0.2-0.1-0.3s-0.1-0.2-0.1-0.3c0,0.1,0,0.2-0.1,0.3c0,0.1-0.1,0.2-0.1,0.3l-2.9,7.9c0,0.1-0.1,0.2-0.3,0.2H323
			L319.5,102.8z"/>
		<path class="st2" d="M342.5,104c0,0.1-0.1,0.1-0.2,0.1c-0.1,0-0.2-0.1-0.3-0.1l-0.5-0.3c-0.2-0.1-0.5-0.2-0.7-0.3
			c-0.4-0.1-0.7-0.1-1.1-0.1c-0.3,0-0.7,0-1,0.1c-0.3,0.1-0.6,0.2-0.8,0.4c-0.2,0.2-0.4,0.4-0.5,0.6c-0.1,0.2-0.2,0.5-0.2,0.7
			c0,0.3,0.1,0.5,0.2,0.8c0.2,0.2,0.4,0.4,0.7,0.5c0.3,0.2,0.6,0.3,0.9,0.4l1.1,0.3c0.4,0.1,0.7,0.2,1.1,0.4c0.3,0.1,0.7,0.3,1,0.5
			c0.3,0.2,0.5,0.4,0.7,0.7c0.2,0.3,0.3,0.7,0.2,1c0,0.4-0.1,0.8-0.2,1.2c-0.2,0.4-0.4,0.7-0.7,1c-0.3,0.3-0.7,0.5-1.2,0.6
			c-0.5,0.2-1,0.3-1.6,0.2c-0.7,0-1.3-0.1-1.9-0.3c-0.5-0.2-1-0.5-1.4-0.9l0.2-0.3l0.1-0.1c0.1,0,0.1,0,0.2,0c0.1,0,0.2,0.1,0.3,0.2
			c0.2,0.1,0.3,0.2,0.5,0.3c0.3,0.1,0.5,0.3,0.8,0.3c0.4,0.1,0.8,0.2,1.2,0.2c0.4,0,0.8-0.1,1.2-0.2c0.3-0.1,0.6-0.3,0.8-0.5
			c0.2-0.2,0.4-0.4,0.5-0.7c0.1-0.3,0.2-0.6,0.2-0.8c0-0.3-0.1-0.6-0.3-0.8c-0.2-0.2-0.4-0.4-0.7-0.6c-0.3-0.2-0.6-0.3-0.9-0.4
			l-1.1-0.3c-0.4-0.1-0.7-0.2-1.1-0.3c-0.3-0.1-0.6-0.3-0.9-0.5c-0.3-0.2-0.5-0.4-0.7-0.7c-0.2-0.3-0.3-0.7-0.2-1
			c0-0.3,0.1-0.7,0.2-1c0.2-0.3,0.4-0.6,0.7-0.8c0.3-0.3,0.7-0.5,1.1-0.6c0.5-0.2,1-0.2,1.5-0.2c0.6,0,1.2,0.1,1.7,0.3
			c0.5,0.2,1,0.4,1.4,0.8L342.5,104z"/>
		<path class="st2" d="M346.9,98.2v8.7h0.5c0.1,0,0.2,0,0.3,0c0.1,0,0.2-0.1,0.3-0.2l4.2-3.7c0.1-0.1,0.2-0.1,0.2-0.2
			c0.1-0.1,0.2-0.1,0.3-0.1h0.9l-4.7,4.1l-0.2,0.2c-0.1,0.1-0.1,0.1-0.2,0.1c0.1,0,0.2,0.1,0.3,0.2c0.1,0.1,0.2,0.2,0.2,0.2l4.9,4.9
			h-0.9c-0.1,0-0.2,0-0.3,0c-0.1,0-0.2-0.1-0.2-0.2l-4.4-4.4c-0.1-0.1-0.2-0.2-0.3-0.2c-0.2-0.1-0.3-0.1-0.5-0.1h-0.5v4.9h-1V98.2
			H346.9z"/>
		<path class="st2" d="M358.7,112c0.4,0,0.8,0,1.1-0.1c0.3-0.1,0.6-0.2,1-0.3c0.3-0.2,0.6-0.3,0.8-0.5c0.3-0.2,0.5-0.4,0.8-0.7v-2.5
			c-0.9,0-1.7,0.1-2.6,0.2c-0.6,0.1-1.2,0.2-1.8,0.5c-0.4,0.2-0.7,0.4-1,0.7c-0.2,0.3-0.3,0.6-0.3,0.9c0,0.3,0,0.6,0.2,0.9
			c0.1,0.2,0.3,0.4,0.5,0.6c0.2,0.2,0.4,0.3,0.7,0.3C358.2,112,358.5,112,358.7,112 M363,112.6c-0.2,0-0.4-0.1-0.4-0.3l-0.1-1.2
			c-0.3,0.3-0.6,0.5-0.9,0.7c-0.3,0.2-0.6,0.4-0.9,0.5c-0.3,0.1-0.7,0.2-1,0.3c-0.4,0.1-0.8,0.1-1.2,0.1c-0.3,0-0.7-0.1-1-0.1
			c-0.3-0.1-0.6-0.2-0.9-0.5c-0.3-0.2-0.5-0.5-0.6-0.8c-0.2-0.4-0.3-0.8-0.2-1.1c0-0.4,0.1-0.8,0.4-1.1c0.3-0.4,0.7-0.7,1.2-0.9
			c0.7-0.3,1.4-0.5,2.1-0.6c1-0.2,2-0.3,3.1-0.3v-1c0-0.7-0.2-1.5-0.6-2.1c-0.5-0.5-1.2-0.8-1.9-0.7c-0.4,0-0.9,0.1-1.3,0.2
			c-0.3,0.1-0.6,0.3-0.9,0.4c-0.2,0.1-0.4,0.3-0.6,0.4c-0.1,0.1-0.2,0.2-0.4,0.2c-0.1,0-0.3-0.1-0.3-0.2l-0.2-0.3
			c0.5-0.5,1.1-0.9,1.7-1.2c0.7-0.3,1.4-0.4,2.1-0.4c0.5,0,1,0.1,1.5,0.2c0.4,0.2,0.7,0.4,1,0.7c0.3,0.3,0.5,0.7,0.6,1.1
			c0.1,0.5,0.2,1,0.2,1.5v6.4L363,112.6z"/>
		<path class="st2" d="M379.2,99.1c0,0.1-0.1,0.2-0.1,0.3c-0.1,0.1-0.3,0.1-0.5,0.1h-5.4l-0.9,4.6c0.4-0.1,0.9-0.2,1.4-0.2
			c0.4,0,0.8-0.1,1.2-0.1c0.7,0,1.4,0.1,2.1,0.3c0.6,0.2,1.1,0.5,1.5,0.9c0.4,0.4,0.7,0.8,0.9,1.3c0.4,1.2,0.4,2.5-0.1,3.6
			c-0.3,0.6-0.7,1.1-1.1,1.5c-0.5,0.4-1,0.7-1.6,0.9c-0.6,0.2-1.3,0.3-2,0.3c-0.4,0-0.8,0-1.2-0.1c-0.4-0.1-0.7-0.2-1.1-0.3
			c-0.3-0.1-0.6-0.3-0.9-0.4c-0.3-0.1-0.5-0.3-0.7-0.5l0.3-0.4c0.1-0.1,0.2-0.2,0.3-0.1c0.1,0,0.3,0.1,0.4,0.1
			c0.2,0.1,0.4,0.2,0.7,0.3c0.3,0.1,0.7,0.2,1,0.3c0.4,0.1,0.9,0.2,1.3,0.1c0.6,0,1.1-0.1,1.6-0.3c0.5-0.2,0.9-0.4,1.3-0.8
			c0.4-0.3,0.7-0.7,0.9-1.2c0.2-0.5,0.3-1.1,0.3-1.6c0-0.5-0.1-0.9-0.2-1.4c-0.2-0.4-0.4-0.8-0.7-1.1c-0.3-0.3-0.8-0.6-1.2-0.7
			c-0.6-0.2-1.2-0.3-1.7-0.2c-0.4,0-0.9,0-1.3,0.1c-0.5,0.1-1,0.2-1.5,0.3l-0.7-0.2l1.2-6.2h6.8L379.2,99.1z"/>
		<path class="st2" d="M383.7,108.4c0,0.5,0.1,1,0.3,1.4c0.2,0.4,0.4,0.8,0.7,1.1c0.3,0.3,0.7,0.6,1.2,0.7c0.5,0.2,1,0.3,1.5,0.3
			c0.6,0,1.1-0.1,1.6-0.3c0.5-0.2,0.9-0.4,1.2-0.7c0.3-0.3,0.6-0.7,0.8-1.1c0.2-0.4,0.3-0.9,0.3-1.4c0-0.5-0.1-1-0.3-1.4
			c-0.2-0.4-0.4-0.8-0.8-1.1c-0.3-0.3-0.7-0.5-1.2-0.7c-0.5-0.2-1-0.2-1.5-0.2c-0.6,0-1.1,0.1-1.7,0.3c-0.5,0.2-0.9,0.4-1.2,0.8
			c-0.3,0.3-0.6,0.7-0.8,1.1C383.8,107.5,383.7,107.9,383.7,108.4 M387.9,104.2c0.6,0,1.2,0.1,1.8,0.3c0.5,0.2,1,0.5,1.4,0.8
			c0.4,0.4,0.7,0.8,0.9,1.3c0.2,0.5,0.3,1.1,0.3,1.7c0,0.6-0.1,1.2-0.4,1.7c-0.2,0.5-0.6,1-1,1.4c-0.5,0.4-1,0.7-1.6,0.9
			c-0.6,0.2-1.3,0.3-2,0.3c-0.7,0-1.3-0.1-1.9-0.3c-0.6-0.2-1.1-0.5-1.5-0.9c-0.4-0.4-0.8-0.9-1-1.4c-0.2-0.6-0.3-1.3-0.3-1.9
			c0-0.6,0.2-1.3,0.5-1.8c0.4-0.8,0.9-1.6,1.5-2.3l4.1-5.1c0.1-0.2,0.3-0.2,0.5-0.2h0.9l-4.5,5.4l-0.6,0.8c-0.2,0.2-0.3,0.5-0.5,0.7
			c0.4-0.4,0.9-0.7,1.5-0.9C386.6,104.3,387.3,104.2,387.9,104.2"/>
		<path class="st1" d="M123.2,142.7c-1,0.1-1.9-0.3-2.6-0.9c-0.6-0.7-1-1.6-0.9-2.5v-7.8H118c-0.1,0-0.3,0-0.4-0.1
			c-0.1-0.1-0.2-0.3-0.1-0.4v-1l2.3-0.3l0.6-3.9c0-0.1,0.1-0.3,0.2-0.3c0.1-0.1,0.3-0.1,0.4-0.1h1.4v4.4h4v1.8h-4v7.6
			c0,0.4,0.1,0.8,0.4,1.1c0.3,0.3,0.6,0.4,1,0.4c0.2,0,0.4,0,0.6-0.1c0.2,0,0.3-0.1,0.5-0.2c0.1-0.1,0.2-0.1,0.3-0.2
			c0.1,0,0.2-0.1,0.2-0.1c0.1,0,0.1,0,0.2,0.1c0.1,0,0.1,0.1,0.2,0.2l0.8,1.2c-0.5,0.4-1,0.7-1.6,0.9
			C124.4,142.6,123.8,142.7,123.2,142.7"/>
		<path class="st1" d="M138,134.5c0-0.5-0.1-0.9-0.2-1.4c-0.1-0.4-0.4-0.8-0.7-1.1c-0.3-0.3-0.7-0.6-1.1-0.7c-0.5-0.2-1-0.3-1.5-0.3
			c-1-0.1-1.9,0.3-2.7,0.9c-0.7,0.7-1.1,1.6-1.2,2.5H138z M140.2,140.6c-0.3,0.4-0.7,0.7-1.1,0.9c-0.4,0.3-0.9,0.5-1.4,0.6
			c-0.5,0.2-1,0.3-1.5,0.4c-0.5,0.1-1,0.1-1.6,0.1c-0.9,0-1.8-0.1-2.6-0.4c-1.6-0.6-3-1.9-3.6-3.5c-0.4-1-0.5-2-0.5-3
			c0-0.9,0.2-1.7,0.5-2.5c0.3-0.7,0.7-1.4,1.3-2c0.6-0.6,1.3-1.1,2.1-1.4c0.9-0.3,1.8-0.5,2.8-0.5c0.8,0,1.6,0.1,2.4,0.4
			c0.7,0.2,1.3,0.6,1.9,1.1c0.5,0.5,1,1.1,1.2,1.8c0.3,0.8,0.5,1.6,0.4,2.5c0,0.3,0,0.5-0.1,0.8c-0.1,0.1-0.3,0.2-0.5,0.2h-9.2
			c0,0.7,0.1,1.4,0.4,2c0.2,0.5,0.5,1,0.9,1.4c0.4,0.4,0.8,0.7,1.3,0.9c0.6,0.2,1.1,0.3,1.7,0.3c0.5,0,1.1-0.1,1.6-0.2
			c0.4-0.1,0.8-0.2,1.1-0.4c0.3-0.1,0.5-0.3,0.8-0.4c0.2-0.1,0.4-0.2,0.6-0.2c0.2,0,0.4,0.1,0.5,0.2L140.2,140.6z"/>
	</g>
</g>
<rect x="143.4" y="123.6" class="st1" width="2.7" height="18.9"/>
<g>
	<defs>
		<rect id="SVGID_11_" width="436.7" height="161.3"/>
	</defs>
	<clipPath id="SVGID_12_">
		<use xlink:href="#SVGID_11_"  style="overflow:visible;"/>
	</clipPath>
	<g class="st7">
		<path class="st1" d="M149.5,141c0-0.2,0-0.4,0.1-0.6c0.1-0.2,0.2-0.4,0.4-0.5c0.2-0.2,0.4-0.3,0.6-0.4c0.5-0.2,1-0.2,1.4,0
			c0.4,0.2,0.8,0.5,1,0.9c0.1,0.2,0.1,0.4,0.1,0.6c0,0.2,0,0.5-0.1,0.7c-0.2,0.4-0.6,0.7-1,0.9c-0.5,0.2-1,0.2-1.4,0
			c-0.2-0.1-0.4-0.2-0.6-0.4c-0.2-0.2-0.3-0.3-0.4-0.5C149.5,141.4,149.5,141.2,149.5,141"/>
		<path class="st1" d="M166.7,131c0.9-0.2,1.8-0.3,2.7-0.3c0.9,0,1.9,0.1,2.7,0.4c0.7,0.3,1.4,0.7,2,1.2c0.5,0.5,0.9,1.1,1.2,1.8
			c0.3,0.7,0.4,1.5,0.4,2.2c0,0.9-0.2,1.8-0.6,2.6c-0.4,0.8-0.9,1.4-1.5,2c-0.7,0.6-1.4,1-2.3,1.3c-1.5,0.5-3,0.6-4.5,0.3
			c-0.5-0.1-1-0.2-1.5-0.4c-0.5-0.2-0.9-0.4-1.3-0.6c-0.4-0.2-0.7-0.5-1.1-0.7l0.8-1.1c0.2-0.2,0.4-0.4,0.7-0.4
			c0.2,0,0.5,0.1,0.7,0.2c0.2,0.1,0.5,0.3,0.8,0.4c0.4,0.2,0.8,0.3,1.1,0.4c1.1,0.3,2.3,0.3,3.4-0.1c0.5-0.2,1-0.5,1.4-0.9
			c0.4-0.4,0.7-0.8,0.9-1.3c0.2-0.5,0.3-1.1,0.3-1.7c0-0.5-0.1-1-0.3-1.5c-0.2-0.4-0.4-0.8-0.8-1.1c-0.4-0.3-0.8-0.6-1.3-0.7
			c-0.6-0.2-1.2-0.3-1.8-0.2c-1.1,0-2.1,0.2-3.1,0.5l-1.7-0.5l1.6-8.7h9.5v1.2c0,0.3-0.1,0.6-0.4,0.9c-0.4,0.3-0.8,0.4-1.2,0.3h-6
			L166.7,131z"/>
		<path class="st1" d="M190,133.2c0-1.2-0.1-2.3-0.4-3.5c-0.2-0.8-0.5-1.6-1-2.2c-0.4-0.5-0.8-1-1.4-1.2c-0.5-0.2-1.1-0.4-1.7-0.4
			c-0.6,0-1.1,0.1-1.7,0.4c-0.6,0.3-1.1,0.7-1.4,1.2c-0.5,0.7-0.8,1.4-1,2.2c-0.5,2.3-0.5,4.6,0,6.9c0.2,0.8,0.5,1.6,1,2.2
			c0.4,0.5,0.8,0.9,1.4,1.2c0.5,0.2,1.1,0.4,1.7,0.4c0.6,0,1.1-0.1,1.7-0.4c0.6-0.3,1.1-0.7,1.4-1.2c0.5-0.7,0.8-1.4,1-2.2
			C189.9,135.6,190,134.4,190,133.2 M192.8,133.2c0,1.4-0.2,2.8-0.6,4.2c-0.3,1.1-0.8,2.1-1.5,2.9c-0.6,0.7-1.4,1.3-2.3,1.7
			c-1.8,0.7-3.9,0.7-5.7,0c-0.9-0.4-1.7-1-2.3-1.7c-0.7-0.9-1.2-1.9-1.5-2.9c-0.7-2.7-0.7-5.6,0-8.3c0.3-1.1,0.8-2.1,1.5-2.9
			c0.6-0.7,1.4-1.3,2.3-1.7c1.8-0.8,3.9-0.8,5.7,0c0.9,0.4,1.7,1,2.3,1.7c0.7,0.9,1.2,1.9,1.5,2.9
			C192.6,130.4,192.8,131.8,192.8,133.2"/>
		<path class="st1" d="M207.8,140.6v1.9H197v-1.9h4.2v-12c0-0.4,0-0.8,0-1.2l-3.4,2.6c-0.1,0.1-0.2,0.2-0.4,0.2c-0.1,0-0.2,0-0.4,0
			c-0.1,0-0.2-0.1-0.3-0.1c-0.1,0-0.2-0.1-0.2-0.2l-0.8-1.1l5.9-4.7h2.2v16.5L207.8,140.6z"/>
		<path class="st1" d="M224.6,125.8c-0.5,0-1,0.1-1.5,0.2c-0.4,0.1-0.8,0.4-1.1,0.6c-0.3,0.3-0.5,0.6-0.6,1
			c-0.1,0.4-0.2,0.8-0.2,1.1c0,0.4,0.1,0.8,0.2,1.2c0.1,0.4,0.3,0.7,0.6,1c0.3,0.3,0.7,0.6,1,0.7c1,0.3,2.1,0.3,3.2,0
			c0.4-0.2,0.8-0.4,1.1-0.7c0.3-0.3,0.5-0.6,0.6-1c0.1-0.4,0.2-0.8,0.2-1.2c0-0.4-0.1-0.8-0.2-1.1c-0.1-0.4-0.4-0.7-0.6-1
			c-0.3-0.3-0.7-0.5-1.1-0.6C225.7,125.9,225.2,125.8,224.6,125.8 M224.6,140.7c0.6,0,1.1-0.1,1.7-0.2c0.5-0.1,0.9-0.4,1.2-0.7
			c0.3-0.3,0.6-0.6,0.8-1c0.2-0.4,0.3-0.9,0.3-1.3c0-0.5-0.1-1.1-0.3-1.5c-0.2-0.4-0.5-0.8-0.9-1.1c-0.4-0.3-0.8-0.5-1.3-0.6
			c-1-0.3-2.1-0.3-3,0c-0.5,0.1-0.9,0.3-1.3,0.6c-0.4,0.3-0.7,0.6-0.9,1.1c-0.2,0.5-0.3,1-0.3,1.5c0,0.5,0.1,0.9,0.3,1.3
			c0.2,0.4,0.4,0.7,0.8,1c0.4,0.3,0.8,0.5,1.2,0.7C223.5,140.6,224.1,140.7,224.6,140.7 M227.6,132.9c1.1,0.2,2.1,0.8,2.8,1.6
			c0.7,0.8,1,1.8,1,2.9c0,0.8-0.2,1.5-0.5,2.2c-0.3,0.7-0.8,1.2-1.4,1.7c-0.6,0.5-1.4,0.8-2.1,1.1c-0.9,0.3-1.8,0.4-2.7,0.4
			c-0.9,0-1.8-0.1-2.7-0.4c-0.8-0.2-1.5-0.6-2.1-1.1c-0.6-0.4-1.1-1-1.4-1.7c-0.3-0.7-0.5-1.4-0.5-2.2c0-1,0.3-2.1,1-2.9
			c0.7-0.8,1.7-1.4,2.8-1.6c-0.9-0.3-1.7-0.8-2.3-1.6c-0.9-1.3-1-3-0.3-4.5c0.3-0.6,0.7-1.1,1.2-1.5c0.6-0.5,1.2-0.8,1.9-1
			c1.6-0.5,3.3-0.5,4.9,0c0.7,0.2,1.3,0.5,1.9,1c0.5,0.4,0.9,0.9,1.2,1.5c0.3,0.6,0.4,1.2,0.4,1.9c0,0.9-0.3,1.8-0.8,2.5
			C229.4,132,228.6,132.6,227.6,132.9"/>
		<path class="st1" d="M242.7,135.8v-7.2c0-0.2,0-0.5,0-0.8s0-0.6,0.1-0.9l-7,8.8H242.7z M247.9,135.8v1.5c0,0.3-0.2,0.5-0.5,0.5
			c0,0,0,0-0.1,0h-2.3v4.7h-2.4v-4.8H234c-0.2,0-0.4-0.1-0.5-0.2c-0.1-0.1-0.2-0.2-0.3-0.4l-0.3-1.3l9.6-11.8h2.5v11.7L247.9,135.8z
			"/>
		<path class="st1" d="M262.3,140.1c0.3,0,0.5,0.1,0.7,0.2c0.2,0.2,0.3,0.4,0.2,0.6v1.5h-13.3v-0.9c0-0.2,0-0.4,0.1-0.5
			c0.1-0.2,0.2-0.4,0.4-0.5l6.3-5.8c0.5-0.5,1-1,1.4-1.4c0.4-0.4,0.8-0.9,1.1-1.3c0.3-0.4,0.5-0.9,0.7-1.4c0.2-0.5,0.2-1,0.2-1.5
			c0-0.5-0.1-0.9-0.3-1.3c-0.2-0.4-0.4-0.7-0.7-1c-0.3-0.3-0.7-0.5-1.1-0.6c-0.4-0.1-0.9-0.2-1.3-0.2c-0.4,0-0.9,0.1-1.3,0.2
			c-0.4,0.1-0.7,0.3-1.1,0.5c-0.3,0.2-0.6,0.5-0.8,0.8c-0.2,0.3-0.4,0.6-0.5,1c-0.1,0.3-0.3,0.5-0.5,0.6c-0.3,0.1-0.6,0.2-0.9,0.1
			l-1.4-0.2c0.1-0.8,0.4-1.5,0.8-2.2c0.4-0.6,0.8-1.2,1.4-1.6c0.6-0.5,1.3-0.8,2-1c0.8-0.2,1.6-0.3,2.4-0.3c0.8,0,1.6,0.1,2.4,0.4
			c0.7,0.2,1.3,0.5,1.9,1c0.5,0.4,1,1,1.3,1.6c0.3,0.7,0.5,1.4,0.5,2.1c0,0.6-0.1,1.3-0.3,1.9c-0.2,0.6-0.5,1.2-0.9,1.7
			c-0.4,0.5-0.8,1.1-1.3,1.5l-1.6,1.5l-5,4.8c0.4-0.1,0.8-0.2,1.2-0.2c0.4-0.1,0.7-0.1,1.1-0.1L262.3,140.1z"/>
		<path class="st1" d="M286.7,124.1v1.1c0,0.3,0,0.5-0.1,0.8c-0.1,0.2-0.2,0.4-0.2,0.5l-8,15c-0.1,0.2-0.3,0.5-0.5,0.6
			c-0.3,0.2-0.6,0.3-0.9,0.3h-1.9l8.2-14.8c0.1-0.2,0.3-0.5,0.4-0.7c0.1-0.2,0.3-0.4,0.5-0.5h-10.1c-0.2,0-0.3-0.1-0.5-0.2
			c-0.1-0.1-0.2-0.3-0.2-0.4v-1.7L286.7,124.1z"/>
		<path class="st1" d="M297.8,135.8v-7.2c0-0.2,0-0.5,0-0.8s0-0.6,0.1-0.9l-7,8.8H297.8z M303,135.8v1.5c0,0.1-0.1,0.3-0.1,0.4
			c-0.1,0.1-0.3,0.2-0.4,0.1h-2.3v4.7h-2.4v-4.8h-8.7c-0.2,0-0.4-0.1-0.5-0.2c-0.1-0.1-0.2-0.2-0.3-0.4l-0.3-1.3l9.6-11.8h2.5v11.7
			L303,135.8z"/>
		<path class="st1" d="M318.8,124.1v1.1c0,0.3,0,0.5-0.1,0.8c-0.1,0.2-0.2,0.4-0.2,0.5l-8,15c-0.1,0.2-0.3,0.5-0.5,0.6
			c-0.3,0.2-0.6,0.3-0.9,0.3H307l8.2-14.8c0.1-0.2,0.3-0.5,0.4-0.7c0.1-0.2,0.3-0.4,0.5-0.5h-10.2c-0.2,0-0.3-0.1-0.5-0.2
			c-0.1-0.1-0.2-0.3-0.2-0.4v-1.7L318.8,124.1z"/>
	</g>
</g>
</svg>
